M48
;Layer_Color=9474304
;FILE_FORMAT=2:5
INCH,TZ
;TYPE=PLATED
T01F00S00C0.01181
T02F00S00C0.01575
T03F00S00C0.02559
T04F00S00C0.02756
T05F00S00C0.03150
%
T01
X86024Y38976
X89173
Y56102
X86024
X275517Y34077
X325208Y34444
X359266Y34150
X413726Y37584
X489069Y37895
X543008Y33899
X584855Y33675
X626792Y34123
X734252Y141535
X755905Y141630
X777559
X622047Y117126
X626478Y83461
X584900Y83640
X584680Y58846
X542963Y83865
X536614Y111221
X492981Y83546
X447106Y79686
X447244Y63113
X409458Y83546
X411417Y161614
X431102Y167520
X470472Y161614
X489173Y167520
X437795Y208858
X358661Y117126
X359559Y83255
X325942Y83915
X325282Y58666
X275590Y83465
X269685Y111221
X218504Y141614
X168504Y136811
X150984Y147244
X140748Y151582
X134772Y166571
X129468Y186023
X141084Y187205
X118002Y151582
X114075
X110293Y151744
X106398Y121079
X102411
X129921Y108344
X136417Y112205
X148031Y112740
X146400Y108344
X150165Y106125
X148229Y125915
X65354Y130905
Y134843
Y138779
Y142717
X61417
X57480
Y138779
Y134843
Y130905
X61417
Y134843
Y138779
X68898Y88927
X72835Y88091
X79222Y94296
X75590Y74410
X80709Y71260
X96308Y77756
X49606Y100394
X383377Y232395
X387314
Y236332
X391251
Y232395
X383377Y236332
X445669Y236623
X455905
X506161Y234321
Y240256
T02
X10236Y10236
X25984
X41732
Y25984
Y41732
X25984
X10236
Y25984
X57480
X73228
X88976
X104724
X120472
Y10236
X136221
X151969
X167717
X183465
X199213
Y25984
Y41732
X183465
Y25984
X167717
Y41732
X151969Y25984
X136221Y41732
X104724Y10236
X88976
X73228
X57480
X214961
X230709
X246457
X262205
X277953
X293701
X309449
X325197
X340945
X356693
X214961Y25984
X372441Y10236
X388189
X403937
X419685
X435433
X451181
X466929
X482677
X498425
X514173
X435433Y25984
X529921Y10236
X545669
X561417
X577165
X592913
X608661
X624409
X640157
X655905
X671654
X687401
X703150
X718898
X734646
X750394
X766142
X781890
X797638
X813386
X829134
Y41732
X813386
Y25984
X797638
Y41732
X781890
Y25984
X766142
Y41732
X750394
Y25984
X734646
Y41732
X718898
Y25984
X703150
Y41732
X687401Y25984
X844882
X860630
Y41732
X876378
Y10236
X860630
X844882
Y41732
Y73228
Y88976
Y104724
Y120472
X863189Y133465
X877165Y138189
Y156693
X876378Y167717
Y183465
Y199213
X860630
Y183465
X863189Y172835
X844882Y167717
Y183465
Y199213
Y151969
X877165Y117323
X881890Y105118
X876378Y88976
X877165Y77953
X881890Y65748
X876378Y57480
X863189Y94095
X829724Y98819
X813386Y104724
X807087Y105118
Y87795
X797638Y88976
X798425Y77953
X815748Y75590
X807087Y65748
X813386Y57480
X797638
X781890
X766142
Y73228
Y88976
Y104724
Y120472
X750394
Y104724
Y88976
Y57480
X734646
Y73228
X718898
Y88976
X703150
Y104724
Y120472
X718898
X734646
Y104724
Y151969
X750394
X766142
Y167717
Y183465
X781890
X784449Y172835
X797638Y167717
X798425Y156693
Y138189
X784449Y133465
X798425Y117323
X815748Y114961
Y133465
Y154331
X811024Y166535
X813386Y183465
X829134
Y199213
X813386
X797638
Y183465
X781890Y199213
X766142
X750394
Y183465
Y167717
X734646
Y183465
Y199213
X718898
Y183465
Y167717
Y151969
X703150
Y167717
Y183465
Y199213
X687401
Y183465
Y167717
Y151969
Y120472
Y104724
Y88976
X703150Y73228
Y57480
X718898
X784449Y94095
X829724Y59449
X633465Y59055
X634252Y107480
X624409Y120472
X608661
X592913
Y151969
X608661
X624409
X640157
X655905
X671654
Y167717
Y183465
Y199213
X655905
Y183465
Y167717
X640157
Y183465
Y199213
X624409
Y183465
Y167717
X608661
Y183465
Y199213
X592913
Y183465
Y167717
X577165Y183465
Y199213
X561417
X545669
Y183465
Y167717
X561417
Y151969
X545669
X529921
X527165Y167520
X529921Y183465
Y199213
X535039Y117126
Y107480
X545669Y120472
X561417
X671654
X668898Y117126
Y107480
X671654Y104724
X500394Y107480
X471654Y94488
X466929Y120472
X451181
X435433
X429108Y94488
X401181Y107480
Y117126
X403937Y151969
X392913Y153543
X374409
X372441Y199213
X388189
X403937
X409055Y167520
X433465Y153641
X451968Y153543
X466929Y151969
X468110Y167520
X466929Y183465
X498425
X514173
Y199213
X511024Y153543
X492520
X499606Y59055
X401968
X366535Y107480
X356693Y120472
X340945
X325197
X309449
X293701
X277953
X267323Y117126
Y107480
X232677
X214961Y104724
Y120472
Y151969
X230709
X246457
X262205
X277953
X293701
X309449
X325197
X340945
X356693
Y167717
X340945
X325197
X309449
X293701
X277953
X262205
X246457
X230709
X214961
Y199213
X230709
X246457
X262205
X277953
X293701
X309449
X325197
X340945
X356693
X268110Y59055
X214961Y88976
X199213
Y104724
Y120472
X183465
Y104724
Y88976
Y73228
X199213
Y57480
X183465
X167717
Y73228
Y88976
Y104724
Y120472
Y151969
X183465
X199213
Y167717
X183465
X159750Y169389
X120472Y167717
X129921Y158071
X104724Y151969
X73228
Y167717
Y183465
X88976
X96457Y190354
X108268
X104724Y199213
X88976
X73228
X121260Y203150
X136221Y199213
X140748Y198562
X148032Y210728
X183465Y199213
X199213
X134646Y124803
X120472Y120472
Y104724
X136221
Y73228
Y57480
X120472
Y73228
Y88976
X92126Y89764
X88976Y104724
Y120472
X73228
Y104724
X79134Y77165
X41732Y73228
Y88976
Y104724
Y120472
Y136221
Y151969
Y167717
Y183465
Y199213
X25984
Y183465
Y167717
Y151969
Y136221
Y120472
Y104724
Y88976
Y73228
X10236
Y88976
Y104724
Y120472
Y136221
Y151969
Y167717
Y183465
Y199213
Y57480
X41732
X54583Y96174
X41732Y214961
Y230709
Y246457
Y262205
Y277953
Y293701
Y309449
Y325197
Y340945
Y356693
X10236
Y340945
Y325197
X25984
Y309449
Y293701
Y277953
Y262205
Y246457
Y230709
Y214961
X10236
Y230709
Y246457
Y262205
Y277953
Y293701
Y309449
X73228
Y325197
X88976
Y340945
X73228
X100787Y345472
X123228Y365748
X134646Y359449
X136221Y285433
X136221Y214961
X151969
X120472
X104724
X88976
X73228
Y246457
X88976
X73228Y262205
X356693Y285433
X355906Y359449
X343701Y365748
X321260Y345472
X403937Y340945
X419685
X423228Y324803
X435433Y356693
X466929
X482677Y340945
X498425
X514173
X482283Y324803
X464567Y295276
X497227Y236957
X514173Y230709
Y214961
X412626Y218819
X403636Y219291
X403937Y230709
X390853Y212547
X529921Y214961
X545669
X561417
X577165
X592913
X608661
X624409
X640157
X655905
X671654
Y230709
X655905
X640157
X624409
X608661
X592913
X577165
X561417
X545669
X529921
X540945Y285433
X545669Y340945
X541732Y345472
X529921Y340945
X577165
X592913
X608661
X624409
X640157
X655905
X671654
X576378Y359449
X564173Y365748
X687401Y340945
X703150
X718898
X734646
X750394
X766142
X762205Y345472
X797638Y340945
X813386
X829134
Y356693
X813386
X796850Y359449
X784646Y365748
X813386Y325197
X829134
Y309449
Y293701
Y277953
Y262205
Y246457
Y230709
Y214961
X813386
Y230709
Y246457
X797638Y230709
Y214961
X781890
Y230709
X766142
Y214961
X750394
Y230709
X734646
Y214961
X718898
Y230709
X703150
Y214961
X687401
Y230709
X761417Y285433
X844882Y277953
X860630
X876378
Y293701
Y309449
Y325197
Y340945
X860630Y356693
X844882
Y340945
Y325197
X860630
Y309449
Y293701
X844882
Y309449
Y262205
X860630
X876378
Y246457
Y230709
Y214961
X860630
Y230709
Y246457
X844882
Y230709
Y214961
Y372441
X860630
X813386
X797638
X781890
X766142
X750394
X734646
X718898
X703150
X687401
X671654
X655905
X640157
X624409
X608661
X577165
X561417
X545669
X529921
X514173
X498425
X482677
X466929
X435433
X419685
X403937
X388189
X372441
X356693
X340945
X325197
X309449
X293701
X277953
X262205
X246457
X230709
X214961
X199213
X183465
X167717
X136221
X120472
X104724
X88976
X73228
X57480
X41732
X10236
T03
X102362Y47244
T04
X78150Y38583
Y55512
X97047
Y38583
T05
X435039Y219291
X442913
X450787
X458661
X466535
M30
