G04*
G04 #@! TF.GenerationSoftware,Altium Limited,Altium Designer,24.5.1 (21)*
G04*
G04 Layer_Color=8388736*
%FSLAX25Y25*%
%MOIN*%
G70*
G04*
G04 #@! TF.SameCoordinates,89CE71C2-79D1-448F-8852-A8AA6FA4BD66*
G04*
G04*
G04 #@! TF.FilePolarity,Negative*
G04*
G01*
G75*
%ADD47R,0.01378X0.02362*%
%ADD48R,0.02362X0.01378*%
G04:AMPARAMS|DCode=52|XSize=35.43mil|YSize=38.19mil|CornerRadius=6.69mil|HoleSize=0mil|Usage=FLASHONLY|Rotation=270.000|XOffset=0mil|YOffset=0mil|HoleType=Round|Shape=RoundedRectangle|*
%AMROUNDEDRECTD52*
21,1,0.03543,0.02480,0,0,270.0*
21,1,0.02205,0.03819,0,0,270.0*
1,1,0.01339,-0.01240,-0.01102*
1,1,0.01339,-0.01240,0.01102*
1,1,0.01339,0.01240,0.01102*
1,1,0.01339,0.01240,-0.01102*
%
%ADD52ROUNDEDRECTD52*%
G04:AMPARAMS|DCode=53|XSize=35.43mil|YSize=35.43mil|CornerRadius=6.69mil|HoleSize=0mil|Usage=FLASHONLY|Rotation=270.000|XOffset=0mil|YOffset=0mil|HoleType=Round|Shape=RoundedRectangle|*
%AMROUNDEDRECTD53*
21,1,0.03543,0.02205,0,0,270.0*
21,1,0.02205,0.03543,0,0,270.0*
1,1,0.01339,-0.01102,-0.01102*
1,1,0.01339,-0.01102,0.01102*
1,1,0.01339,0.01102,0.01102*
1,1,0.01339,0.01102,-0.01102*
%
%ADD53ROUNDEDRECTD53*%
G04:AMPARAMS|DCode=54|XSize=35.43mil|YSize=35.43mil|CornerRadius=5.12mil|HoleSize=0mil|Usage=FLASHONLY|Rotation=270.000|XOffset=0mil|YOffset=0mil|HoleType=Round|Shape=RoundedRectangle|*
%AMROUNDEDRECTD54*
21,1,0.03543,0.02520,0,0,270.0*
21,1,0.02520,0.03543,0,0,270.0*
1,1,0.01024,-0.01260,-0.01260*
1,1,0.01024,-0.01260,0.01260*
1,1,0.01024,0.01260,0.01260*
1,1,0.01024,0.01260,-0.01260*
%
%ADD54ROUNDEDRECTD54*%
G04:AMPARAMS|DCode=55|XSize=62.99mil|YSize=36.22mil|CornerRadius=5.2mil|HoleSize=0mil|Usage=FLASHONLY|Rotation=0.000|XOffset=0mil|YOffset=0mil|HoleType=Round|Shape=RoundedRectangle|*
%AMROUNDEDRECTD55*
21,1,0.06299,0.02583,0,0,0.0*
21,1,0.05260,0.03622,0,0,0.0*
1,1,0.01039,0.02630,-0.01291*
1,1,0.01039,-0.02630,-0.01291*
1,1,0.01039,-0.02630,0.01291*
1,1,0.01039,0.02630,0.01291*
%
%ADD55ROUNDEDRECTD55*%
G04:AMPARAMS|DCode=56|XSize=62.99mil|YSize=36.22mil|CornerRadius=5.2mil|HoleSize=0mil|Usage=FLASHONLY|Rotation=90.000|XOffset=0mil|YOffset=0mil|HoleType=Round|Shape=RoundedRectangle|*
%AMROUNDEDRECTD56*
21,1,0.06299,0.02583,0,0,90.0*
21,1,0.05260,0.03622,0,0,90.0*
1,1,0.01039,0.01291,0.02630*
1,1,0.01039,0.01291,-0.02630*
1,1,0.01039,-0.01291,-0.02630*
1,1,0.01039,-0.01291,0.02630*
%
%ADD56ROUNDEDRECTD56*%
%ADD57R,0.01575X0.03740*%
G04:AMPARAMS|DCode=58|XSize=13.78mil|YSize=33.47mil|CornerRadius=3.45mil|HoleSize=0mil|Usage=FLASHONLY|Rotation=90.000|XOffset=0mil|YOffset=0mil|HoleType=Round|Shape=RoundedRectangle|*
%AMROUNDEDRECTD58*
21,1,0.01378,0.02657,0,0,90.0*
21,1,0.00689,0.03347,0,0,90.0*
1,1,0.00689,0.01329,0.00345*
1,1,0.00689,0.01329,-0.00345*
1,1,0.00689,-0.01329,-0.00345*
1,1,0.00689,-0.01329,0.00345*
%
%ADD58ROUNDEDRECTD58*%
G04:AMPARAMS|DCode=59|XSize=13.78mil|YSize=33.47mil|CornerRadius=3.45mil|HoleSize=0mil|Usage=FLASHONLY|Rotation=0.000|XOffset=0mil|YOffset=0mil|HoleType=Round|Shape=RoundedRectangle|*
%AMROUNDEDRECTD59*
21,1,0.01378,0.02657,0,0,0.0*
21,1,0.00689,0.03347,0,0,0.0*
1,1,0.00689,0.00345,-0.01329*
1,1,0.00689,-0.00345,-0.01329*
1,1,0.00689,-0.00345,0.01329*
1,1,0.00689,0.00345,0.01329*
%
%ADD59ROUNDEDRECTD59*%
G04:AMPARAMS|DCode=60|XSize=70.87mil|YSize=70.87mil|CornerRadius=5.32mil|HoleSize=0mil|Usage=FLASHONLY|Rotation=0.000|XOffset=0mil|YOffset=0mil|HoleType=Round|Shape=RoundedRectangle|*
%AMROUNDEDRECTD60*
21,1,0.07087,0.06024,0,0,0.0*
21,1,0.06024,0.07087,0,0,0.0*
1,1,0.01063,0.03012,-0.03012*
1,1,0.01063,-0.03012,-0.03012*
1,1,0.01063,-0.03012,0.03012*
1,1,0.01063,0.03012,0.03012*
%
%ADD60ROUNDEDRECTD60*%
%ADD61C,0.02756*%
%ADD62C,0.02362*%
%ADD63R,0.02547X0.04562*%
G04:AMPARAMS|DCode=64|XSize=45.62mil|YSize=25.47mil|CornerRadius=12.73mil|HoleSize=0mil|Usage=FLASHONLY|Rotation=270.000|XOffset=0mil|YOffset=0mil|HoleType=Round|Shape=RoundedRectangle|*
%AMROUNDEDRECTD64*
21,1,0.04562,0.00000,0,0,270.0*
21,1,0.02015,0.02547,0,0,270.0*
1,1,0.02547,0.00000,-0.01008*
1,1,0.02547,0.00000,0.01008*
1,1,0.02547,0.00000,0.01008*
1,1,0.02547,0.00000,-0.01008*
%
%ADD64ROUNDEDRECTD64*%
G04:AMPARAMS|DCode=65|XSize=23.62mil|YSize=27.56mil|CornerRadius=4.43mil|HoleSize=0mil|Usage=FLASHONLY|Rotation=0.000|XOffset=0mil|YOffset=0mil|HoleType=Round|Shape=RoundedRectangle|*
%AMROUNDEDRECTD65*
21,1,0.02362,0.01870,0,0,0.0*
21,1,0.01476,0.02756,0,0,0.0*
1,1,0.00886,0.00738,-0.00935*
1,1,0.00886,-0.00738,-0.00935*
1,1,0.00886,-0.00738,0.00935*
1,1,0.00886,0.00738,0.00935*
%
%ADD65ROUNDEDRECTD65*%
G04:AMPARAMS|DCode=66|XSize=35.43mil|YSize=38.19mil|CornerRadius=6.69mil|HoleSize=0mil|Usage=FLASHONLY|Rotation=180.000|XOffset=0mil|YOffset=0mil|HoleType=Round|Shape=RoundedRectangle|*
%AMROUNDEDRECTD66*
21,1,0.03543,0.02480,0,0,180.0*
21,1,0.02205,0.03819,0,0,180.0*
1,1,0.01339,-0.01102,0.01240*
1,1,0.01339,0.01102,0.01240*
1,1,0.01339,0.01102,-0.01240*
1,1,0.01339,-0.01102,-0.01240*
%
%ADD66ROUNDEDRECTD66*%
G04:AMPARAMS|DCode=67|XSize=35.43mil|YSize=27.56mil|CornerRadius=5.51mil|HoleSize=0mil|Usage=FLASHONLY|Rotation=270.000|XOffset=0mil|YOffset=0mil|HoleType=Round|Shape=RoundedRectangle|*
%AMROUNDEDRECTD67*
21,1,0.03543,0.01654,0,0,270.0*
21,1,0.02441,0.02756,0,0,270.0*
1,1,0.01102,-0.00827,-0.01221*
1,1,0.01102,-0.00827,0.01221*
1,1,0.01102,0.00827,0.01221*
1,1,0.01102,0.00827,-0.01221*
%
%ADD67ROUNDEDRECTD67*%
G04:AMPARAMS|DCode=68|XSize=122.05mil|YSize=122.05mil|CornerRadius=13.78mil|HoleSize=0mil|Usage=FLASHONLY|Rotation=90.000|XOffset=0mil|YOffset=0mil|HoleType=Round|Shape=RoundedRectangle|*
%AMROUNDEDRECTD68*
21,1,0.12205,0.09449,0,0,90.0*
21,1,0.09449,0.12205,0,0,90.0*
1,1,0.02756,0.04724,0.04724*
1,1,0.02756,0.04724,-0.04724*
1,1,0.02756,-0.04724,-0.04724*
1,1,0.02756,-0.04724,0.04724*
%
%ADD68ROUNDEDRECTD68*%
G04:AMPARAMS|DCode=69|XSize=47.24mil|YSize=55.12mil|CornerRadius=8.46mil|HoleSize=0mil|Usage=FLASHONLY|Rotation=0.000|XOffset=0mil|YOffset=0mil|HoleType=Round|Shape=RoundedRectangle|*
%AMROUNDEDRECTD69*
21,1,0.04724,0.03819,0,0,0.0*
21,1,0.03032,0.05512,0,0,0.0*
1,1,0.01693,0.01516,-0.01909*
1,1,0.01693,-0.01516,-0.01909*
1,1,0.01693,-0.01516,0.01909*
1,1,0.01693,0.01516,0.01909*
%
%ADD69ROUNDEDRECTD69*%
%ADD70R,0.07295X0.02027*%
G04:AMPARAMS|DCode=71|XSize=72.95mil|YSize=20.27mil|CornerRadius=10.14mil|HoleSize=0mil|Usage=FLASHONLY|Rotation=180.000|XOffset=0mil|YOffset=0mil|HoleType=Round|Shape=RoundedRectangle|*
%AMROUNDEDRECTD71*
21,1,0.07295,0.00000,0,0,180.0*
21,1,0.05267,0.02027,0,0,180.0*
1,1,0.02027,-0.02634,0.00000*
1,1,0.02027,0.02634,0.00000*
1,1,0.02027,0.02634,0.00000*
1,1,0.02027,-0.02634,0.00000*
%
%ADD71ROUNDEDRECTD71*%
G04:AMPARAMS|DCode=72|XSize=35.43mil|YSize=15.75mil|CornerRadius=3.74mil|HoleSize=0mil|Usage=FLASHONLY|Rotation=270.000|XOffset=0mil|YOffset=0mil|HoleType=Round|Shape=RoundedRectangle|*
%AMROUNDEDRECTD72*
21,1,0.03543,0.00827,0,0,270.0*
21,1,0.02795,0.01575,0,0,270.0*
1,1,0.00748,-0.00413,-0.01398*
1,1,0.00748,-0.00413,0.01398*
1,1,0.00748,0.00413,0.01398*
1,1,0.00748,0.00413,-0.01398*
%
%ADD72ROUNDEDRECTD72*%
%ADD73O,0.01575X0.03543*%
%ADD74C,0.07874*%
G04:AMPARAMS|DCode=75|XSize=35.43mil|YSize=27.56mil|CornerRadius=5.51mil|HoleSize=0mil|Usage=FLASHONLY|Rotation=0.000|XOffset=0mil|YOffset=0mil|HoleType=Round|Shape=RoundedRectangle|*
%AMROUNDEDRECTD75*
21,1,0.03543,0.01654,0,0,0.0*
21,1,0.02441,0.02756,0,0,0.0*
1,1,0.01102,0.01221,-0.00827*
1,1,0.01102,-0.01221,-0.00827*
1,1,0.01102,-0.01221,0.00827*
1,1,0.01102,0.01221,0.00827*
%
%ADD75ROUNDEDRECTD75*%
%ADD76R,0.06890X0.06890*%
G04:AMPARAMS|DCode=77|XSize=23.62mil|YSize=27.56mil|CornerRadius=4.43mil|HoleSize=0mil|Usage=FLASHONLY|Rotation=90.000|XOffset=0mil|YOffset=0mil|HoleType=Round|Shape=RoundedRectangle|*
%AMROUNDEDRECTD77*
21,1,0.02362,0.01870,0,0,90.0*
21,1,0.01476,0.02756,0,0,90.0*
1,1,0.00886,0.00935,0.00738*
1,1,0.00886,0.00935,-0.00738*
1,1,0.00886,-0.00935,-0.00738*
1,1,0.00886,-0.00935,0.00738*
%
%ADD77ROUNDEDRECTD77*%
G04:AMPARAMS|DCode=78|XSize=35.43mil|YSize=35.43mil|CornerRadius=6.69mil|HoleSize=0mil|Usage=FLASHONLY|Rotation=180.000|XOffset=0mil|YOffset=0mil|HoleType=Round|Shape=RoundedRectangle|*
%AMROUNDEDRECTD78*
21,1,0.03543,0.02205,0,0,180.0*
21,1,0.02205,0.03543,0,0,180.0*
1,1,0.01339,-0.01102,0.01102*
1,1,0.01339,0.01102,0.01102*
1,1,0.01339,0.01102,-0.01102*
1,1,0.01339,-0.01102,-0.01102*
%
%ADD78ROUNDEDRECTD78*%
G04:AMPARAMS|DCode=79|XSize=59.06mil|YSize=114.17mil|CornerRadius=10.24mil|HoleSize=0mil|Usage=FLASHONLY|Rotation=90.000|XOffset=0mil|YOffset=0mil|HoleType=Round|Shape=RoundedRectangle|*
%AMROUNDEDRECTD79*
21,1,0.05906,0.09370,0,0,90.0*
21,1,0.03858,0.11417,0,0,90.0*
1,1,0.02047,0.04685,0.01929*
1,1,0.02047,0.04685,-0.01929*
1,1,0.02047,-0.04685,-0.01929*
1,1,0.02047,-0.04685,0.01929*
%
%ADD79ROUNDEDRECTD79*%
%ADD80C,0.05118*%
%ADD81R,0.05118X0.05118*%
%ADD82O,0.04331X0.02953*%
%ADD83C,0.04331*%
%ADD84C,0.02953*%
%ADD85C,0.05323*%
%ADD86C,0.17008*%
G36*
X24691Y38375D02*
X24709Y38374D01*
X24710Y38374D01*
X24712Y38373D01*
X24730Y38369D01*
X24746Y38364D01*
X24748Y38364D01*
X24749Y38364D01*
X24895Y38309D01*
X24896Y38309D01*
X24898Y38308D01*
X24914Y38300D01*
X24930Y38292D01*
X24931Y38291D01*
X24932Y38291D01*
X24947Y38280D01*
X24961Y38269D01*
X24962Y38268D01*
X24963Y38267D01*
X25076Y38159D01*
X25077Y38158D01*
X25078Y38157D01*
X25089Y38144D01*
X25101Y38130D01*
X25102Y38129D01*
X25103Y38128D01*
X25111Y38112D01*
X25120Y38096D01*
X25120Y38095D01*
X25121Y38094D01*
X25182Y37950D01*
X25183Y37949D01*
X25183Y37947D01*
X25188Y37930D01*
X25194Y37913D01*
X25194Y37912D01*
X25194Y37910D01*
X25196Y37892D01*
X25198Y37874D01*
X25198Y37873D01*
X25198Y37872D01*
X25197Y37799D01*
X25198Y37795D01*
X25199Y35836D01*
X25201Y35830D01*
X25207Y35827D01*
X25975Y35828D01*
X25980Y35831D01*
X25983Y35837D01*
X25983Y35840D01*
Y37795D01*
X25983Y37873D01*
X25983Y37874D01*
X25983Y37876D01*
X25985Y37893D01*
X25987Y37912D01*
X25987Y37913D01*
X25988Y37914D01*
X25993Y37931D01*
X25998Y37949D01*
X25999Y37950D01*
X25999Y37951D01*
X26061Y38094D01*
X26061Y38095D01*
X26062Y38096D01*
X26070Y38112D01*
X26079Y38128D01*
X26080Y38129D01*
X26081Y38130D01*
X26093Y38144D01*
X26104Y38158D01*
X26105Y38159D01*
X26106Y38159D01*
X26219Y38267D01*
X26220Y38267D01*
X26221Y38268D01*
X26235Y38279D01*
X26249Y38291D01*
X26250Y38291D01*
X26251Y38292D01*
X26268Y38300D01*
X26284Y38308D01*
X26285Y38308D01*
X26286Y38309D01*
X26432Y38363D01*
X26433Y38364D01*
X26434Y38364D01*
X26452Y38368D01*
X26470Y38373D01*
X26471Y38373D01*
X26472Y38374D01*
X26490Y38374D01*
X26508Y38375D01*
X26509Y38375D01*
X26511Y38375D01*
X26581Y38372D01*
X26584Y38372D01*
X26586Y38372D01*
X26589Y38372D01*
X27338Y38335D01*
X27350Y38334D01*
X27362Y38333D01*
X28841Y38077D01*
X28852Y38074D01*
X28864Y38071D01*
X30300Y37636D01*
X30311Y37631D01*
X30323Y37628D01*
X31694Y37020D01*
X31705Y37014D01*
X31716Y37009D01*
X33003Y36238D01*
X33013Y36230D01*
X33023Y36224D01*
X34206Y35301D01*
X34214Y35293D01*
X34224Y35285D01*
X35285Y34224D01*
X35292Y34214D01*
X35301Y34206D01*
X36224Y33023D01*
X36230Y33013D01*
X36237Y33003D01*
X37008Y31716D01*
X37014Y31705D01*
X37020Y31694D01*
X37627Y30322D01*
X37631Y30311D01*
X37635Y30300D01*
X38070Y28864D01*
X38073Y28852D01*
X38076Y28840D01*
X38332Y27362D01*
X38333Y27350D01*
X38335Y27338D01*
X38370Y26603D01*
X38371Y26601D01*
X38371Y26595D01*
X38372Y26589D01*
X38376Y26511D01*
X38376Y26510D01*
X38376Y26509D01*
X38375Y26491D01*
X38374Y26472D01*
X38374Y26471D01*
X38374Y26470D01*
X38369Y26452D01*
X38365Y26435D01*
X38364Y26434D01*
X38364Y26432D01*
X38309Y26286D01*
X38309Y26285D01*
X38309Y26283D01*
X38300Y26267D01*
X38293Y26251D01*
X38292Y26250D01*
X38291Y26249D01*
X38280Y26234D01*
X38269Y26220D01*
X38268Y26219D01*
X38267Y26218D01*
X38160Y26105D01*
X38159Y26105D01*
X38158Y26103D01*
X38144Y26092D01*
X38130Y26080D01*
X38129Y26079D01*
X38128Y26079D01*
X38112Y26070D01*
X38096Y26061D01*
X38095Y26061D01*
X38094Y26060D01*
X37951Y25999D01*
X37949Y25998D01*
X37948Y25998D01*
X37931Y25993D01*
X37914Y25987D01*
X37912Y25987D01*
X37911Y25987D01*
X37892Y25985D01*
X37875Y25983D01*
X37874Y25983D01*
X37872Y25983D01*
X37794Y25983D01*
X37794Y25983D01*
X35630Y25983D01*
X35157D01*
X35139Y25985D01*
X35122Y25986D01*
X35120Y25987D01*
X35118Y25987D01*
X35101Y25992D01*
X35085Y25997D01*
X34936Y26055D01*
X34920Y26063D01*
X34905Y26070D01*
X34903Y26071D01*
X34901Y26072D01*
X34888Y26083D01*
X34874Y26093D01*
X34756Y26201D01*
X34745Y26214D01*
X34733Y26226D01*
X34732Y26228D01*
X34731Y26230D01*
X34722Y26244D01*
X34713Y26259D01*
X34642Y26402D01*
X34636Y26419D01*
X34630Y26434D01*
X34629Y26436D01*
X34628Y26439D01*
X34626Y26455D01*
X34622Y26472D01*
X34616Y26547D01*
X34504Y27373D01*
X34050Y28980D01*
X33306Y30470D01*
X32296Y31794D01*
X31056Y32906D01*
X29630Y33766D01*
X28069Y34345D01*
X26422Y34622D01*
X25592Y34643D01*
X24711Y34592D01*
X22973Y34233D01*
X21340Y33547D01*
X19871Y32560D01*
X18619Y31309D01*
X17632Y29839D01*
X16947Y28207D01*
X16588Y26469D01*
X16537Y25589D01*
X16580Y24708D01*
X16928Y22962D01*
X17608Y21322D01*
X18596Y19846D01*
X19851Y18591D01*
X21328Y17605D01*
X22969Y16926D01*
X24715Y16580D01*
X25598Y16537D01*
X26420Y16574D01*
X28050Y16876D01*
X29593Y17467D01*
X31003Y18329D01*
X32232Y19434D01*
X33240Y20744D01*
X33992Y22216D01*
X34465Y23804D01*
X34591Y24622D01*
X34599Y24700D01*
X34603Y24717D01*
X34606Y24733D01*
X34607Y24736D01*
X34607Y24738D01*
X34614Y24754D01*
X34620Y24769D01*
X34696Y24918D01*
X34705Y24932D01*
X34714Y24947D01*
X34715Y24949D01*
X34717Y24951D01*
X34728Y24963D01*
X34740Y24975D01*
X34864Y25087D01*
X34878Y25097D01*
X34891Y25107D01*
X34893Y25109D01*
X34895Y25110D01*
X34911Y25117D01*
X34926Y25125D01*
X35082Y25185D01*
X35098Y25189D01*
X35114Y25194D01*
X35117Y25194D01*
X35119Y25195D01*
X35136Y25196D01*
X35153Y25198D01*
X35234Y25198D01*
X35234Y25198D01*
X35234Y25198D01*
X35236D01*
X35236Y25198D01*
X37795Y25198D01*
X37873Y25198D01*
X37874Y25198D01*
X37875Y25198D01*
X37893Y25196D01*
X37911Y25194D01*
X37913Y25194D01*
X37914Y25194D01*
X37931Y25188D01*
X37948Y25183D01*
X37950Y25183D01*
X37951Y25182D01*
X38094Y25121D01*
X38096Y25120D01*
X38097Y25120D01*
X38113Y25111D01*
X38128Y25102D01*
X38129Y25101D01*
X38131Y25101D01*
X38144Y25089D01*
X38158Y25077D01*
X38159Y25076D01*
X38160Y25075D01*
X38268Y24962D01*
X38268Y24961D01*
X38269Y24960D01*
X38280Y24947D01*
X38291Y24932D01*
X38292Y24931D01*
X38293Y24929D01*
X38301Y24913D01*
X38309Y24897D01*
X38309Y24896D01*
X38310Y24895D01*
X38364Y24748D01*
X38364Y24747D01*
X38365Y24746D01*
X38369Y24729D01*
X38374Y24711D01*
X38374Y24710D01*
X38374Y24708D01*
X38375Y24690D01*
X38376Y24672D01*
X38376Y24671D01*
X38376Y24669D01*
X38372Y24593D01*
X38372Y24592D01*
X38336Y23843D01*
X38334Y23831D01*
X38333Y23819D01*
X38077Y22340D01*
X38074Y22329D01*
X38072Y22317D01*
X37637Y20881D01*
X37632Y20869D01*
X37628Y20858D01*
X37021Y19486D01*
X37015Y19476D01*
X37010Y19465D01*
X36238Y18178D01*
X36231Y18168D01*
X36225Y18157D01*
X35302Y16974D01*
X35293Y16966D01*
X35286Y16956D01*
X34225Y15895D01*
X34215Y15888D01*
X34207Y15879D01*
X33024Y14956D01*
X33013Y14950D01*
X33004Y14943D01*
X31716Y14172D01*
X31705Y14166D01*
X31695Y14160D01*
X30323Y13553D01*
X30312Y13549D01*
X30300Y13544D01*
X28864Y13109D01*
X28852Y13107D01*
X28841Y13104D01*
X27362Y12848D01*
X27350Y12847D01*
X27338Y12845D01*
X26589Y12809D01*
X26589D01*
X26511Y12805D01*
X26510Y12805D01*
X26509Y12805D01*
X26491Y12806D01*
X26472Y12807D01*
X26471Y12807D01*
X26470Y12808D01*
X26452Y12812D01*
X26435Y12817D01*
X26434Y12817D01*
X26432Y12817D01*
X26286Y12872D01*
X26285Y12872D01*
X26284Y12873D01*
X26268Y12880D01*
X26252Y12889D01*
X26250Y12889D01*
X26249Y12890D01*
X26235Y12901D01*
X26221Y12912D01*
X26220Y12913D01*
X26219Y12914D01*
X26106Y13021D01*
X26105Y13022D01*
X26104Y13023D01*
X26092Y13037D01*
X26081Y13051D01*
X26080Y13052D01*
X26079Y13053D01*
X26070Y13069D01*
X26061Y13084D01*
X26061Y13086D01*
X26061Y13087D01*
X25999Y13230D01*
X25999Y13231D01*
X25998Y13232D01*
X25993Y13250D01*
X25987Y13267D01*
X25987Y13268D01*
X25987Y13269D01*
X25985Y13288D01*
X25983Y13306D01*
X25983Y13307D01*
X25983Y13308D01*
X25983Y13386D01*
X25983Y15345D01*
X25981Y15351D01*
X25975Y15353D01*
X25974Y15353D01*
X25206Y15353D01*
X25206Y15353D01*
X25200Y15351D01*
X25198Y15345D01*
X25197Y13386D01*
X25198Y13309D01*
X25198Y13307D01*
X25198Y13306D01*
X25196Y13288D01*
X25194Y13270D01*
X25194Y13269D01*
X25194Y13267D01*
X25188Y13250D01*
X25184Y13233D01*
X25183Y13232D01*
X25182Y13230D01*
X25121Y13086D01*
X25121Y13085D01*
X25120Y13083D01*
X25112Y13068D01*
X25103Y13052D01*
X25102Y13051D01*
X25101Y13050D01*
X25089Y13036D01*
X25078Y13023D01*
X25077Y13022D01*
X25076Y13020D01*
X24963Y12913D01*
X24961Y12912D01*
X24960Y12911D01*
X24946Y12900D01*
X24932Y12889D01*
X24931Y12888D01*
X24929Y12887D01*
X24913Y12879D01*
X24897Y12871D01*
X24896Y12871D01*
X24894Y12870D01*
X24748Y12817D01*
X24746Y12816D01*
X24745Y12815D01*
X24727Y12811D01*
X24710Y12807D01*
X24709Y12807D01*
X24707Y12806D01*
X24689Y12806D01*
X24672Y12804D01*
X24670Y12805D01*
X24668Y12805D01*
X24591Y12809D01*
X23843Y12846D01*
X23831Y12847D01*
X23819Y12848D01*
X22341Y13104D01*
X22329Y13108D01*
X22317Y13110D01*
X20881Y13545D01*
X20870Y13550D01*
X20858Y13554D01*
X19487Y14161D01*
X19476Y14167D01*
X19465Y14173D01*
X18178Y14944D01*
X18169Y14951D01*
X18158Y14957D01*
X16975Y15880D01*
X16967Y15889D01*
X16957Y15897D01*
X15897Y16957D01*
X15889Y16967D01*
X15880Y16975D01*
X14957Y18158D01*
X14951Y18169D01*
X14944Y18178D01*
X14173Y19465D01*
X14167Y19476D01*
X14161Y19487D01*
X13554Y20858D01*
X13550Y20870D01*
X13545Y20881D01*
X13110Y22317D01*
X13108Y22329D01*
X13104Y22341D01*
X12848Y23819D01*
X12847Y23831D01*
X12846Y23843D01*
X12809Y24592D01*
Y24592D01*
X12805Y24670D01*
X12805Y24671D01*
X12805Y24672D01*
X12806Y24690D01*
X12807Y24708D01*
X12808Y24710D01*
X12808Y24711D01*
X12812Y24729D01*
X12817Y24746D01*
X12817Y24747D01*
X12817Y24748D01*
X12872Y24894D01*
X12872Y24895D01*
X12873Y24896D01*
X12880Y24912D01*
X12889Y24929D01*
X12889Y24930D01*
X12890Y24931D01*
X12901Y24945D01*
X12912Y24960D01*
X12913Y24961D01*
X12914Y24961D01*
X13021Y25074D01*
X13022Y25075D01*
X13023Y25076D01*
X13037Y25087D01*
X13050Y25099D01*
X13051Y25100D01*
X13052Y25101D01*
X13069Y25110D01*
X13084Y25118D01*
X13085Y25119D01*
X13086Y25119D01*
X13229Y25180D01*
X13230Y25181D01*
X13232Y25181D01*
X13249Y25186D01*
X13266Y25192D01*
X13268Y25192D01*
X13269Y25192D01*
X13287Y25194D01*
X13305Y25196D01*
X13306Y25196D01*
X13307Y25196D01*
X13384Y25196D01*
X13385Y25196D01*
X15353Y25198D01*
X15353Y25198D01*
X15353Y25199D01*
X15353Y25201D01*
X15353Y25974D01*
X15351Y25980D01*
X15345Y25983D01*
X15340Y25983D01*
X13386Y25983D01*
X13308D01*
X13307Y25983D01*
X13306Y25983D01*
X13287Y25985D01*
X13269Y25987D01*
X13268Y25987D01*
X13267Y25988D01*
X13249Y25993D01*
X13232Y25998D01*
X13231Y25999D01*
X13230Y25999D01*
X13087Y26061D01*
X13086Y26061D01*
X13084Y26062D01*
X13069Y26071D01*
X13053Y26079D01*
X13052Y26080D01*
X13051Y26081D01*
X13037Y26093D01*
X13023Y26104D01*
X13022Y26105D01*
X13021Y26106D01*
X12914Y26219D01*
X12913Y26220D01*
X12912Y26221D01*
X12901Y26235D01*
X12890Y26250D01*
X12889Y26251D01*
X12889Y26252D01*
X12881Y26268D01*
X12873Y26284D01*
X12872Y26285D01*
X12872Y26286D01*
X12817Y26432D01*
X12817Y26434D01*
X12817Y26435D01*
X12812Y26452D01*
X12808Y26470D01*
X12808Y26471D01*
X12807Y26472D01*
X12806Y26491D01*
X12805Y26509D01*
X12805Y26510D01*
X12805Y26511D01*
X12809Y26589D01*
D01*
Y26589D01*
X12846Y27338D01*
X12847Y27350D01*
X12848Y27362D01*
X13104Y28841D01*
X13108Y28852D01*
X13110Y28864D01*
X13545Y30300D01*
X13550Y30311D01*
X13554Y30323D01*
X14162Y31694D01*
X14167Y31705D01*
X14173Y31716D01*
X14944Y33003D01*
X14951Y33012D01*
X14958Y33023D01*
X15881Y34205D01*
X15889Y34214D01*
X15897Y34223D01*
X16958Y35284D01*
X16967Y35292D01*
X16976Y35300D01*
X18158Y36223D01*
X18169Y36230D01*
X18179Y36237D01*
X19466Y37008D01*
X19476Y37013D01*
X19487Y37019D01*
X20859Y37627D01*
X20870Y37631D01*
X20881Y37635D01*
X22317Y38070D01*
X22329Y38073D01*
X22341Y38076D01*
X23819Y38332D01*
X23831Y38333D01*
X23843Y38335D01*
X24588Y38371D01*
X24592Y38372D01*
X24670Y38376D01*
X24671Y38376D01*
X24673Y38376D01*
X24691Y38375D01*
D02*
G37*
G36*
X146299Y182575D02*
X146336Y182564D01*
X146370Y182546D01*
X146400Y182521D01*
X146424Y182491D01*
X146443Y182457D01*
X146454Y182420D01*
X146458Y182381D01*
Y176674D01*
X150984D01*
X151023Y176670D01*
X151060Y176658D01*
X151094Y176640D01*
X151124Y176616D01*
X151149Y176586D01*
X151167Y176551D01*
X151178Y176514D01*
X151182Y176476D01*
Y159547D01*
X151178Y159508D01*
X151167Y159471D01*
X151149Y159437D01*
X151124Y159407D01*
X151094Y159382D01*
X151060Y159364D01*
X151023Y159353D01*
X150984Y159349D01*
X149607D01*
Y156397D01*
X149604Y156359D01*
X149592Y156321D01*
X149574Y156287D01*
X149549Y156257D01*
X149520Y156233D01*
X149485Y156214D01*
X149448Y156203D01*
X149410Y156199D01*
X145473D01*
X145434Y156203D01*
X145397Y156214D01*
X145363Y156233D01*
X145333Y156257D01*
X145308Y156287D01*
X145290Y156321D01*
X145279Y156359D01*
X145275Y156397D01*
Y159349D01*
X143308D01*
Y156397D01*
X143304Y156359D01*
X143293Y156321D01*
X143275Y156287D01*
X143250Y156257D01*
X143220Y156233D01*
X143186Y156214D01*
X143149Y156203D01*
X143110Y156199D01*
X139173D01*
X139135Y156203D01*
X139098Y156214D01*
X139064Y156233D01*
X139033Y156257D01*
X139009Y156287D01*
X138991Y156321D01*
X138979Y156359D01*
X138976Y156397D01*
Y159349D01*
X137599D01*
X137560Y159353D01*
X137523Y159364D01*
X137489Y159382D01*
X137459Y159407D01*
X137434Y159437D01*
X137416Y159471D01*
X137405Y159508D01*
X137401Y159547D01*
Y176476D01*
X137405Y176514D01*
X137416Y176551D01*
X137434Y176586D01*
X137459Y176616D01*
X137489Y176640D01*
X137523Y176658D01*
X137560Y176670D01*
X137599Y176674D01*
X142125D01*
Y182381D01*
X142129Y182420D01*
X142140Y182457D01*
X142159Y182491D01*
X142183Y182521D01*
X142213Y182546D01*
X142247Y182564D01*
X142284Y182575D01*
X142323Y182579D01*
X146260D01*
X146299Y182575D01*
D02*
G37*
G36*
X24691Y380894D02*
X24709Y380893D01*
X24710Y380893D01*
X24712Y380893D01*
X24730Y380888D01*
X24746Y380884D01*
X24748Y380884D01*
X24749Y380883D01*
X24895Y380829D01*
X24896Y380828D01*
X24898Y380828D01*
X24914Y380820D01*
X24930Y380812D01*
X24931Y380811D01*
X24932Y380810D01*
X24947Y380799D01*
X24961Y380788D01*
X24962Y380787D01*
X24963Y380787D01*
X25076Y380679D01*
X25077Y380678D01*
X25078Y380677D01*
X25089Y380664D01*
X25101Y380650D01*
X25102Y380648D01*
X25103Y380647D01*
X25111Y380632D01*
X25120Y380616D01*
X25120Y380614D01*
X25121Y380613D01*
X25182Y380470D01*
X25183Y380468D01*
X25183Y380467D01*
X25188Y380450D01*
X25194Y380433D01*
X25194Y380431D01*
X25194Y380430D01*
X25196Y380412D01*
X25198Y380394D01*
X25198Y380393D01*
X25198Y380391D01*
X25197Y380319D01*
X25198Y380315D01*
X25199Y378355D01*
X25201Y378349D01*
X25207Y378347D01*
X25975Y378348D01*
X25980Y378350D01*
X25983Y378356D01*
X25983Y378360D01*
Y380315D01*
X25983Y380393D01*
X25983Y380394D01*
X25983Y380395D01*
X25985Y380413D01*
X25987Y380431D01*
X25987Y380433D01*
X25988Y380434D01*
X25993Y380451D01*
X25998Y380469D01*
X25999Y380469D01*
X25999Y380471D01*
X26061Y380614D01*
X26061Y380615D01*
X26062Y380616D01*
X26070Y380632D01*
X26079Y380648D01*
X26080Y380649D01*
X26081Y380650D01*
X26093Y380664D01*
X26104Y380677D01*
X26105Y380678D01*
X26106Y380679D01*
X26219Y380786D01*
X26220Y380787D01*
X26221Y380788D01*
X26235Y380799D01*
X26249Y380810D01*
X26250Y380811D01*
X26251Y380812D01*
X26268Y380820D01*
X26284Y380828D01*
X26285Y380828D01*
X26286Y380829D01*
X26432Y380883D01*
X26433Y380883D01*
X26434Y380884D01*
X26452Y380888D01*
X26470Y380893D01*
X26471Y380893D01*
X26472Y380893D01*
X26490Y380894D01*
X26508Y380895D01*
X26509Y380895D01*
X26511Y380895D01*
X26581Y380892D01*
X26584Y380892D01*
X26586Y380892D01*
X26589Y380892D01*
X27338Y380855D01*
X27350Y380854D01*
X27362Y380853D01*
X28841Y380597D01*
X28852Y380593D01*
X28864Y380591D01*
X30300Y380156D01*
X30311Y380151D01*
X30323Y380147D01*
X31694Y379540D01*
X31705Y379534D01*
X31716Y379528D01*
X33003Y378757D01*
X33013Y378750D01*
X33023Y378744D01*
X34206Y377820D01*
X34214Y377812D01*
X34224Y377804D01*
X35285Y376744D01*
X35292Y376734D01*
X35301Y376725D01*
X36224Y375542D01*
X36230Y375532D01*
X36237Y375522D01*
X37008Y374235D01*
X37014Y374224D01*
X37020Y374214D01*
X37627Y372842D01*
X37631Y372831D01*
X37635Y372819D01*
X38070Y371383D01*
X38073Y371371D01*
X38076Y371360D01*
X38332Y369881D01*
X38333Y369869D01*
X38335Y369857D01*
X38370Y369123D01*
X38371Y369121D01*
X38371Y369115D01*
X38372Y369109D01*
X38376Y369031D01*
X38376Y369029D01*
X38376Y369028D01*
X38375Y369010D01*
X38374Y368992D01*
X38374Y368991D01*
X38374Y368989D01*
X38369Y368972D01*
X38365Y368955D01*
X38364Y368953D01*
X38364Y368952D01*
X38309Y368806D01*
X38309Y368805D01*
X38309Y368803D01*
X38300Y368787D01*
X38293Y368771D01*
X38292Y368770D01*
X38291Y368769D01*
X38280Y368754D01*
X38269Y368740D01*
X38268Y368739D01*
X38267Y368738D01*
X38160Y368625D01*
X38159Y368624D01*
X38158Y368623D01*
X38144Y368612D01*
X38130Y368600D01*
X38129Y368599D01*
X38128Y368598D01*
X38112Y368589D01*
X38096Y368581D01*
X38095Y368580D01*
X38094Y368580D01*
X37951Y368518D01*
X37949Y368518D01*
X37948Y368517D01*
X37931Y368512D01*
X37914Y368507D01*
X37912Y368507D01*
X37911Y368506D01*
X37892Y368505D01*
X37875Y368503D01*
X37874Y368503D01*
X37872Y368503D01*
X37794Y368503D01*
X37794Y368503D01*
X35630Y368503D01*
X35157D01*
X35139Y368505D01*
X35122Y368506D01*
X35120Y368507D01*
X35118Y368507D01*
X35101Y368512D01*
X35085Y368516D01*
X34936Y368574D01*
X34920Y368582D01*
X34905Y368589D01*
X34903Y368591D01*
X34901Y368592D01*
X34888Y368603D01*
X34874Y368613D01*
X34756Y368721D01*
X34745Y368733D01*
X34733Y368746D01*
X34732Y368748D01*
X34731Y368749D01*
X34722Y368764D01*
X34713Y368779D01*
X34642Y368922D01*
X34636Y368938D01*
X34630Y368954D01*
X34629Y368956D01*
X34628Y368958D01*
X34626Y368975D01*
X34622Y368992D01*
X34616Y369067D01*
X34504Y369893D01*
X34050Y371500D01*
X33306Y372990D01*
X32296Y374313D01*
X31056Y375425D01*
X29630Y376286D01*
X28069Y376864D01*
X26422Y377141D01*
X25592Y377163D01*
X24711Y377111D01*
X22973Y376752D01*
X21340Y376067D01*
X19871Y375080D01*
X18619Y373828D01*
X17632Y372359D01*
X16947Y370726D01*
X16588Y368988D01*
X16537Y368109D01*
X16580Y367227D01*
X16928Y365481D01*
X17608Y363841D01*
X18596Y362366D01*
X19851Y361111D01*
X21328Y360125D01*
X22969Y359446D01*
X24715Y359100D01*
X25598Y359057D01*
X26420Y359094D01*
X28050Y359395D01*
X29593Y359987D01*
X31003Y360849D01*
X32232Y361954D01*
X33240Y363264D01*
X33992Y364735D01*
X34465Y366324D01*
X34591Y367142D01*
X34599Y367220D01*
X34603Y367237D01*
X34606Y367253D01*
X34607Y367255D01*
X34607Y367258D01*
X34614Y367274D01*
X34620Y367289D01*
X34696Y367438D01*
X34705Y367452D01*
X34714Y367466D01*
X34715Y367468D01*
X34717Y367471D01*
X34728Y367483D01*
X34740Y367495D01*
X34864Y367607D01*
X34878Y367617D01*
X34891Y367627D01*
X34893Y367628D01*
X34895Y367630D01*
X34911Y367637D01*
X34926Y367645D01*
X35082Y367704D01*
X35098Y367709D01*
X35114Y367714D01*
X35117Y367714D01*
X35119Y367715D01*
X35136Y367716D01*
X35153Y367717D01*
X35234Y367717D01*
X35234Y367718D01*
X35234Y367717D01*
X35236D01*
X35236Y367718D01*
X37795Y367718D01*
X37873Y367718D01*
X37874Y367718D01*
X37875Y367718D01*
X37893Y367716D01*
X37911Y367714D01*
X37913Y367714D01*
X37914Y367713D01*
X37931Y367708D01*
X37948Y367703D01*
X37950Y367702D01*
X37951Y367702D01*
X38094Y367641D01*
X38096Y367640D01*
X38097Y367639D01*
X38113Y367631D01*
X38128Y367622D01*
X38129Y367621D01*
X38131Y367620D01*
X38144Y367609D01*
X38158Y367597D01*
X38159Y367596D01*
X38160Y367595D01*
X38268Y367482D01*
X38268Y367481D01*
X38269Y367480D01*
X38280Y367466D01*
X38291Y367452D01*
X38292Y367450D01*
X38293Y367449D01*
X38301Y367433D01*
X38309Y367417D01*
X38309Y367416D01*
X38310Y367414D01*
X38364Y367268D01*
X38364Y367267D01*
X38365Y367266D01*
X38369Y367248D01*
X38374Y367231D01*
X38374Y367229D01*
X38374Y367228D01*
X38375Y367210D01*
X38376Y367192D01*
X38376Y367191D01*
X38376Y367189D01*
X38372Y367112D01*
X38372Y367112D01*
X38336Y366363D01*
X38334Y366351D01*
X38333Y366338D01*
X38077Y364860D01*
X38074Y364848D01*
X38072Y364836D01*
X37637Y363400D01*
X37632Y363389D01*
X37628Y363378D01*
X37021Y362006D01*
X37015Y361995D01*
X37010Y361984D01*
X36238Y360697D01*
X36231Y360687D01*
X36225Y360677D01*
X35302Y359494D01*
X35293Y359485D01*
X35286Y359476D01*
X34225Y358415D01*
X34215Y358407D01*
X34207Y358399D01*
X33024Y357476D01*
X33013Y357470D01*
X33004Y357462D01*
X31716Y356691D01*
X31705Y356686D01*
X31695Y356680D01*
X30323Y356072D01*
X30312Y356069D01*
X30300Y356064D01*
X28864Y355629D01*
X28852Y355627D01*
X28841Y355623D01*
X27362Y355368D01*
X27350Y355367D01*
X27338Y355365D01*
X26589Y355329D01*
X26589D01*
X26511Y355325D01*
X26510Y355325D01*
X26509Y355325D01*
X26491Y355326D01*
X26472Y355327D01*
X26471Y355327D01*
X26470Y355327D01*
X26452Y355332D01*
X26435Y355336D01*
X26434Y355337D01*
X26432Y355337D01*
X26286Y355391D01*
X26285Y355392D01*
X26284Y355392D01*
X26268Y355400D01*
X26252Y355408D01*
X26250Y355409D01*
X26249Y355410D01*
X26235Y355421D01*
X26221Y355432D01*
X26220Y355433D01*
X26219Y355434D01*
X26106Y355541D01*
X26105Y355542D01*
X26104Y355543D01*
X26092Y355557D01*
X26081Y355570D01*
X26080Y355572D01*
X26079Y355572D01*
X26070Y355588D01*
X26061Y355604D01*
X26061Y355605D01*
X26061Y355606D01*
X25999Y355750D01*
X25999Y355751D01*
X25998Y355752D01*
X25993Y355769D01*
X25987Y355787D01*
X25987Y355788D01*
X25987Y355789D01*
X25985Y355807D01*
X25983Y355825D01*
X25983Y355826D01*
X25983Y355828D01*
X25983Y355906D01*
X25983Y357865D01*
X25981Y357871D01*
X25975Y357873D01*
X25974Y357873D01*
X25206Y357873D01*
X25206Y357873D01*
X25200Y357871D01*
X25198Y357865D01*
X25197Y355906D01*
X25198Y355829D01*
X25198Y355827D01*
X25198Y355825D01*
X25196Y355808D01*
X25194Y355790D01*
X25194Y355788D01*
X25194Y355787D01*
X25188Y355770D01*
X25184Y355753D01*
X25183Y355751D01*
X25182Y355750D01*
X25121Y355606D01*
X25121Y355605D01*
X25120Y355603D01*
X25112Y355588D01*
X25103Y355572D01*
X25102Y355571D01*
X25101Y355569D01*
X25089Y355556D01*
X25078Y355542D01*
X25077Y355541D01*
X25076Y355540D01*
X24963Y355432D01*
X24961Y355431D01*
X24960Y355430D01*
X24946Y355420D01*
X24932Y355409D01*
X24931Y355408D01*
X24929Y355407D01*
X24913Y355399D01*
X24897Y355391D01*
X24896Y355391D01*
X24894Y355390D01*
X24748Y355336D01*
X24746Y355336D01*
X24745Y355335D01*
X24727Y355331D01*
X24710Y355326D01*
X24709Y355326D01*
X24707Y355326D01*
X24689Y355325D01*
X24672Y355324D01*
X24670Y355324D01*
X24668Y355324D01*
X24591Y355329D01*
X23843Y355365D01*
X23831Y355367D01*
X23819Y355368D01*
X22341Y355624D01*
X22329Y355627D01*
X22317Y355630D01*
X20881Y356065D01*
X20870Y356069D01*
X20858Y356073D01*
X19487Y356681D01*
X19476Y356687D01*
X19465Y356692D01*
X18178Y357463D01*
X18169Y357471D01*
X18158Y357477D01*
X16975Y358400D01*
X16967Y358408D01*
X16957Y358416D01*
X15897Y359477D01*
X15889Y359486D01*
X15880Y359495D01*
X14957Y360678D01*
X14951Y360688D01*
X14944Y360698D01*
X14173Y361985D01*
X14167Y361996D01*
X14161Y362006D01*
X13554Y363378D01*
X13550Y363390D01*
X13545Y363401D01*
X13110Y364837D01*
X13108Y364848D01*
X13104Y364860D01*
X12848Y366338D01*
X12847Y366351D01*
X12846Y366363D01*
X12809Y367112D01*
Y367112D01*
X12805Y367189D01*
X12805Y367191D01*
X12805Y367192D01*
X12806Y367210D01*
X12807Y367228D01*
X12808Y367229D01*
X12808Y367231D01*
X12812Y367249D01*
X12817Y367266D01*
X12817Y367267D01*
X12817Y367268D01*
X12872Y367414D01*
X12872Y367415D01*
X12873Y367416D01*
X12880Y367432D01*
X12889Y367448D01*
X12889Y367449D01*
X12890Y367451D01*
X12901Y367465D01*
X12912Y367479D01*
X12913Y367480D01*
X12914Y367481D01*
X13021Y367594D01*
X13022Y367594D01*
X13023Y367595D01*
X13037Y367607D01*
X13050Y367619D01*
X13051Y367619D01*
X13052Y367620D01*
X13069Y367629D01*
X13084Y367638D01*
X13085Y367638D01*
X13086Y367639D01*
X13229Y367700D01*
X13230Y367700D01*
X13232Y367701D01*
X13249Y367706D01*
X13266Y367712D01*
X13268Y367712D01*
X13269Y367712D01*
X13287Y367714D01*
X13305Y367716D01*
X13306Y367716D01*
X13307Y367716D01*
X13384Y367716D01*
X13385Y367716D01*
X15353Y367718D01*
X15353Y367718D01*
X15353Y367719D01*
X15353Y367721D01*
X15353Y368494D01*
X15351Y368500D01*
X15345Y368503D01*
X15340Y368503D01*
X13386Y368503D01*
X13308D01*
X13307Y368503D01*
X13306Y368503D01*
X13287Y368505D01*
X13269Y368507D01*
X13268Y368507D01*
X13267Y368507D01*
X13249Y368513D01*
X13232Y368518D01*
X13231Y368519D01*
X13230Y368519D01*
X13087Y368580D01*
X13086Y368581D01*
X13084Y368581D01*
X13069Y368590D01*
X13053Y368599D01*
X13052Y368600D01*
X13051Y368600D01*
X13037Y368613D01*
X13023Y368624D01*
X13022Y368625D01*
X13021Y368626D01*
X12914Y368739D01*
X12913Y368740D01*
X12912Y368740D01*
X12901Y368755D01*
X12890Y368769D01*
X12889Y368770D01*
X12889Y368771D01*
X12881Y368788D01*
X12873Y368804D01*
X12872Y368805D01*
X12872Y368806D01*
X12817Y368952D01*
X12817Y368953D01*
X12817Y368954D01*
X12812Y368972D01*
X12808Y368990D01*
X12808Y368991D01*
X12807Y368992D01*
X12806Y369010D01*
X12805Y369028D01*
X12805Y369029D01*
X12805Y369031D01*
X12809Y369109D01*
D01*
Y369109D01*
X12846Y369858D01*
X12847Y369870D01*
X12848Y369882D01*
X13104Y371360D01*
X13108Y371372D01*
X13110Y371384D01*
X13545Y372819D01*
X13550Y372831D01*
X13554Y372842D01*
X14162Y374214D01*
X14167Y374224D01*
X14173Y374235D01*
X14944Y375522D01*
X14951Y375532D01*
X14958Y375542D01*
X15881Y376725D01*
X15889Y376734D01*
X15897Y376743D01*
X16958Y377804D01*
X16967Y377812D01*
X16976Y377820D01*
X18158Y378743D01*
X18169Y378749D01*
X18179Y378757D01*
X19466Y379528D01*
X19476Y379533D01*
X19487Y379539D01*
X20859Y380147D01*
X20870Y380150D01*
X20881Y380155D01*
X22317Y380590D01*
X22329Y380592D01*
X22341Y380596D01*
X23819Y380852D01*
X23831Y380853D01*
X23843Y380854D01*
X24588Y380891D01*
X24592Y380891D01*
X24670Y380895D01*
X24671Y380895D01*
X24673Y380895D01*
X24691Y380894D01*
D02*
G37*
G36*
X449888Y38375D02*
X449906Y38374D01*
X449907Y38374D01*
X449908Y38373D01*
X449926Y38369D01*
X449943Y38364D01*
X449944Y38364D01*
X449946Y38364D01*
X450092Y38309D01*
X450093Y38309D01*
X450095Y38308D01*
X450110Y38300D01*
X450127Y38292D01*
X450128Y38291D01*
X450129Y38291D01*
X450144Y38280D01*
X450158Y38269D01*
X450159Y38268D01*
X450160Y38267D01*
X450273Y38159D01*
X450274Y38158D01*
X450275Y38157D01*
X450286Y38144D01*
X450298Y38130D01*
X450299Y38129D01*
X450299Y38128D01*
X450308Y38112D01*
X450317Y38096D01*
X450317Y38095D01*
X450318Y38094D01*
X450379Y37950D01*
X450379Y37949D01*
X450380Y37947D01*
X450385Y37930D01*
X450390Y37913D01*
X450391Y37912D01*
X450391Y37910D01*
X450393Y37892D01*
X450395Y37874D01*
X450395Y37873D01*
X450395Y37872D01*
X450394Y37799D01*
X450395Y37795D01*
X450396Y35836D01*
X450398Y35830D01*
X450404Y35827D01*
X451172Y35828D01*
X451177Y35831D01*
X451180Y35837D01*
X451180Y35840D01*
Y37795D01*
X451180Y37873D01*
X451180Y37874D01*
X451180Y37876D01*
X451182Y37893D01*
X451184Y37912D01*
X451184Y37913D01*
X451184Y37914D01*
X451190Y37931D01*
X451195Y37949D01*
X451196Y37950D01*
X451196Y37951D01*
X451258Y38094D01*
X451258Y38095D01*
X451258Y38096D01*
X451267Y38112D01*
X451276Y38128D01*
X451277Y38129D01*
X451277Y38130D01*
X451290Y38144D01*
X451301Y38158D01*
X451302Y38159D01*
X451303Y38159D01*
X451416Y38267D01*
X451416Y38267D01*
X451417Y38268D01*
X451432Y38279D01*
X451446Y38291D01*
X451447Y38291D01*
X451448Y38292D01*
X451465Y38300D01*
X451481Y38308D01*
X451482Y38308D01*
X451483Y38309D01*
X451629Y38363D01*
X451630Y38364D01*
X451631Y38364D01*
X451649Y38368D01*
X451666Y38373D01*
X451668Y38373D01*
X451669Y38374D01*
X451687Y38374D01*
X451705Y38375D01*
X451706Y38375D01*
X451708Y38375D01*
X451778Y38372D01*
X451781Y38372D01*
X451783Y38372D01*
X451786Y38372D01*
X452535Y38335D01*
X452547Y38334D01*
X452559Y38333D01*
X454037Y38077D01*
X454049Y38074D01*
X454061Y38071D01*
X455497Y37636D01*
X455508Y37631D01*
X455520Y37628D01*
X456891Y37020D01*
X456902Y37014D01*
X456913Y37009D01*
X458200Y36238D01*
X458210Y36230D01*
X458220Y36224D01*
X459403Y35301D01*
X459411Y35293D01*
X459421Y35285D01*
X460482Y34224D01*
X460489Y34214D01*
X460498Y34206D01*
X461420Y33023D01*
X461427Y33013D01*
X461434Y33003D01*
X462205Y31716D01*
X462210Y31705D01*
X462216Y31694D01*
X462824Y30322D01*
X462828Y30311D01*
X462832Y30300D01*
X463267Y28864D01*
X463270Y28852D01*
X463273Y28840D01*
X463529Y27362D01*
X463530Y27350D01*
X463531Y27338D01*
X463567Y26603D01*
X463567Y26601D01*
X463568Y26595D01*
X463568Y26589D01*
X463573Y26511D01*
X463573Y26510D01*
X463573Y26509D01*
X463572Y26491D01*
X463571Y26472D01*
X463570Y26471D01*
X463570Y26470D01*
X463566Y26452D01*
X463561Y26435D01*
X463561Y26434D01*
X463560Y26432D01*
X463506Y26286D01*
X463506Y26285D01*
X463505Y26283D01*
X463497Y26267D01*
X463489Y26251D01*
X463489Y26250D01*
X463488Y26249D01*
X463477Y26234D01*
X463466Y26220D01*
X463465Y26219D01*
X463464Y26218D01*
X463356Y26105D01*
X463355Y26105D01*
X463354Y26103D01*
X463341Y26092D01*
X463327Y26080D01*
X463326Y26079D01*
X463325Y26079D01*
X463308Y26070D01*
X463293Y26061D01*
X463292Y26061D01*
X463291Y26060D01*
X463147Y25999D01*
X463146Y25998D01*
X463145Y25998D01*
X463127Y25993D01*
X463110Y25987D01*
X463109Y25987D01*
X463108Y25987D01*
X463089Y25985D01*
X463072Y25983D01*
X463070Y25983D01*
X463069Y25983D01*
X462991Y25983D01*
X462991Y25983D01*
X460827Y25983D01*
X460353D01*
X460336Y25985D01*
X460319Y25986D01*
X460317Y25987D01*
X460315Y25987D01*
X460298Y25992D01*
X460282Y25997D01*
X460133Y26055D01*
X460117Y26063D01*
X460102Y26070D01*
X460100Y26071D01*
X460098Y26072D01*
X460084Y26083D01*
X460071Y26093D01*
X459953Y26201D01*
X459942Y26214D01*
X459930Y26226D01*
X459929Y26228D01*
X459928Y26230D01*
X459919Y26244D01*
X459910Y26259D01*
X459839Y26402D01*
X459833Y26419D01*
X459827Y26434D01*
X459826Y26436D01*
X459825Y26439D01*
X459823Y26455D01*
X459819Y26472D01*
X459813Y26547D01*
X459701Y27373D01*
X459247Y28980D01*
X458502Y30470D01*
X457493Y31794D01*
X456253Y32906D01*
X454827Y33766D01*
X453266Y34345D01*
X451619Y34622D01*
X450789Y34643D01*
X449908Y34592D01*
X448170Y34233D01*
X446537Y33547D01*
X445068Y32560D01*
X443816Y31309D01*
X442829Y29839D01*
X442144Y28207D01*
X441785Y26469D01*
X441734Y25589D01*
X441777Y24708D01*
X442125Y22962D01*
X442805Y21322D01*
X443792Y19846D01*
X445048Y18591D01*
X446525Y17605D01*
X448166Y16926D01*
X449912Y16580D01*
X450795Y16537D01*
X451617Y16574D01*
X453246Y16876D01*
X454790Y17467D01*
X456200Y18329D01*
X457429Y19434D01*
X458437Y20744D01*
X459189Y22216D01*
X459662Y23804D01*
X459788Y24622D01*
X459796Y24700D01*
X459799Y24717D01*
X459802Y24733D01*
X459803Y24736D01*
X459804Y24738D01*
X459810Y24754D01*
X459817Y24769D01*
X459893Y24918D01*
X459902Y24932D01*
X459910Y24947D01*
X459912Y24949D01*
X459914Y24951D01*
X459925Y24963D01*
X459937Y24975D01*
X460061Y25087D01*
X460075Y25097D01*
X460088Y25107D01*
X460090Y25109D01*
X460092Y25110D01*
X460108Y25117D01*
X460122Y25125D01*
X460279Y25185D01*
X460295Y25189D01*
X460311Y25194D01*
X460313Y25194D01*
X460316Y25195D01*
X460333Y25196D01*
X460349Y25198D01*
X460430Y25198D01*
X460431Y25198D01*
X460431Y25198D01*
X460432D01*
X460433Y25198D01*
X462992Y25198D01*
X463069Y25198D01*
X463071Y25198D01*
X463072Y25198D01*
X463090Y25196D01*
X463108Y25194D01*
X463109Y25194D01*
X463111Y25194D01*
X463128Y25188D01*
X463145Y25183D01*
X463146Y25183D01*
X463148Y25182D01*
X463291Y25121D01*
X463293Y25120D01*
X463294Y25120D01*
X463309Y25111D01*
X463325Y25102D01*
X463326Y25101D01*
X463328Y25101D01*
X463341Y25089D01*
X463355Y25077D01*
X463356Y25076D01*
X463357Y25075D01*
X463464Y24962D01*
X463465Y24961D01*
X463466Y24960D01*
X463477Y24947D01*
X463488Y24932D01*
X463489Y24931D01*
X463490Y24929D01*
X463498Y24913D01*
X463506Y24897D01*
X463506Y24896D01*
X463507Y24895D01*
X463561Y24748D01*
X463561Y24747D01*
X463562Y24746D01*
X463566Y24729D01*
X463571Y24711D01*
X463571Y24710D01*
X463571Y24708D01*
X463572Y24690D01*
X463573Y24672D01*
X463573Y24671D01*
X463573Y24669D01*
X463569Y24593D01*
X463569Y24592D01*
X463533Y23843D01*
X463531Y23831D01*
X463530Y23819D01*
X463274Y22340D01*
X463271Y22329D01*
X463269Y22317D01*
X462834Y20881D01*
X462829Y20869D01*
X462825Y20858D01*
X462218Y19486D01*
X462212Y19476D01*
X462206Y19465D01*
X461435Y18178D01*
X461428Y18168D01*
X461421Y18157D01*
X460499Y16974D01*
X460490Y16966D01*
X460483Y16956D01*
X459421Y15895D01*
X459412Y15888D01*
X459403Y15879D01*
X458220Y14956D01*
X458210Y14950D01*
X458200Y14943D01*
X456913Y14172D01*
X456902Y14166D01*
X456892Y14160D01*
X455520Y13553D01*
X455508Y13549D01*
X455497Y13544D01*
X454061Y13109D01*
X454049Y13107D01*
X454038Y13104D01*
X452559Y12848D01*
X452547Y12847D01*
X452535Y12845D01*
X451786Y12809D01*
X451786D01*
X451708Y12805D01*
X451707Y12805D01*
X451705Y12805D01*
X451688Y12806D01*
X451669Y12807D01*
X451668Y12807D01*
X451667Y12808D01*
X451649Y12812D01*
X451632Y12817D01*
X451630Y12817D01*
X451629Y12817D01*
X451483Y12872D01*
X451482Y12872D01*
X451481Y12873D01*
X451465Y12880D01*
X451448Y12889D01*
X451447Y12889D01*
X451446Y12890D01*
X451432Y12901D01*
X451417Y12912D01*
X451417Y12913D01*
X451416Y12914D01*
X451303Y13021D01*
X451302Y13022D01*
X451301Y13023D01*
X451289Y13037D01*
X451277Y13051D01*
X451277Y13052D01*
X451276Y13053D01*
X451267Y13069D01*
X451258Y13084D01*
X451258Y13086D01*
X451257Y13087D01*
X451196Y13230D01*
X451196Y13231D01*
X451195Y13232D01*
X451190Y13250D01*
X451184Y13267D01*
X451184Y13268D01*
X451184Y13269D01*
X451182Y13288D01*
X451180Y13306D01*
X451180Y13307D01*
X451180Y13308D01*
X451180Y13386D01*
X451180Y15345D01*
X451178Y15351D01*
X451172Y15353D01*
X451171Y15353D01*
X450403Y15353D01*
X450403Y15353D01*
X450397Y15351D01*
X450395Y15345D01*
X450394Y13386D01*
X450395Y13309D01*
X450395Y13307D01*
X450395Y13306D01*
X450393Y13288D01*
X450391Y13270D01*
X450391Y13269D01*
X450391Y13267D01*
X450385Y13250D01*
X450380Y13233D01*
X450380Y13232D01*
X450379Y13230D01*
X450318Y13086D01*
X450317Y13085D01*
X450317Y13083D01*
X450308Y13068D01*
X450300Y13052D01*
X450299Y13051D01*
X450298Y13050D01*
X450286Y13036D01*
X450275Y13023D01*
X450274Y13022D01*
X450273Y13020D01*
X450160Y12913D01*
X450158Y12912D01*
X450157Y12911D01*
X450143Y12900D01*
X450129Y12889D01*
X450128Y12888D01*
X450126Y12887D01*
X450110Y12879D01*
X450094Y12871D01*
X450093Y12871D01*
X450091Y12870D01*
X449945Y12817D01*
X449943Y12816D01*
X449942Y12815D01*
X449924Y12811D01*
X449907Y12807D01*
X449906Y12807D01*
X449904Y12806D01*
X449886Y12806D01*
X449868Y12804D01*
X449867Y12805D01*
X449865Y12805D01*
X449788Y12809D01*
X449040Y12846D01*
X449028Y12847D01*
X449016Y12848D01*
X447537Y13104D01*
X447526Y13108D01*
X447514Y13110D01*
X446078Y13545D01*
X446067Y13550D01*
X446055Y13554D01*
X444684Y14161D01*
X444673Y14167D01*
X444662Y14173D01*
X443375Y14944D01*
X443365Y14951D01*
X443355Y14957D01*
X442172Y15880D01*
X442164Y15889D01*
X442154Y15897D01*
X441093Y16957D01*
X441086Y16967D01*
X441077Y16975D01*
X440154Y18158D01*
X440148Y18169D01*
X440141Y18178D01*
X439369Y19465D01*
X439364Y19476D01*
X439358Y19487D01*
X438751Y20858D01*
X438747Y20870D01*
X438742Y20881D01*
X438307Y22317D01*
X438305Y22329D01*
X438301Y22341D01*
X438045Y23819D01*
X438044Y23831D01*
X438042Y23843D01*
X438006Y24592D01*
Y24592D01*
X438002Y24670D01*
X438002Y24671D01*
X438002Y24672D01*
X438003Y24690D01*
X438004Y24708D01*
X438004Y24710D01*
X438004Y24711D01*
X438009Y24729D01*
X438014Y24746D01*
X438014Y24747D01*
X438014Y24748D01*
X438068Y24894D01*
X438069Y24895D01*
X438069Y24896D01*
X438077Y24912D01*
X438086Y24929D01*
X438086Y24930D01*
X438087Y24931D01*
X438098Y24945D01*
X438109Y24960D01*
X438110Y24961D01*
X438111Y24961D01*
X438218Y25074D01*
X438219Y25075D01*
X438220Y25076D01*
X438233Y25087D01*
X438247Y25099D01*
X438248Y25100D01*
X438249Y25101D01*
X438266Y25110D01*
X438281Y25118D01*
X438282Y25119D01*
X438283Y25119D01*
X438426Y25180D01*
X438427Y25181D01*
X438428Y25181D01*
X438445Y25186D01*
X438463Y25192D01*
X438464Y25192D01*
X438465Y25192D01*
X438484Y25194D01*
X438502Y25196D01*
X438503Y25196D01*
X438504Y25196D01*
X438581Y25196D01*
X438581Y25196D01*
X440550Y25198D01*
X440550Y25198D01*
X440550Y25199D01*
X440550Y25201D01*
X440550Y25974D01*
X440548Y25980D01*
X440541Y25983D01*
X440537Y25983D01*
X438583Y25983D01*
X438505D01*
X438504Y25983D01*
X438502Y25983D01*
X438484Y25985D01*
X438466Y25987D01*
X438465Y25987D01*
X438464Y25988D01*
X438446Y25993D01*
X438429Y25998D01*
X438428Y25999D01*
X438427Y25999D01*
X438284Y26061D01*
X438282Y26061D01*
X438281Y26062D01*
X438265Y26071D01*
X438250Y26079D01*
X438249Y26080D01*
X438248Y26081D01*
X438233Y26093D01*
X438220Y26104D01*
X438219Y26105D01*
X438218Y26106D01*
X438111Y26219D01*
X438110Y26220D01*
X438109Y26221D01*
X438098Y26235D01*
X438087Y26250D01*
X438086Y26251D01*
X438086Y26252D01*
X438078Y26268D01*
X438069Y26284D01*
X438069Y26285D01*
X438069Y26286D01*
X438014Y26432D01*
X438014Y26434D01*
X438014Y26435D01*
X438009Y26452D01*
X438004Y26470D01*
X438004Y26471D01*
X438004Y26472D01*
X438003Y26491D01*
X438002Y26509D01*
X438002Y26510D01*
X438002Y26511D01*
X438006Y26589D01*
D01*
Y26589D01*
X438042Y27338D01*
X438044Y27350D01*
X438045Y27362D01*
X438301Y28841D01*
X438305Y28852D01*
X438307Y28864D01*
X438742Y30300D01*
X438747Y30311D01*
X438751Y30323D01*
X439358Y31694D01*
X439364Y31705D01*
X439369Y31716D01*
X440141Y33003D01*
X440148Y33012D01*
X440154Y33023D01*
X441077Y34205D01*
X441086Y34214D01*
X441093Y34223D01*
X442154Y35284D01*
X442164Y35292D01*
X442173Y35300D01*
X443355Y36223D01*
X443366Y36230D01*
X443375Y36237D01*
X444662Y37008D01*
X444673Y37013D01*
X444684Y37019D01*
X446056Y37627D01*
X446067Y37631D01*
X446078Y37635D01*
X447514Y38070D01*
X447526Y38073D01*
X447538Y38076D01*
X449016Y38332D01*
X449028Y38333D01*
X449040Y38335D01*
X449785Y38371D01*
X449789Y38372D01*
X449867Y38376D01*
X449868Y38376D01*
X449870Y38376D01*
X449888Y38375D01*
D02*
G37*
G36*
Y380894D02*
X449906Y380893D01*
X449907Y380893D01*
X449908Y380893D01*
X449926Y380888D01*
X449943Y380884D01*
X449944Y380884D01*
X449946Y380883D01*
X450092Y380829D01*
X450093Y380828D01*
X450095Y380828D01*
X450110Y380820D01*
X450127Y380812D01*
X450128Y380811D01*
X450129Y380810D01*
X450144Y380799D01*
X450158Y380788D01*
X450159Y380787D01*
X450160Y380787D01*
X450273Y380679D01*
X450274Y380678D01*
X450275Y380677D01*
X450286Y380664D01*
X450298Y380650D01*
X450299Y380648D01*
X450299Y380647D01*
X450308Y380632D01*
X450317Y380616D01*
X450317Y380614D01*
X450318Y380613D01*
X450379Y380470D01*
X450379Y380468D01*
X450380Y380467D01*
X450385Y380450D01*
X450390Y380433D01*
X450391Y380431D01*
X450391Y380430D01*
X450393Y380412D01*
X450395Y380394D01*
X450395Y380393D01*
X450395Y380391D01*
X450394Y380319D01*
X450395Y380315D01*
X450396Y378355D01*
X450398Y378349D01*
X450404Y378347D01*
X451172Y378348D01*
X451177Y378350D01*
X451180Y378356D01*
X451180Y378360D01*
Y380315D01*
X451180Y380393D01*
X451180Y380394D01*
X451180Y380395D01*
X451182Y380413D01*
X451184Y380431D01*
X451184Y380433D01*
X451184Y380434D01*
X451190Y380451D01*
X451195Y380469D01*
X451196Y380469D01*
X451196Y380471D01*
X451258Y380614D01*
X451258Y380615D01*
X451258Y380616D01*
X451267Y380632D01*
X451276Y380648D01*
X451277Y380649D01*
X451277Y380650D01*
X451290Y380664D01*
X451301Y380677D01*
X451302Y380678D01*
X451303Y380679D01*
X451416Y380786D01*
X451416Y380787D01*
X451417Y380788D01*
X451432Y380799D01*
X451446Y380810D01*
X451447Y380811D01*
X451448Y380812D01*
X451465Y380820D01*
X451481Y380828D01*
X451482Y380828D01*
X451483Y380829D01*
X451629Y380883D01*
X451630Y380883D01*
X451631Y380884D01*
X451649Y380888D01*
X451666Y380893D01*
X451668Y380893D01*
X451669Y380893D01*
X451687Y380894D01*
X451705Y380895D01*
X451706Y380895D01*
X451708Y380895D01*
X451778Y380892D01*
X451781Y380892D01*
X451783Y380892D01*
X451786Y380892D01*
X452535Y380855D01*
X452547Y380854D01*
X452559Y380853D01*
X454037Y380597D01*
X454049Y380593D01*
X454061Y380591D01*
X455497Y380156D01*
X455508Y380151D01*
X455520Y380147D01*
X456891Y379540D01*
X456902Y379534D01*
X456913Y379528D01*
X458200Y378757D01*
X458210Y378750D01*
X458220Y378744D01*
X459403Y377820D01*
X459411Y377812D01*
X459421Y377804D01*
X460482Y376744D01*
X460489Y376734D01*
X460498Y376725D01*
X461420Y375542D01*
X461427Y375532D01*
X461434Y375522D01*
X462205Y374235D01*
X462210Y374224D01*
X462216Y374214D01*
X462824Y372842D01*
X462828Y372831D01*
X462832Y372819D01*
X463267Y371383D01*
X463270Y371371D01*
X463273Y371360D01*
X463529Y369881D01*
X463530Y369869D01*
X463531Y369857D01*
X463567Y369123D01*
X463567Y369121D01*
X463568Y369115D01*
X463568Y369109D01*
X463573Y369031D01*
X463573Y369029D01*
X463573Y369028D01*
X463572Y369010D01*
X463571Y368992D01*
X463570Y368991D01*
X463570Y368989D01*
X463566Y368972D01*
X463561Y368955D01*
X463561Y368953D01*
X463560Y368952D01*
X463506Y368806D01*
X463506Y368805D01*
X463505Y368803D01*
X463497Y368787D01*
X463489Y368771D01*
X463489Y368770D01*
X463488Y368769D01*
X463477Y368754D01*
X463466Y368740D01*
X463465Y368739D01*
X463464Y368738D01*
X463356Y368625D01*
X463355Y368624D01*
X463354Y368623D01*
X463341Y368612D01*
X463327Y368600D01*
X463326Y368599D01*
X463325Y368598D01*
X463308Y368589D01*
X463293Y368581D01*
X463292Y368580D01*
X463291Y368580D01*
X463147Y368518D01*
X463146Y368518D01*
X463145Y368517D01*
X463127Y368512D01*
X463110Y368507D01*
X463109Y368507D01*
X463108Y368506D01*
X463089Y368505D01*
X463072Y368503D01*
X463070Y368503D01*
X463069Y368503D01*
X462991Y368503D01*
X462991Y368503D01*
X460827Y368503D01*
X460353D01*
X460336Y368505D01*
X460319Y368506D01*
X460317Y368507D01*
X460315Y368507D01*
X460298Y368512D01*
X460282Y368516D01*
X460133Y368574D01*
X460117Y368582D01*
X460102Y368589D01*
X460100Y368591D01*
X460098Y368592D01*
X460084Y368603D01*
X460071Y368613D01*
X459953Y368721D01*
X459942Y368733D01*
X459930Y368746D01*
X459929Y368748D01*
X459928Y368749D01*
X459919Y368764D01*
X459910Y368779D01*
X459839Y368922D01*
X459833Y368938D01*
X459827Y368954D01*
X459826Y368956D01*
X459825Y368958D01*
X459823Y368975D01*
X459819Y368992D01*
X459813Y369067D01*
X459701Y369893D01*
X459247Y371500D01*
X458502Y372990D01*
X457493Y374313D01*
X456253Y375425D01*
X454827Y376286D01*
X453266Y376864D01*
X451619Y377141D01*
X450789Y377163D01*
X449908Y377111D01*
X448170Y376752D01*
X446537Y376067D01*
X445068Y375080D01*
X443816Y373828D01*
X442829Y372359D01*
X442144Y370726D01*
X441785Y368988D01*
X441734Y368109D01*
X441777Y367227D01*
X442125Y365481D01*
X442805Y363841D01*
X443792Y362366D01*
X445048Y361111D01*
X446525Y360125D01*
X448166Y359446D01*
X449912Y359100D01*
X450795Y359057D01*
X451617Y359094D01*
X453246Y359395D01*
X454790Y359987D01*
X456200Y360849D01*
X457429Y361954D01*
X458437Y363264D01*
X459189Y364735D01*
X459662Y366324D01*
X459788Y367142D01*
X459796Y367220D01*
X459799Y367237D01*
X459802Y367253D01*
X459803Y367255D01*
X459804Y367258D01*
X459810Y367274D01*
X459817Y367289D01*
X459893Y367438D01*
X459902Y367452D01*
X459910Y367466D01*
X459912Y367468D01*
X459914Y367471D01*
X459925Y367483D01*
X459937Y367495D01*
X460061Y367607D01*
X460075Y367617D01*
X460088Y367627D01*
X460090Y367628D01*
X460092Y367630D01*
X460108Y367637D01*
X460122Y367645D01*
X460279Y367704D01*
X460295Y367709D01*
X460311Y367714D01*
X460313Y367714D01*
X460316Y367715D01*
X460333Y367716D01*
X460349Y367717D01*
X460430Y367717D01*
X460431Y367718D01*
X460431Y367717D01*
X460432D01*
X460433Y367718D01*
X462992Y367718D01*
X463069Y367718D01*
X463071Y367718D01*
X463072Y367718D01*
X463090Y367716D01*
X463108Y367714D01*
X463109Y367714D01*
X463111Y367713D01*
X463128Y367708D01*
X463145Y367703D01*
X463146Y367702D01*
X463148Y367702D01*
X463291Y367641D01*
X463293Y367640D01*
X463294Y367639D01*
X463309Y367631D01*
X463325Y367622D01*
X463326Y367621D01*
X463328Y367620D01*
X463341Y367609D01*
X463355Y367597D01*
X463356Y367596D01*
X463357Y367595D01*
X463464Y367482D01*
X463465Y367481D01*
X463466Y367480D01*
X463477Y367466D01*
X463488Y367452D01*
X463489Y367450D01*
X463490Y367449D01*
X463498Y367433D01*
X463506Y367417D01*
X463506Y367416D01*
X463507Y367414D01*
X463561Y367268D01*
X463561Y367267D01*
X463562Y367266D01*
X463566Y367248D01*
X463571Y367231D01*
X463571Y367229D01*
X463571Y367228D01*
X463572Y367210D01*
X463573Y367192D01*
X463573Y367191D01*
X463573Y367189D01*
X463569Y367112D01*
X463569Y367112D01*
X463533Y366363D01*
X463531Y366351D01*
X463530Y366338D01*
X463274Y364860D01*
X463271Y364848D01*
X463269Y364836D01*
X462834Y363400D01*
X462829Y363389D01*
X462825Y363378D01*
X462218Y362006D01*
X462212Y361995D01*
X462206Y361984D01*
X461435Y360697D01*
X461428Y360687D01*
X461421Y360677D01*
X460499Y359494D01*
X460490Y359485D01*
X460483Y359476D01*
X459421Y358415D01*
X459412Y358407D01*
X459403Y358399D01*
X458220Y357476D01*
X458210Y357470D01*
X458200Y357462D01*
X456913Y356691D01*
X456902Y356686D01*
X456892Y356680D01*
X455520Y356072D01*
X455508Y356069D01*
X455497Y356064D01*
X454061Y355629D01*
X454049Y355627D01*
X454038Y355623D01*
X452559Y355368D01*
X452547Y355367D01*
X452535Y355365D01*
X451786Y355329D01*
X451786D01*
X451708Y355325D01*
X451707Y355325D01*
X451705Y355325D01*
X451688Y355326D01*
X451669Y355327D01*
X451668Y355327D01*
X451667Y355327D01*
X451649Y355332D01*
X451632Y355336D01*
X451630Y355337D01*
X451629Y355337D01*
X451483Y355391D01*
X451482Y355392D01*
X451481Y355392D01*
X451465Y355400D01*
X451448Y355408D01*
X451447Y355409D01*
X451446Y355410D01*
X451432Y355421D01*
X451417Y355432D01*
X451417Y355433D01*
X451416Y355434D01*
X451303Y355541D01*
X451302Y355542D01*
X451301Y355543D01*
X451289Y355557D01*
X451277Y355570D01*
X451277Y355572D01*
X451276Y355572D01*
X451267Y355588D01*
X451258Y355604D01*
X451258Y355605D01*
X451257Y355606D01*
X451196Y355750D01*
X451196Y355751D01*
X451195Y355752D01*
X451190Y355769D01*
X451184Y355787D01*
X451184Y355788D01*
X451184Y355789D01*
X451182Y355807D01*
X451180Y355825D01*
X451180Y355826D01*
X451180Y355828D01*
X451180Y355906D01*
X451180Y357865D01*
X451178Y357871D01*
X451172Y357873D01*
X451171Y357873D01*
X450403Y357873D01*
X450403Y357873D01*
X450397Y357871D01*
X450395Y357865D01*
X450394Y355906D01*
X450395Y355829D01*
X450395Y355827D01*
X450395Y355825D01*
X450393Y355808D01*
X450391Y355790D01*
X450391Y355788D01*
X450391Y355787D01*
X450385Y355770D01*
X450380Y355753D01*
X450380Y355751D01*
X450379Y355750D01*
X450318Y355606D01*
X450317Y355605D01*
X450317Y355603D01*
X450308Y355588D01*
X450300Y355572D01*
X450299Y355571D01*
X450298Y355569D01*
X450286Y355556D01*
X450275Y355542D01*
X450274Y355541D01*
X450273Y355540D01*
X450160Y355432D01*
X450158Y355431D01*
X450157Y355430D01*
X450143Y355420D01*
X450129Y355409D01*
X450128Y355408D01*
X450126Y355407D01*
X450110Y355399D01*
X450094Y355391D01*
X450093Y355391D01*
X450091Y355390D01*
X449945Y355336D01*
X449943Y355336D01*
X449942Y355335D01*
X449924Y355331D01*
X449907Y355326D01*
X449906Y355326D01*
X449904Y355326D01*
X449886Y355325D01*
X449868Y355324D01*
X449867Y355324D01*
X449865Y355324D01*
X449788Y355329D01*
X449040Y355365D01*
X449028Y355367D01*
X449016Y355368D01*
X447537Y355624D01*
X447526Y355627D01*
X447514Y355630D01*
X446078Y356065D01*
X446067Y356069D01*
X446055Y356073D01*
X444684Y356681D01*
X444673Y356687D01*
X444662Y356692D01*
X443375Y357463D01*
X443365Y357471D01*
X443355Y357477D01*
X442172Y358400D01*
X442164Y358408D01*
X442154Y358416D01*
X441093Y359477D01*
X441086Y359486D01*
X441077Y359495D01*
X440154Y360678D01*
X440148Y360688D01*
X440141Y360698D01*
X439369Y361985D01*
X439364Y361996D01*
X439358Y362006D01*
X438751Y363378D01*
X438747Y363390D01*
X438742Y363401D01*
X438307Y364837D01*
X438305Y364848D01*
X438301Y364860D01*
X438045Y366338D01*
X438044Y366351D01*
X438042Y366363D01*
X438006Y367112D01*
Y367112D01*
X438002Y367189D01*
X438002Y367191D01*
X438002Y367192D01*
X438003Y367210D01*
X438004Y367228D01*
X438004Y367229D01*
X438004Y367231D01*
X438009Y367249D01*
X438014Y367266D01*
X438014Y367267D01*
X438014Y367268D01*
X438068Y367414D01*
X438069Y367415D01*
X438069Y367416D01*
X438077Y367432D01*
X438086Y367448D01*
X438086Y367449D01*
X438087Y367451D01*
X438098Y367465D01*
X438109Y367479D01*
X438110Y367480D01*
X438111Y367481D01*
X438218Y367594D01*
X438219Y367594D01*
X438220Y367595D01*
X438233Y367607D01*
X438247Y367619D01*
X438248Y367619D01*
X438249Y367620D01*
X438266Y367629D01*
X438281Y367638D01*
X438282Y367638D01*
X438283Y367639D01*
X438426Y367700D01*
X438427Y367700D01*
X438428Y367701D01*
X438445Y367706D01*
X438463Y367712D01*
X438464Y367712D01*
X438465Y367712D01*
X438484Y367714D01*
X438502Y367716D01*
X438503Y367716D01*
X438504Y367716D01*
X438581Y367716D01*
X438581Y367716D01*
X440550Y367718D01*
X440550Y367718D01*
X440550Y367719D01*
X440550Y367721D01*
X440550Y368494D01*
X440548Y368500D01*
X440541Y368503D01*
X440537Y368503D01*
X438583Y368503D01*
X438505D01*
X438504Y368503D01*
X438502Y368503D01*
X438484Y368505D01*
X438466Y368507D01*
X438465Y368507D01*
X438464Y368507D01*
X438446Y368513D01*
X438429Y368518D01*
X438428Y368519D01*
X438427Y368519D01*
X438284Y368580D01*
X438282Y368581D01*
X438281Y368581D01*
X438265Y368590D01*
X438250Y368599D01*
X438249Y368600D01*
X438248Y368600D01*
X438233Y368613D01*
X438220Y368624D01*
X438219Y368625D01*
X438218Y368626D01*
X438111Y368739D01*
X438110Y368740D01*
X438109Y368740D01*
X438098Y368755D01*
X438087Y368769D01*
X438086Y368770D01*
X438086Y368771D01*
X438078Y368788D01*
X438069Y368804D01*
X438069Y368805D01*
X438069Y368806D01*
X438014Y368952D01*
X438014Y368953D01*
X438014Y368954D01*
X438009Y368972D01*
X438004Y368990D01*
X438004Y368991D01*
X438004Y368992D01*
X438003Y369010D01*
X438002Y369028D01*
X438002Y369029D01*
X438002Y369031D01*
X438006Y369109D01*
D01*
Y369109D01*
X438042Y369858D01*
X438044Y369870D01*
X438045Y369882D01*
X438301Y371360D01*
X438305Y371372D01*
X438307Y371384D01*
X438742Y372819D01*
X438747Y372831D01*
X438751Y372842D01*
X439358Y374214D01*
X439364Y374224D01*
X439369Y374235D01*
X440141Y375522D01*
X440148Y375532D01*
X440154Y375542D01*
X441077Y376725D01*
X441086Y376734D01*
X441093Y376743D01*
X442154Y377804D01*
X442164Y377812D01*
X442173Y377820D01*
X443355Y378743D01*
X443366Y378749D01*
X443375Y378757D01*
X444662Y379528D01*
X444673Y379533D01*
X444684Y379539D01*
X446056Y380147D01*
X446067Y380150D01*
X446078Y380155D01*
X447514Y380590D01*
X447526Y380592D01*
X447538Y380596D01*
X449016Y380852D01*
X449028Y380853D01*
X449040Y380854D01*
X449785Y380891D01*
X449789Y380891D01*
X449867Y380895D01*
X449868Y380895D01*
X449870Y380895D01*
X449888Y380894D01*
D02*
G37*
G36*
X875084Y38375D02*
X875102Y38374D01*
X875104Y38374D01*
X875105Y38373D01*
X875123Y38369D01*
X875140Y38364D01*
X875141Y38364D01*
X875143Y38364D01*
X875289Y38309D01*
X875290Y38309D01*
X875292Y38308D01*
X875307Y38300D01*
X875324Y38292D01*
X875325Y38291D01*
X875326Y38291D01*
X875340Y38280D01*
X875355Y38269D01*
X875356Y38268D01*
X875357Y38267D01*
X875469Y38159D01*
X875470Y38158D01*
X875471Y38157D01*
X875483Y38144D01*
X875495Y38130D01*
X875495Y38129D01*
X875496Y38128D01*
X875505Y38112D01*
X875514Y38096D01*
X875514Y38095D01*
X875515Y38094D01*
X875576Y37950D01*
X875576Y37949D01*
X875577Y37947D01*
X875582Y37930D01*
X875587Y37913D01*
X875588Y37912D01*
X875588Y37910D01*
X875590Y37892D01*
X875591Y37874D01*
X875591Y37873D01*
X875592Y37872D01*
X875591Y37799D01*
X875592Y37795D01*
X875593Y35836D01*
X875595Y35830D01*
X875601Y35827D01*
X876368Y35828D01*
X876374Y35831D01*
X876377Y35837D01*
X876377Y35840D01*
Y37795D01*
X876377Y37873D01*
X876377Y37874D01*
X876377Y37876D01*
X876379Y37893D01*
X876381Y37912D01*
X876381Y37913D01*
X876381Y37914D01*
X876387Y37931D01*
X876392Y37949D01*
X876393Y37950D01*
X876393Y37951D01*
X876454Y38094D01*
X876455Y38095D01*
X876455Y38096D01*
X876464Y38112D01*
X876473Y38128D01*
X876474Y38129D01*
X876474Y38130D01*
X876486Y38144D01*
X876498Y38158D01*
X876499Y38159D01*
X876500Y38159D01*
X876612Y38267D01*
X876613Y38267D01*
X876614Y38268D01*
X876628Y38279D01*
X876643Y38291D01*
X876644Y38291D01*
X876645Y38292D01*
X876662Y38300D01*
X876678Y38308D01*
X876679Y38308D01*
X876680Y38309D01*
X876826Y38363D01*
X876827Y38364D01*
X876828Y38364D01*
X876845Y38368D01*
X876863Y38373D01*
X876865Y38373D01*
X876866Y38374D01*
X876884Y38374D01*
X876902Y38375D01*
X876903Y38375D01*
X876904Y38375D01*
X876975Y38372D01*
X876978Y38372D01*
X876980Y38372D01*
X876983Y38372D01*
X877732Y38335D01*
X877744Y38334D01*
X877756Y38333D01*
X879234Y38077D01*
X879246Y38074D01*
X879258Y38071D01*
X880694Y37636D01*
X880705Y37631D01*
X880716Y37628D01*
X882088Y37020D01*
X882099Y37014D01*
X882110Y37009D01*
X883397Y36238D01*
X883406Y36230D01*
X883417Y36224D01*
X884599Y35301D01*
X884608Y35293D01*
X884618Y35285D01*
X885678Y34224D01*
X885686Y34214D01*
X885695Y34206D01*
X886617Y33023D01*
X886624Y33013D01*
X886631Y33003D01*
X887402Y31716D01*
X887407Y31705D01*
X887413Y31694D01*
X888021Y30322D01*
X888025Y30311D01*
X888029Y30300D01*
X888464Y28864D01*
X888466Y28852D01*
X888470Y28840D01*
X888725Y27362D01*
X888726Y27350D01*
X888728Y27338D01*
X888764Y26603D01*
X888764Y26601D01*
X888764Y26595D01*
X888765Y26589D01*
X888769Y26511D01*
X888769Y26510D01*
X888770Y26509D01*
X888768Y26491D01*
X888768Y26472D01*
X888767Y26471D01*
X888767Y26470D01*
X888763Y26452D01*
X888758Y26435D01*
X888758Y26434D01*
X888757Y26432D01*
X888703Y26286D01*
X888703Y26285D01*
X888702Y26283D01*
X888694Y26267D01*
X888686Y26251D01*
X888685Y26250D01*
X888685Y26249D01*
X888673Y26234D01*
X888663Y26220D01*
X888662Y26219D01*
X888661Y26218D01*
X888553Y26105D01*
X888552Y26105D01*
X888551Y26103D01*
X888538Y26092D01*
X888524Y26080D01*
X888523Y26079D01*
X888522Y26079D01*
X888505Y26070D01*
X888490Y26061D01*
X888489Y26061D01*
X888488Y26060D01*
X888344Y25999D01*
X888343Y25998D01*
X888342Y25998D01*
X888324Y25993D01*
X888307Y25987D01*
X888306Y25987D01*
X888305Y25987D01*
X888286Y25985D01*
X888269Y25983D01*
X888267Y25983D01*
X888266Y25983D01*
X888188Y25983D01*
X888188Y25983D01*
X886024Y25983D01*
X885550D01*
X885533Y25985D01*
X885516Y25986D01*
X885514Y25987D01*
X885512Y25987D01*
X885495Y25992D01*
X885478Y25997D01*
X885330Y26055D01*
X885314Y26063D01*
X885299Y26070D01*
X885297Y26071D01*
X885295Y26072D01*
X885281Y26083D01*
X885268Y26093D01*
X885150Y26201D01*
X885139Y26214D01*
X885127Y26226D01*
X885126Y26228D01*
X885124Y26230D01*
X885116Y26244D01*
X885106Y26259D01*
X885036Y26402D01*
X885030Y26419D01*
X885023Y26434D01*
X885023Y26436D01*
X885022Y26439D01*
X885019Y26455D01*
X885016Y26472D01*
X885010Y26547D01*
X884898Y27373D01*
X884444Y28980D01*
X883699Y30470D01*
X882689Y31794D01*
X881450Y32906D01*
X880024Y33766D01*
X878463Y34345D01*
X876816Y34622D01*
X875986Y34643D01*
X875105Y34592D01*
X873367Y34233D01*
X871734Y33547D01*
X870265Y32560D01*
X869013Y31309D01*
X868026Y29839D01*
X867340Y28207D01*
X866982Y26469D01*
X866930Y25589D01*
X866974Y24708D01*
X867322Y22962D01*
X868002Y21322D01*
X868989Y19846D01*
X870245Y18591D01*
X871722Y17605D01*
X873362Y16926D01*
X875109Y16580D01*
X875992Y16537D01*
X876814Y16574D01*
X878443Y16876D01*
X879987Y17467D01*
X881397Y18329D01*
X882626Y19434D01*
X883634Y20744D01*
X884386Y22216D01*
X884859Y23804D01*
X884985Y24622D01*
X884993Y24700D01*
X884996Y24717D01*
X884999Y24733D01*
X885000Y24736D01*
X885001Y24738D01*
X885007Y24754D01*
X885013Y24769D01*
X885090Y24918D01*
X885099Y24932D01*
X885107Y24947D01*
X885109Y24949D01*
X885111Y24951D01*
X885122Y24963D01*
X885133Y24975D01*
X885258Y25087D01*
X885271Y25097D01*
X885285Y25107D01*
X885287Y25109D01*
X885289Y25110D01*
X885304Y25117D01*
X885319Y25125D01*
X885476Y25185D01*
X885492Y25189D01*
X885508Y25194D01*
X885510Y25194D01*
X885513Y25195D01*
X885530Y25196D01*
X885546Y25198D01*
X885627Y25198D01*
X885627Y25198D01*
X885628Y25198D01*
X885629D01*
X885630Y25198D01*
X888188Y25198D01*
X888266Y25198D01*
X888268Y25198D01*
X888269Y25198D01*
X888287Y25196D01*
X888305Y25194D01*
X888306Y25194D01*
X888308Y25194D01*
X888325Y25188D01*
X888342Y25183D01*
X888343Y25183D01*
X888345Y25182D01*
X888488Y25121D01*
X888489Y25120D01*
X888491Y25120D01*
X888506Y25111D01*
X888522Y25102D01*
X888523Y25101D01*
X888524Y25101D01*
X888538Y25089D01*
X888552Y25077D01*
X888553Y25076D01*
X888554Y25075D01*
X888661Y24962D01*
X888662Y24961D01*
X888663Y24960D01*
X888674Y24947D01*
X888685Y24932D01*
X888686Y24931D01*
X888686Y24929D01*
X888694Y24913D01*
X888703Y24897D01*
X888703Y24896D01*
X888704Y24895D01*
X888758Y24748D01*
X888758Y24747D01*
X888759Y24746D01*
X888763Y24729D01*
X888768Y24711D01*
X888768Y24710D01*
X888768Y24708D01*
X888769Y24690D01*
X888770Y24672D01*
X888770Y24671D01*
X888770Y24669D01*
X888766Y24593D01*
X888766Y24592D01*
X888729Y23843D01*
X888728Y23831D01*
X888727Y23819D01*
X888471Y22340D01*
X888468Y22329D01*
X888465Y22317D01*
X888031Y20881D01*
X888026Y20869D01*
X888022Y20858D01*
X887414Y19486D01*
X887408Y19476D01*
X887403Y19465D01*
X886632Y18178D01*
X886625Y18168D01*
X886618Y18157D01*
X885695Y16974D01*
X885687Y16966D01*
X885679Y16956D01*
X884618Y15895D01*
X884609Y15888D01*
X884600Y15879D01*
X883417Y14956D01*
X883407Y14950D01*
X883397Y14943D01*
X882110Y14172D01*
X882099Y14166D01*
X882089Y14160D01*
X880717Y13553D01*
X880705Y13549D01*
X880694Y13544D01*
X879258Y13109D01*
X879246Y13107D01*
X879234Y13104D01*
X877756Y12848D01*
X877744Y12847D01*
X877732Y12845D01*
X876982Y12809D01*
X876982D01*
X876905Y12805D01*
X876904Y12805D01*
X876902Y12805D01*
X876884Y12806D01*
X876866Y12807D01*
X876865Y12807D01*
X876864Y12808D01*
X876846Y12812D01*
X876828Y12817D01*
X876827Y12817D01*
X876826Y12817D01*
X876680Y12872D01*
X876679Y12872D01*
X876678Y12873D01*
X876662Y12880D01*
X876645Y12889D01*
X876644Y12889D01*
X876643Y12890D01*
X876628Y12901D01*
X876614Y12912D01*
X876614Y12913D01*
X876612Y12914D01*
X876500Y13021D01*
X876499Y13022D01*
X876498Y13023D01*
X876486Y13037D01*
X876474Y13051D01*
X876474Y13052D01*
X876473Y13053D01*
X876464Y13069D01*
X876455Y13084D01*
X876455Y13086D01*
X876454Y13087D01*
X876393Y13230D01*
X876392Y13231D01*
X876392Y13232D01*
X876387Y13250D01*
X876381Y13267D01*
X876381Y13268D01*
X876381Y13269D01*
X876379Y13288D01*
X876377Y13306D01*
X876377Y13307D01*
X876377Y13308D01*
X876377Y13386D01*
X876377Y15345D01*
X876375Y15351D01*
X876368Y15353D01*
X876368Y15353D01*
X875600Y15353D01*
X875600Y15353D01*
X875594Y15351D01*
X875591Y15345D01*
X875591Y13386D01*
X875592Y13309D01*
X875592Y13307D01*
X875592Y13306D01*
X875590Y13288D01*
X875588Y13270D01*
X875588Y13269D01*
X875588Y13267D01*
X875582Y13250D01*
X875577Y13233D01*
X875576Y13232D01*
X875576Y13230D01*
X875515Y13086D01*
X875514Y13085D01*
X875514Y13083D01*
X875505Y13068D01*
X875497Y13052D01*
X875496Y13051D01*
X875495Y13050D01*
X875483Y13036D01*
X875472Y13023D01*
X875471Y13022D01*
X875469Y13020D01*
X875356Y12913D01*
X875355Y12912D01*
X875354Y12911D01*
X875340Y12900D01*
X875326Y12889D01*
X875324Y12888D01*
X875323Y12887D01*
X875307Y12879D01*
X875291Y12871D01*
X875290Y12871D01*
X875288Y12870D01*
X875142Y12817D01*
X875140Y12816D01*
X875139Y12815D01*
X875121Y12811D01*
X875104Y12807D01*
X875103Y12807D01*
X875101Y12806D01*
X875083Y12806D01*
X875065Y12804D01*
X875064Y12805D01*
X875062Y12805D01*
X874985Y12809D01*
X874237Y12846D01*
X874225Y12847D01*
X874212Y12848D01*
X872734Y13104D01*
X872723Y13108D01*
X872711Y13110D01*
X871275Y13545D01*
X871264Y13550D01*
X871252Y13554D01*
X869880Y14161D01*
X869870Y14167D01*
X869859Y14173D01*
X868572Y14944D01*
X868562Y14951D01*
X868552Y14957D01*
X867369Y15880D01*
X867360Y15889D01*
X867351Y15897D01*
X866290Y16957D01*
X866282Y16967D01*
X866274Y16975D01*
X865351Y18158D01*
X865345Y18169D01*
X865337Y18178D01*
X864566Y19465D01*
X864561Y19476D01*
X864555Y19487D01*
X863947Y20858D01*
X863943Y20870D01*
X863939Y20881D01*
X863504Y22317D01*
X863501Y22329D01*
X863498Y22341D01*
X863242Y23819D01*
X863241Y23831D01*
X863239Y23843D01*
X863203Y24592D01*
Y24592D01*
X863199Y24670D01*
X863199Y24671D01*
X863199Y24672D01*
X863200Y24690D01*
X863201Y24708D01*
X863201Y24710D01*
X863201Y24711D01*
X863206Y24729D01*
X863210Y24746D01*
X863211Y24747D01*
X863211Y24748D01*
X863265Y24894D01*
X863266Y24895D01*
X863266Y24896D01*
X863274Y24912D01*
X863282Y24929D01*
X863283Y24930D01*
X863284Y24931D01*
X863295Y24945D01*
X863306Y24960D01*
X863307Y24961D01*
X863308Y24961D01*
X863415Y25074D01*
X863416Y25075D01*
X863416Y25076D01*
X863430Y25087D01*
X863444Y25099D01*
X863445Y25100D01*
X863446Y25101D01*
X863463Y25110D01*
X863478Y25118D01*
X863479Y25119D01*
X863480Y25119D01*
X863623Y25180D01*
X863624Y25181D01*
X863625Y25181D01*
X863642Y25186D01*
X863660Y25192D01*
X863661Y25192D01*
X863662Y25192D01*
X863680Y25194D01*
X863698Y25196D01*
X863700Y25196D01*
X863701Y25196D01*
X863778Y25196D01*
X863778Y25196D01*
X865746Y25198D01*
X865747Y25198D01*
X865747Y25199D01*
X865747Y25201D01*
X865747Y25974D01*
X865744Y25980D01*
X865738Y25983D01*
X865734Y25983D01*
X863780Y25983D01*
X863702D01*
X863700Y25983D01*
X863699Y25983D01*
X863681Y25985D01*
X863663Y25987D01*
X863662Y25987D01*
X863661Y25988D01*
X863643Y25993D01*
X863626Y25998D01*
X863625Y25999D01*
X863624Y25999D01*
X863480Y26061D01*
X863479Y26061D01*
X863478Y26062D01*
X863462Y26071D01*
X863447Y26079D01*
X863446Y26080D01*
X863445Y26081D01*
X863430Y26093D01*
X863417Y26104D01*
X863416Y26105D01*
X863415Y26106D01*
X863308Y26219D01*
X863307Y26220D01*
X863306Y26221D01*
X863295Y26235D01*
X863284Y26250D01*
X863283Y26251D01*
X863282Y26252D01*
X863274Y26268D01*
X863266Y26284D01*
X863266Y26285D01*
X863266Y26286D01*
X863211Y26432D01*
X863211Y26434D01*
X863210Y26435D01*
X863206Y26452D01*
X863201Y26470D01*
X863201Y26471D01*
X863201Y26472D01*
X863200Y26491D01*
X863199Y26509D01*
X863199Y26510D01*
X863199Y26511D01*
X863203Y26589D01*
D01*
Y26589D01*
X863239Y27338D01*
X863241Y27350D01*
X863242Y27362D01*
X863498Y28841D01*
X863501Y28852D01*
X863504Y28864D01*
X863939Y30300D01*
X863944Y30311D01*
X863947Y30323D01*
X864555Y31694D01*
X864561Y31705D01*
X864566Y31716D01*
X865338Y33003D01*
X865345Y33012D01*
X865351Y33023D01*
X866274Y34205D01*
X866283Y34214D01*
X866290Y34223D01*
X867351Y35284D01*
X867361Y35292D01*
X867369Y35300D01*
X868552Y36223D01*
X868563Y36230D01*
X868572Y36237D01*
X869859Y37008D01*
X869870Y37013D01*
X869881Y37019D01*
X871252Y37627D01*
X871264Y37631D01*
X871275Y37635D01*
X872711Y38070D01*
X872723Y38073D01*
X872735Y38076D01*
X874213Y38332D01*
X874225Y38333D01*
X874237Y38335D01*
X874982Y38371D01*
X874986Y38372D01*
X875064Y38376D01*
X875065Y38376D01*
X875066Y38376D01*
X875084Y38375D01*
D02*
G37*
G36*
Y380894D02*
X875102Y380893D01*
X875104Y380893D01*
X875105Y380893D01*
X875123Y380888D01*
X875140Y380884D01*
X875141Y380884D01*
X875143Y380883D01*
X875289Y380829D01*
X875290Y380828D01*
X875292Y380828D01*
X875307Y380820D01*
X875324Y380812D01*
X875325Y380811D01*
X875326Y380810D01*
X875340Y380799D01*
X875355Y380788D01*
X875356Y380787D01*
X875357Y380787D01*
X875469Y380679D01*
X875470Y380678D01*
X875471Y380677D01*
X875483Y380664D01*
X875495Y380650D01*
X875495Y380648D01*
X875496Y380647D01*
X875505Y380632D01*
X875514Y380616D01*
X875514Y380614D01*
X875515Y380613D01*
X875576Y380470D01*
X875576Y380468D01*
X875577Y380467D01*
X875582Y380450D01*
X875587Y380433D01*
X875588Y380431D01*
X875588Y380430D01*
X875590Y380412D01*
X875591Y380394D01*
X875591Y380393D01*
X875592Y380391D01*
X875591Y380319D01*
X875592Y380315D01*
X875593Y378355D01*
X875595Y378349D01*
X875601Y378347D01*
X876368Y378348D01*
X876374Y378350D01*
X876377Y378356D01*
X876377Y378360D01*
Y380315D01*
X876377Y380393D01*
X876377Y380394D01*
X876377Y380395D01*
X876379Y380413D01*
X876381Y380431D01*
X876381Y380433D01*
X876381Y380434D01*
X876387Y380451D01*
X876392Y380469D01*
X876393Y380469D01*
X876393Y380471D01*
X876454Y380614D01*
X876455Y380615D01*
X876455Y380616D01*
X876464Y380632D01*
X876473Y380648D01*
X876474Y380649D01*
X876474Y380650D01*
X876486Y380664D01*
X876498Y380677D01*
X876499Y380678D01*
X876500Y380679D01*
X876612Y380786D01*
X876613Y380787D01*
X876614Y380788D01*
X876628Y380799D01*
X876643Y380810D01*
X876644Y380811D01*
X876645Y380812D01*
X876662Y380820D01*
X876678Y380828D01*
X876679Y380828D01*
X876680Y380829D01*
X876826Y380883D01*
X876827Y380883D01*
X876828Y380884D01*
X876845Y380888D01*
X876863Y380893D01*
X876865Y380893D01*
X876866Y380893D01*
X876884Y380894D01*
X876902Y380895D01*
X876903Y380895D01*
X876904Y380895D01*
X876975Y380892D01*
X876978Y380892D01*
X876980Y380892D01*
X876983Y380892D01*
X877732Y380855D01*
X877744Y380854D01*
X877756Y380853D01*
X879234Y380597D01*
X879246Y380593D01*
X879258Y380591D01*
X880694Y380156D01*
X880705Y380151D01*
X880716Y380147D01*
X882088Y379540D01*
X882099Y379534D01*
X882110Y379528D01*
X883397Y378757D01*
X883406Y378750D01*
X883417Y378744D01*
X884599Y377820D01*
X884608Y377812D01*
X884618Y377804D01*
X885678Y376744D01*
X885686Y376734D01*
X885695Y376725D01*
X886617Y375542D01*
X886624Y375532D01*
X886631Y375522D01*
X887402Y374235D01*
X887407Y374224D01*
X887413Y374214D01*
X888021Y372842D01*
X888025Y372831D01*
X888029Y372819D01*
X888464Y371383D01*
X888466Y371371D01*
X888470Y371360D01*
X888725Y369881D01*
X888726Y369869D01*
X888728Y369857D01*
X888764Y369123D01*
X888764Y369121D01*
X888764Y369115D01*
X888765Y369109D01*
X888769Y369031D01*
X888769Y369029D01*
X888770Y369028D01*
X888768Y369010D01*
X888768Y368992D01*
X888767Y368991D01*
X888767Y368989D01*
X888763Y368972D01*
X888758Y368955D01*
X888758Y368953D01*
X888757Y368952D01*
X888703Y368806D01*
X888703Y368805D01*
X888702Y368803D01*
X888694Y368787D01*
X888686Y368771D01*
X888685Y368770D01*
X888685Y368769D01*
X888673Y368754D01*
X888663Y368740D01*
X888662Y368739D01*
X888661Y368738D01*
X888553Y368625D01*
X888552Y368624D01*
X888551Y368623D01*
X888538Y368612D01*
X888524Y368600D01*
X888523Y368599D01*
X888522Y368598D01*
X888505Y368589D01*
X888490Y368581D01*
X888489Y368580D01*
X888488Y368580D01*
X888344Y368518D01*
X888343Y368518D01*
X888342Y368517D01*
X888324Y368512D01*
X888307Y368507D01*
X888306Y368507D01*
X888305Y368506D01*
X888286Y368505D01*
X888269Y368503D01*
X888267Y368503D01*
X888266Y368503D01*
X888188Y368503D01*
X888188Y368503D01*
X886024Y368503D01*
X885550D01*
X885533Y368505D01*
X885516Y368506D01*
X885514Y368507D01*
X885512Y368507D01*
X885495Y368512D01*
X885478Y368516D01*
X885330Y368574D01*
X885314Y368582D01*
X885299Y368589D01*
X885297Y368591D01*
X885295Y368592D01*
X885281Y368603D01*
X885268Y368613D01*
X885150Y368721D01*
X885139Y368733D01*
X885127Y368746D01*
X885126Y368748D01*
X885124Y368749D01*
X885116Y368764D01*
X885106Y368779D01*
X885036Y368922D01*
X885030Y368938D01*
X885023Y368954D01*
X885023Y368956D01*
X885022Y368958D01*
X885019Y368975D01*
X885016Y368992D01*
X885010Y369067D01*
X884898Y369893D01*
X884444Y371500D01*
X883699Y372990D01*
X882689Y374313D01*
X881450Y375425D01*
X880024Y376286D01*
X878463Y376864D01*
X876816Y377141D01*
X875986Y377163D01*
X875105Y377111D01*
X873367Y376752D01*
X871734Y376067D01*
X870265Y375080D01*
X869013Y373828D01*
X868026Y372359D01*
X867340Y370726D01*
X866982Y368988D01*
X866930Y368109D01*
X866974Y367227D01*
X867322Y365481D01*
X868002Y363841D01*
X868989Y362366D01*
X870245Y361111D01*
X871722Y360125D01*
X873362Y359446D01*
X875109Y359100D01*
X875992Y359057D01*
X876814Y359094D01*
X878443Y359395D01*
X879987Y359987D01*
X881397Y360849D01*
X882626Y361954D01*
X883634Y363264D01*
X884386Y364735D01*
X884859Y366324D01*
X884985Y367142D01*
X884993Y367220D01*
X884996Y367237D01*
X884999Y367253D01*
X885000Y367255D01*
X885001Y367258D01*
X885007Y367274D01*
X885013Y367289D01*
X885090Y367438D01*
X885099Y367452D01*
X885107Y367466D01*
X885109Y367468D01*
X885111Y367471D01*
X885122Y367483D01*
X885133Y367495D01*
X885258Y367607D01*
X885271Y367617D01*
X885285Y367627D01*
X885287Y367628D01*
X885289Y367630D01*
X885304Y367637D01*
X885319Y367645D01*
X885476Y367704D01*
X885492Y367709D01*
X885508Y367714D01*
X885510Y367714D01*
X885513Y367715D01*
X885530Y367716D01*
X885546Y367717D01*
X885627Y367717D01*
X885627Y367718D01*
X885628Y367717D01*
X885629D01*
X885630Y367718D01*
X888188Y367718D01*
X888266Y367718D01*
X888268Y367718D01*
X888269Y367718D01*
X888287Y367716D01*
X888305Y367714D01*
X888306Y367714D01*
X888308Y367713D01*
X888325Y367708D01*
X888342Y367703D01*
X888343Y367702D01*
X888345Y367702D01*
X888488Y367641D01*
X888489Y367640D01*
X888491Y367639D01*
X888506Y367631D01*
X888522Y367622D01*
X888523Y367621D01*
X888524Y367620D01*
X888538Y367609D01*
X888552Y367597D01*
X888553Y367596D01*
X888554Y367595D01*
X888661Y367482D01*
X888662Y367481D01*
X888663Y367480D01*
X888674Y367466D01*
X888685Y367452D01*
X888686Y367450D01*
X888686Y367449D01*
X888694Y367433D01*
X888703Y367417D01*
X888703Y367416D01*
X888704Y367414D01*
X888758Y367268D01*
X888758Y367267D01*
X888759Y367266D01*
X888763Y367248D01*
X888768Y367231D01*
X888768Y367229D01*
X888768Y367228D01*
X888769Y367210D01*
X888770Y367192D01*
X888770Y367191D01*
X888770Y367189D01*
X888766Y367112D01*
X888766Y367112D01*
X888729Y366363D01*
X888728Y366351D01*
X888727Y366338D01*
X888471Y364860D01*
X888468Y364848D01*
X888465Y364836D01*
X888031Y363400D01*
X888026Y363389D01*
X888022Y363378D01*
X887414Y362006D01*
X887408Y361995D01*
X887403Y361984D01*
X886632Y360697D01*
X886625Y360687D01*
X886618Y360677D01*
X885695Y359494D01*
X885687Y359485D01*
X885679Y359476D01*
X884618Y358415D01*
X884609Y358407D01*
X884600Y358399D01*
X883417Y357476D01*
X883407Y357470D01*
X883397Y357462D01*
X882110Y356691D01*
X882099Y356686D01*
X882089Y356680D01*
X880717Y356072D01*
X880705Y356069D01*
X880694Y356064D01*
X879258Y355629D01*
X879246Y355627D01*
X879234Y355623D01*
X877756Y355368D01*
X877744Y355367D01*
X877732Y355365D01*
X876982Y355329D01*
X876982D01*
X876905Y355325D01*
X876904Y355325D01*
X876902Y355325D01*
X876884Y355326D01*
X876866Y355327D01*
X876865Y355327D01*
X876864Y355327D01*
X876846Y355332D01*
X876828Y355336D01*
X876827Y355337D01*
X876826Y355337D01*
X876680Y355391D01*
X876679Y355392D01*
X876678Y355392D01*
X876662Y355400D01*
X876645Y355408D01*
X876644Y355409D01*
X876643Y355410D01*
X876628Y355421D01*
X876614Y355432D01*
X876614Y355433D01*
X876612Y355434D01*
X876500Y355541D01*
X876499Y355542D01*
X876498Y355543D01*
X876486Y355557D01*
X876474Y355570D01*
X876474Y355572D01*
X876473Y355572D01*
X876464Y355588D01*
X876455Y355604D01*
X876455Y355605D01*
X876454Y355606D01*
X876393Y355750D01*
X876392Y355751D01*
X876392Y355752D01*
X876387Y355769D01*
X876381Y355787D01*
X876381Y355788D01*
X876381Y355789D01*
X876379Y355807D01*
X876377Y355825D01*
X876377Y355826D01*
X876377Y355828D01*
X876377Y355906D01*
X876377Y357865D01*
X876375Y357871D01*
X876368Y357873D01*
X876368Y357873D01*
X875600Y357873D01*
X875600Y357873D01*
X875594Y357871D01*
X875591Y357865D01*
X875591Y355906D01*
X875592Y355829D01*
X875592Y355827D01*
X875592Y355825D01*
X875590Y355808D01*
X875588Y355790D01*
X875588Y355788D01*
X875588Y355787D01*
X875582Y355770D01*
X875577Y355753D01*
X875576Y355751D01*
X875576Y355750D01*
X875515Y355606D01*
X875514Y355605D01*
X875514Y355603D01*
X875505Y355588D01*
X875497Y355572D01*
X875496Y355571D01*
X875495Y355569D01*
X875483Y355556D01*
X875472Y355542D01*
X875471Y355541D01*
X875469Y355540D01*
X875356Y355432D01*
X875355Y355431D01*
X875354Y355430D01*
X875340Y355420D01*
X875326Y355409D01*
X875324Y355408D01*
X875323Y355407D01*
X875307Y355399D01*
X875291Y355391D01*
X875290Y355391D01*
X875288Y355390D01*
X875142Y355336D01*
X875140Y355336D01*
X875139Y355335D01*
X875121Y355331D01*
X875104Y355326D01*
X875103Y355326D01*
X875101Y355326D01*
X875083Y355325D01*
X875065Y355324D01*
X875064Y355324D01*
X875062Y355324D01*
X874985Y355329D01*
X874237Y355365D01*
X874225Y355367D01*
X874212Y355368D01*
X872734Y355624D01*
X872723Y355627D01*
X872711Y355630D01*
X871275Y356065D01*
X871264Y356069D01*
X871252Y356073D01*
X869880Y356681D01*
X869870Y356687D01*
X869859Y356692D01*
X868572Y357463D01*
X868562Y357471D01*
X868552Y357477D01*
X867369Y358400D01*
X867360Y358408D01*
X867351Y358416D01*
X866290Y359477D01*
X866282Y359486D01*
X866274Y359495D01*
X865351Y360678D01*
X865345Y360688D01*
X865337Y360698D01*
X864566Y361985D01*
X864561Y361996D01*
X864555Y362006D01*
X863947Y363378D01*
X863943Y363390D01*
X863939Y363401D01*
X863504Y364837D01*
X863501Y364848D01*
X863498Y364860D01*
X863242Y366338D01*
X863241Y366351D01*
X863239Y366363D01*
X863203Y367112D01*
Y367112D01*
X863199Y367189D01*
X863199Y367191D01*
X863199Y367192D01*
X863200Y367210D01*
X863201Y367228D01*
X863201Y367229D01*
X863201Y367231D01*
X863206Y367249D01*
X863210Y367266D01*
X863211Y367267D01*
X863211Y367268D01*
X863265Y367414D01*
X863266Y367415D01*
X863266Y367416D01*
X863274Y367432D01*
X863282Y367448D01*
X863283Y367449D01*
X863284Y367451D01*
X863295Y367465D01*
X863306Y367479D01*
X863307Y367480D01*
X863308Y367481D01*
X863415Y367594D01*
X863416Y367594D01*
X863416Y367595D01*
X863430Y367607D01*
X863444Y367619D01*
X863445Y367619D01*
X863446Y367620D01*
X863463Y367629D01*
X863478Y367638D01*
X863479Y367638D01*
X863480Y367639D01*
X863623Y367700D01*
X863624Y367700D01*
X863625Y367701D01*
X863642Y367706D01*
X863660Y367712D01*
X863661Y367712D01*
X863662Y367712D01*
X863680Y367714D01*
X863698Y367716D01*
X863700Y367716D01*
X863701Y367716D01*
X863778Y367716D01*
X863778Y367716D01*
X865746Y367718D01*
X865747Y367718D01*
X865747Y367719D01*
X865747Y367721D01*
X865747Y368494D01*
X865744Y368500D01*
X865738Y368503D01*
X865734Y368503D01*
X863780Y368503D01*
X863702D01*
X863700Y368503D01*
X863699Y368503D01*
X863681Y368505D01*
X863663Y368507D01*
X863662Y368507D01*
X863661Y368507D01*
X863643Y368513D01*
X863626Y368518D01*
X863625Y368519D01*
X863624Y368519D01*
X863480Y368580D01*
X863479Y368581D01*
X863478Y368581D01*
X863462Y368590D01*
X863447Y368599D01*
X863446Y368600D01*
X863445Y368600D01*
X863430Y368613D01*
X863417Y368624D01*
X863416Y368625D01*
X863415Y368626D01*
X863308Y368739D01*
X863307Y368740D01*
X863306Y368740D01*
X863295Y368755D01*
X863284Y368769D01*
X863283Y368770D01*
X863282Y368771D01*
X863274Y368788D01*
X863266Y368804D01*
X863266Y368805D01*
X863266Y368806D01*
X863211Y368952D01*
X863211Y368953D01*
X863210Y368954D01*
X863206Y368972D01*
X863201Y368990D01*
X863201Y368991D01*
X863201Y368992D01*
X863200Y369010D01*
X863199Y369028D01*
X863199Y369029D01*
X863199Y369031D01*
X863203Y369109D01*
D01*
Y369109D01*
X863239Y369858D01*
X863241Y369870D01*
X863242Y369882D01*
X863498Y371360D01*
X863501Y371372D01*
X863504Y371384D01*
X863939Y372819D01*
X863944Y372831D01*
X863947Y372842D01*
X864555Y374214D01*
X864561Y374224D01*
X864566Y374235D01*
X865338Y375522D01*
X865345Y375532D01*
X865351Y375542D01*
X866274Y376725D01*
X866283Y376734D01*
X866290Y376743D01*
X867351Y377804D01*
X867361Y377812D01*
X867369Y377820D01*
X868552Y378743D01*
X868563Y378749D01*
X868572Y378757D01*
X869859Y379528D01*
X869870Y379533D01*
X869881Y379539D01*
X871252Y380147D01*
X871264Y380150D01*
X871275Y380155D01*
X872711Y380590D01*
X872723Y380592D01*
X872735Y380596D01*
X874213Y380852D01*
X874225Y380853D01*
X874237Y380854D01*
X874982Y380891D01*
X874986Y380891D01*
X875064Y380895D01*
X875065Y380895D01*
X875066Y380895D01*
X875084Y380894D01*
D02*
G37*
D47*
X141732Y112795D02*
D03*
X139764D02*
D03*
X143724D02*
D03*
X139764Y123425D02*
D03*
X141732D02*
D03*
X143701D02*
D03*
D48*
X136417Y116118D02*
D03*
Y118110D02*
D03*
X147047Y120079D02*
D03*
Y118110D02*
D03*
Y116142D02*
D03*
X136417Y120079D02*
D03*
D52*
X63779Y46260D02*
D03*
Y52165D02*
D03*
X116929Y44291D02*
D03*
Y50197D02*
D03*
X64192Y100197D02*
D03*
Y94291D02*
D03*
X74803Y100197D02*
D03*
Y94291D02*
D03*
X40157Y100197D02*
D03*
Y94291D02*
D03*
X107165D02*
D03*
Y100197D02*
D03*
X442913Y208858D02*
D03*
Y202953D02*
D03*
X113858Y184055D02*
D03*
Y178150D02*
D03*
X464567Y280512D02*
D03*
Y274606D02*
D03*
X482283Y275001D02*
D03*
Y280906D02*
D03*
X455905Y294685D02*
D03*
Y288779D02*
D03*
X444882Y294685D02*
D03*
Y288779D02*
D03*
X499016Y222441D02*
D03*
Y216535D02*
D03*
X492126D02*
D03*
Y222441D02*
D03*
X485236Y216535D02*
D03*
Y222441D02*
D03*
X478346Y216535D02*
D03*
Y222441D02*
D03*
X421260Y188976D02*
D03*
Y194882D02*
D03*
X466535Y202953D02*
D03*
Y208858D02*
D03*
X458661Y202953D02*
D03*
Y208858D02*
D03*
D53*
X63779Y39173D02*
D03*
Y33268D02*
D03*
X110630Y44291D02*
D03*
Y50197D02*
D03*
X64173Y80610D02*
D03*
Y86516D02*
D03*
X102362Y184055D02*
D03*
Y178150D02*
D03*
X157480Y136811D02*
D03*
Y130905D02*
D03*
X420276Y246457D02*
D03*
Y252362D02*
D03*
X798425Y65748D02*
D03*
Y71654D02*
D03*
Y105118D02*
D03*
Y111024D02*
D03*
Y144488D02*
D03*
Y150394D02*
D03*
X815748Y166535D02*
D03*
Y160630D02*
D03*
Y127165D02*
D03*
Y121260D02*
D03*
Y87795D02*
D03*
Y81890D02*
D03*
X877165Y65748D02*
D03*
Y71654D02*
D03*
Y105118D02*
D03*
Y111024D02*
D03*
Y144488D02*
D03*
Y150394D02*
D03*
X91141Y170312D02*
D03*
Y164406D02*
D03*
X110067D02*
D03*
Y170312D02*
D03*
X129921Y170276D02*
D03*
Y164370D02*
D03*
X96457Y178150D02*
D03*
Y184055D02*
D03*
X108268Y178150D02*
D03*
Y184055D02*
D03*
X121260Y190945D02*
D03*
Y196850D02*
D03*
X129921Y114173D02*
D03*
Y120079D02*
D03*
X152559Y130905D02*
D03*
Y136811D02*
D03*
X159449Y112205D02*
D03*
Y118110D02*
D03*
X153543Y112205D02*
D03*
Y118110D02*
D03*
X162402Y136811D02*
D03*
Y130905D02*
D03*
X415551Y252362D02*
D03*
Y246457D02*
D03*
X425000D02*
D03*
Y252362D02*
D03*
X450787Y202953D02*
D03*
Y208858D02*
D03*
D54*
X69685Y100197D02*
D03*
Y94291D02*
D03*
X45276Y100197D02*
D03*
Y94291D02*
D03*
X101673D02*
D03*
Y100197D02*
D03*
X455905Y280512D02*
D03*
Y274606D02*
D03*
X444882D02*
D03*
Y280512D02*
D03*
D55*
X238976Y111221D02*
D03*
Y117126D02*
D03*
X261024D02*
D03*
Y111221D02*
D03*
X372835D02*
D03*
Y117126D02*
D03*
X394882D02*
D03*
Y111221D02*
D03*
X380709Y161614D02*
D03*
Y167520D02*
D03*
X402756D02*
D03*
Y161614D02*
D03*
X439764D02*
D03*
Y167520D02*
D03*
X461811D02*
D03*
Y161614D02*
D03*
X498819D02*
D03*
Y167520D02*
D03*
X520866D02*
D03*
Y161614D02*
D03*
X506693Y111221D02*
D03*
Y117126D02*
D03*
X528740D02*
D03*
Y111221D02*
D03*
X640551D02*
D03*
Y117126D02*
D03*
X662598D02*
D03*
Y111221D02*
D03*
X790551Y351378D02*
D03*
Y345472D02*
D03*
X768504D02*
D03*
Y351378D02*
D03*
X570079Y351378D02*
D03*
Y345472D02*
D03*
X548032D02*
D03*
Y351378D02*
D03*
X349606D02*
D03*
Y345472D02*
D03*
X327559D02*
D03*
Y351378D02*
D03*
X129134D02*
D03*
Y345472D02*
D03*
X107087D02*
D03*
Y351378D02*
D03*
D56*
X790354Y65748D02*
D03*
X784449D02*
D03*
Y87795D02*
D03*
X790354D02*
D03*
Y105118D02*
D03*
X784449D02*
D03*
Y127165D02*
D03*
X790354D02*
D03*
Y144488D02*
D03*
X784449D02*
D03*
Y166535D02*
D03*
X790354D02*
D03*
X823819D02*
D03*
X829724D02*
D03*
Y144488D02*
D03*
X823819D02*
D03*
Y127165D02*
D03*
X829724D02*
D03*
Y105118D02*
D03*
X823819D02*
D03*
Y87795D02*
D03*
X829724D02*
D03*
Y65748D02*
D03*
X823819D02*
D03*
X869094D02*
D03*
X863189D02*
D03*
Y87795D02*
D03*
X869094D02*
D03*
Y105118D02*
D03*
X863189D02*
D03*
Y127165D02*
D03*
X869094D02*
D03*
Y144488D02*
D03*
X863189D02*
D03*
Y166535D02*
D03*
X869094D02*
D03*
D57*
X76772Y50197D02*
D03*
X82677D02*
D03*
X92520D02*
D03*
X98425D02*
D03*
X76772Y43898D02*
D03*
X82677D02*
D03*
X84646Y50197D02*
D03*
Y43898D02*
D03*
X86614Y50197D02*
D03*
Y43898D02*
D03*
X88583D02*
D03*
Y50197D02*
D03*
X90551Y43898D02*
D03*
Y50197D02*
D03*
X92520Y43898D02*
D03*
X98425D02*
D03*
D58*
X79921Y86417D02*
D03*
Y84449D02*
D03*
Y82480D02*
D03*
Y80512D02*
D03*
X91339D02*
D03*
Y82480D02*
D03*
Y84449D02*
D03*
Y86417D02*
D03*
D59*
X82677Y77756D02*
D03*
X84646D02*
D03*
X88583D02*
D03*
Y89173D02*
D03*
X84646D02*
D03*
X82677D02*
D03*
X86614Y77756D02*
D03*
X86610Y89173D02*
D03*
D60*
X85630Y83465D02*
D03*
D61*
X101748Y84449D02*
D03*
X60630Y111811D02*
D03*
X57874Y86614D02*
D03*
X88516Y99804D02*
D03*
X84646Y103543D02*
D03*
X80709Y99803D02*
D03*
X93307Y102756D02*
D03*
X473801Y242815D02*
D03*
X470472Y240256D02*
D03*
D62*
X17913Y375787D02*
D03*
Y360433D02*
D03*
X33268D02*
D03*
Y375787D02*
D03*
X443110D02*
D03*
Y360433D02*
D03*
X458465D02*
D03*
Y375787D02*
D03*
X868307Y33268D02*
D03*
Y17913D02*
D03*
X883661D02*
D03*
Y33268D02*
D03*
X868307Y375787D02*
D03*
Y360433D02*
D03*
X883661D02*
D03*
Y375787D02*
D03*
X17913Y33268D02*
D03*
Y17913D02*
D03*
X33268D02*
D03*
Y33268D02*
D03*
X443110D02*
D03*
Y17913D02*
D03*
X458465D02*
D03*
Y33268D02*
D03*
D63*
X104274Y170785D02*
D03*
X51122Y93792D02*
D03*
X58327Y74712D02*
D03*
D64*
X97069Y170785D02*
D03*
X100672Y163882D02*
D03*
X54724Y100696D02*
D03*
X58327Y93792D02*
D03*
X54724Y67808D02*
D03*
X51122Y74712D02*
D03*
D65*
X101673Y80453D02*
D03*
X105413D02*
D03*
X101673Y87992D02*
D03*
X105413D02*
D03*
D66*
X412402Y279528D02*
D03*
X406496D02*
D03*
X148032Y204429D02*
D03*
X153937D02*
D03*
X412402Y272638D02*
D03*
X406496D02*
D03*
X489173Y257874D02*
D03*
X495079D02*
D03*
X412402Y265748D02*
D03*
X406496D02*
D03*
X489173Y251969D02*
D03*
X495079D02*
D03*
Y246457D02*
D03*
X489173D02*
D03*
X495079Y240945D02*
D03*
X489173D02*
D03*
X387629Y191535D02*
D03*
X393535D02*
D03*
Y222441D02*
D03*
X387629D02*
D03*
D67*
X147047Y198562D02*
D03*
X150788Y190610D02*
D03*
X154528Y198562D02*
D03*
D68*
X142126Y33465D02*
D03*
Y84646D02*
D03*
D69*
X150788Y181397D02*
D03*
X137795D02*
D03*
D70*
X464075Y227461D02*
D03*
D71*
Y230020D02*
D03*
Y232579D02*
D03*
Y235138D02*
D03*
Y237697D02*
D03*
Y240256D02*
D03*
Y242815D02*
D03*
Y245374D02*
D03*
Y247933D02*
D03*
Y250492D02*
D03*
Y253051D02*
D03*
Y255610D02*
D03*
Y258169D02*
D03*
Y260728D02*
D03*
X437499D02*
D03*
Y258169D02*
D03*
Y255610D02*
D03*
Y253051D02*
D03*
Y250492D02*
D03*
Y247933D02*
D03*
Y245374D02*
D03*
Y242815D02*
D03*
Y240256D02*
D03*
Y237697D02*
D03*
Y235138D02*
D03*
Y232579D02*
D03*
Y230020D02*
D03*
Y227461D02*
D03*
D72*
X146260Y137795D02*
D03*
D73*
X143701D02*
D03*
X141142D02*
D03*
X146260Y129921D02*
D03*
X141142D02*
D03*
D74*
X23622Y334646D02*
D03*
X826772Y19685D02*
D03*
Y374016D02*
D03*
X23622Y59055D02*
D03*
D75*
X121221Y177362D02*
D03*
X129174Y181102D02*
D03*
X121221Y184842D02*
D03*
D76*
X141732Y118110D02*
D03*
D77*
X84055Y66801D02*
D03*
Y63060D02*
D03*
X68898Y85335D02*
D03*
Y81595D02*
D03*
X72835Y85335D02*
D03*
Y81595D02*
D03*
D78*
X238976Y103150D02*
D03*
X244882D02*
D03*
X372835D02*
D03*
X378740D02*
D03*
X380709Y153543D02*
D03*
X386614D02*
D03*
X439764D02*
D03*
X445669D02*
D03*
X498819D02*
D03*
X504724D02*
D03*
X506693Y103150D02*
D03*
X512598D02*
D03*
X640551D02*
D03*
X646457D02*
D03*
X790551Y359449D02*
D03*
X784646D02*
D03*
X570079D02*
D03*
X564173D02*
D03*
X349606D02*
D03*
X343701D02*
D03*
X129134D02*
D03*
X123228D02*
D03*
X406496Y285433D02*
D03*
X412402D02*
D03*
X153543Y124016D02*
D03*
X159449D02*
D03*
X387629Y216535D02*
D03*
X393535D02*
D03*
D79*
X767717Y141732D02*
D03*
Y129921D02*
D03*
X744095Y141732D02*
D03*
Y129921D02*
D03*
X228346Y141614D02*
D03*
Y129803D02*
D03*
X588583Y359449D02*
D03*
Y371260D02*
D03*
X145067Y359449D02*
D03*
Y371260D02*
D03*
X405905Y255512D02*
D03*
Y243701D02*
D03*
D80*
X450787Y219291D02*
D03*
X435039D02*
D03*
X442913D02*
D03*
X458661D02*
D03*
D81*
X466535D02*
D03*
D82*
X72835Y47047D02*
D03*
D83*
X97047Y38583D02*
D03*
X78150D02*
D03*
X97047Y55512D02*
D03*
X78150D02*
D03*
D84*
X102362Y47244D02*
D03*
D85*
X852362Y381890D02*
D03*
Y11811D02*
D03*
X49213D02*
D03*
Y381890D02*
D03*
D86*
X25591Y368110D02*
D03*
X450787D02*
D03*
X875984Y25591D02*
D03*
Y368110D02*
D03*
X25591Y25591D02*
D03*
X450787D02*
D03*
M02*
