G04*
G04 #@! TF.GenerationSoftware,Altium Limited,Altium Designer,24.5.1 (21)*
G04*
G04 Layer_Color=12566272*
%FSLAX25Y25*%
%MOIN*%
G70*
G04*
G04 #@! TF.SameCoordinates,89CE71C2-79D1-448F-8852-A8AA6FA4BD66*
G04*
G04*
G04 #@! TF.FilePolarity,Positive*
G04*
G01*
G75*
%ADD10C,0.00787*%
%ADD14C,0.00394*%
%ADD15C,0.00500*%
%ADD128C,0.00500*%
%ADD129C,0.00197*%
%ADD130R,0.03150X0.00827*%
%ADD131R,0.01968X0.01968*%
%ADD132R,0.03937X0.03937*%
%ADD133R,0.06299X0.06299*%
%ADD134R,0.03937X0.03937*%
%ADD135R,0.03937X0.03937*%
%ADD136R,0.02953X0.02953*%
%ADD137R,0.03937X0.03937*%
%ADD138R,0.11024X0.01575*%
D10*
X106380Y162609D02*
Y172058D01*
X94963Y162609D02*
X106380D01*
X94963D02*
Y172058D01*
X106380D01*
X49016Y92520D02*
X60433D01*
Y101969D01*
X49016D02*
X60433D01*
X49016Y92520D02*
Y101969D01*
Y75984D02*
X60433D01*
X49016Y66535D02*
Y75984D01*
Y66535D02*
X60433D01*
Y75984D01*
X142126Y31496D02*
Y35433D01*
X140157Y33465D02*
X144095D01*
X137402Y177069D02*
X141339D01*
X139370Y175101D02*
Y179038D01*
D14*
X469391Y219291D02*
X469219Y220268D01*
X468723Y221127D01*
X467963Y221765D01*
X467031Y222104D01*
X466040D01*
X465107Y221765D01*
X464348Y221127D01*
X463852Y220268D01*
X463679Y219291D01*
X463852Y218315D01*
X464348Y217456D01*
X465107Y216818D01*
X466040Y216479D01*
X467031D01*
X467963Y216818D01*
X468723Y217456D01*
X469219Y218315D01*
X469391Y219291D01*
X240670Y111221D02*
X240401Y112136D01*
X239680Y112761D01*
X238735Y112897D01*
X237867Y112500D01*
X237352Y111698D01*
Y110743D01*
X237867Y109941D01*
X238735Y109544D01*
X239680Y109680D01*
X240401Y110305D01*
X240670Y111221D01*
X374528D02*
X374259Y112136D01*
X373538Y112761D01*
X372594Y112897D01*
X371726Y112500D01*
X371210Y111698D01*
Y110743D01*
X371726Y109941D01*
X372594Y109544D01*
X373538Y109680D01*
X374259Y110305D01*
X374528Y111221D01*
X382402Y161614D02*
X382133Y162530D01*
X381412Y163154D01*
X380468Y163290D01*
X379600Y162894D01*
X379084Y162091D01*
Y161137D01*
X379600Y160334D01*
X380468Y159938D01*
X381412Y160074D01*
X382133Y160699D01*
X382402Y161614D01*
X441457D02*
X441188Y162530D01*
X440467Y163154D01*
X439523Y163290D01*
X438655Y162894D01*
X438139Y162091D01*
Y161137D01*
X438655Y160334D01*
X439523Y159938D01*
X440467Y160074D01*
X441188Y160699D01*
X441457Y161614D01*
X500512D02*
X500244Y162530D01*
X499522Y163154D01*
X498578Y163290D01*
X497710Y162894D01*
X497194Y162091D01*
Y161137D01*
X497710Y160334D01*
X498578Y159938D01*
X499522Y160074D01*
X500244Y160699D01*
X500512Y161614D01*
X508386Y111221D02*
X508117Y112136D01*
X507396Y112761D01*
X506452Y112897D01*
X505584Y112500D01*
X505068Y111698D01*
Y110743D01*
X505584Y109941D01*
X506452Y109544D01*
X507396Y109680D01*
X508117Y110305D01*
X508386Y111221D01*
X642244D02*
X641976Y112136D01*
X641255Y112761D01*
X640310Y112897D01*
X639442Y112500D01*
X638926Y111698D01*
Y110743D01*
X639442Y109941D01*
X640310Y109544D01*
X641255Y109680D01*
X641976Y110305D01*
X642244Y111221D01*
X792048Y65748D02*
X791779Y66663D01*
X791058Y67288D01*
X790113Y67424D01*
X789245Y67028D01*
X788730Y66225D01*
Y65271D01*
X789245Y64468D01*
X790113Y64072D01*
X791058Y64208D01*
X791779Y64833D01*
X792048Y65748D01*
Y105118D02*
X791779Y106034D01*
X791058Y106658D01*
X790113Y106794D01*
X789245Y106398D01*
X788730Y105595D01*
Y104641D01*
X789245Y103838D01*
X790113Y103442D01*
X791058Y103578D01*
X791779Y104203D01*
X792048Y105118D01*
Y144488D02*
X791779Y145404D01*
X791058Y146028D01*
X790113Y146164D01*
X789245Y145768D01*
X788730Y144965D01*
Y144011D01*
X789245Y143208D01*
X790113Y142812D01*
X791058Y142948D01*
X791779Y143573D01*
X792048Y144488D01*
X825512Y166535D02*
X825243Y167451D01*
X824522Y168076D01*
X823578Y168212D01*
X822710Y167815D01*
X822194Y167013D01*
Y166058D01*
X822710Y165256D01*
X823578Y164859D01*
X824522Y164995D01*
X825243Y165620D01*
X825512Y166535D01*
Y127165D02*
X825243Y128081D01*
X824522Y128706D01*
X823578Y128841D01*
X822710Y128445D01*
X822194Y127642D01*
Y126688D01*
X822710Y125886D01*
X823578Y125489D01*
X824522Y125625D01*
X825243Y126250D01*
X825512Y127165D01*
Y87795D02*
X825243Y88711D01*
X824522Y89336D01*
X823578Y89471D01*
X822710Y89075D01*
X822194Y88272D01*
Y87318D01*
X822710Y86515D01*
X823578Y86119D01*
X824522Y86255D01*
X825243Y86880D01*
X825512Y87795D01*
X870788Y65748D02*
X870519Y66663D01*
X869798Y67288D01*
X868853Y67424D01*
X867986Y67028D01*
X867470Y66225D01*
Y65271D01*
X867986Y64468D01*
X868853Y64072D01*
X869798Y64208D01*
X870519Y64833D01*
X870788Y65748D01*
Y105118D02*
X870519Y106034D01*
X869798Y106658D01*
X868853Y106794D01*
X867986Y106398D01*
X867470Y105595D01*
Y104641D01*
X867986Y103838D01*
X868853Y103442D01*
X869798Y103578D01*
X870519Y104203D01*
X870788Y105118D01*
Y144488D02*
X870519Y145404D01*
X869798Y146028D01*
X868853Y146164D01*
X867986Y145768D01*
X867470Y144965D01*
Y144011D01*
X867986Y143208D01*
X868853Y142812D01*
X869798Y142948D01*
X870519Y143573D01*
X870788Y144488D01*
X792244Y351378D02*
X791976Y352293D01*
X791255Y352918D01*
X790310Y353054D01*
X789442Y352658D01*
X788926Y351855D01*
Y350901D01*
X789442Y350098D01*
X790310Y349702D01*
X791255Y349838D01*
X791976Y350462D01*
X792244Y351378D01*
X571772Y351378D02*
X571503Y352293D01*
X570782Y352918D01*
X569838Y353054D01*
X568970Y352658D01*
X568454Y351855D01*
Y350901D01*
X568970Y350098D01*
X569838Y349702D01*
X570782Y349838D01*
X571503Y350463D01*
X571772Y351378D01*
X351300D02*
X351031Y352293D01*
X350310Y352918D01*
X349365Y353054D01*
X348497Y352658D01*
X347982Y351855D01*
Y350901D01*
X348497Y350098D01*
X349365Y349702D01*
X350310Y349838D01*
X351031Y350463D01*
X351300Y351378D01*
X130827D02*
X130558Y352293D01*
X129837Y352918D01*
X128893Y353054D01*
X128025Y352658D01*
X127509Y351855D01*
Y350901D01*
X128025Y350098D01*
X128893Y349702D01*
X129837Y349838D01*
X130558Y350463D01*
X130827Y351378D01*
X155906Y197342D02*
X155461Y198265D01*
X154462Y198493D01*
X153661Y197854D01*
Y196829D01*
X154462Y196191D01*
X155461Y196418D01*
X155906Y197342D01*
X123622Y185039D02*
X123178Y185963D01*
X122178Y186191D01*
X121377Y185552D01*
Y184527D01*
X122178Y183888D01*
X123178Y184116D01*
X123622Y185039D01*
X68701Y98228D02*
X70669D01*
X68701Y96260D02*
X69685Y98228D01*
X70669Y96260D01*
X69685Y95473D02*
Y99016D01*
X68898Y91535D02*
X70472D01*
X69685Y90748D02*
Y92323D01*
Y102165D02*
Y103740D01*
X68701Y96260D02*
X70669D01*
X68111Y100433D02*
X71260D01*
Y94055D02*
Y100433D01*
X68111Y94055D02*
X71260D01*
X68111D02*
Y100433D01*
X431299Y223031D02*
X470276D01*
Y215551D02*
Y223031D01*
X431299Y215551D02*
X470276D01*
X431299D02*
Y223031D01*
X260669Y108661D02*
Y119685D01*
X239331Y108661D02*
Y119685D01*
X260669Y119685D01*
X239331Y108661D02*
X260669D01*
X256299D02*
Y119685D01*
X243701Y108661D02*
Y119685D01*
X394528Y108661D02*
Y119685D01*
X373189Y108661D02*
Y119685D01*
X394528Y119685D01*
X373189Y108661D02*
X394528D01*
X390158D02*
Y119685D01*
X377559Y108661D02*
Y119685D01*
X402402Y159055D02*
Y170079D01*
X381063Y159055D02*
Y170078D01*
X402402Y170079D01*
X381063Y159055D02*
X402402D01*
X398031D02*
Y170079D01*
X385433Y159055D02*
Y170079D01*
X461457Y159055D02*
Y170079D01*
X440118Y159055D02*
Y170078D01*
X461457Y170079D01*
X440118Y159055D02*
X461457D01*
X457087D02*
Y170079D01*
X444488Y159055D02*
Y170079D01*
X520512Y159055D02*
Y170079D01*
X499173Y159055D02*
Y170078D01*
X520512Y170079D01*
X499173Y159055D02*
X520512D01*
X516142D02*
Y170079D01*
X503543Y159055D02*
Y170079D01*
X528386Y108661D02*
Y119685D01*
X507047Y108661D02*
Y119685D01*
X528386Y119685D01*
X507047Y108661D02*
X528386D01*
X524016D02*
Y119685D01*
X511417Y108661D02*
Y119685D01*
X662244Y108661D02*
Y119685D01*
X640906Y108661D02*
Y119685D01*
X662244Y119685D01*
X640906Y108661D02*
X662244D01*
X657874D02*
Y119685D01*
X645276Y108661D02*
Y119685D01*
X781890Y87441D02*
X792913D01*
X781890Y66102D02*
X792913D01*
X781890Y87441D02*
X781890Y66102D01*
X792913D02*
Y87441D01*
X781890Y83071D02*
X792913D01*
X781890Y70473D02*
X792913D01*
X781890Y126811D02*
X792913D01*
X781890Y105473D02*
X792913D01*
X781890Y126811D02*
X781890Y105473D01*
X792913D02*
Y126811D01*
X781890Y122441D02*
X792913D01*
X781890Y109843D02*
X792913D01*
X781890Y166181D02*
X792913D01*
X781890Y144843D02*
X792913D01*
X781890Y166181D02*
X781890Y144843D01*
X792913D02*
Y166181D01*
X781890Y161811D02*
X792913D01*
X781890Y149213D02*
X792913D01*
X821260Y144843D02*
X832283D01*
X821260Y166181D02*
X832283D01*
X832283Y144843D01*
X821260D02*
Y166181D01*
Y149213D02*
X832283D01*
X821260Y161811D02*
X832283D01*
X821260Y105473D02*
X832283D01*
X821260Y126811D02*
X832283D01*
X832283Y105473D01*
X821260D02*
Y126811D01*
Y109843D02*
X832283D01*
X821260Y122441D02*
X832283D01*
X821260Y66102D02*
X832283D01*
X821260Y87441D02*
X832283D01*
X832283Y66102D01*
X821260D02*
Y87441D01*
Y70473D02*
X832283D01*
X821260Y83071D02*
X832283D01*
X860630Y87441D02*
X871654D01*
X860630Y66102D02*
X871654D01*
X860630Y87441D02*
X860630Y66102D01*
X871654D02*
Y87441D01*
X860630Y83071D02*
X871654D01*
X860630Y70473D02*
X871654D01*
X860630Y126811D02*
X871654D01*
X860630Y105473D02*
X871654D01*
X860630Y126811D02*
X860630Y105473D01*
X871654D02*
Y126811D01*
X860630Y122441D02*
X871654D01*
X860630Y109843D02*
X871654D01*
X860630Y166181D02*
X871654D01*
X860630Y144843D02*
X871654D01*
X860630Y166181D02*
X860630Y144843D01*
X871654D02*
Y166181D01*
X860630Y161811D02*
X871654D01*
X860630Y149213D02*
X871654D01*
X768858Y342913D02*
Y353937D01*
X790197Y342914D02*
Y353937D01*
X768858Y342913D02*
X790197Y342914D01*
X768858Y353937D02*
X790197D01*
X773228Y342913D02*
Y353937D01*
X785827Y342913D02*
Y353937D01*
X548386Y342913D02*
Y353937D01*
X569724Y342914D02*
Y353937D01*
X548386Y342913D02*
X569724Y342914D01*
X548386Y353937D02*
X569724D01*
X552756Y342913D02*
Y353937D01*
X565354Y342913D02*
Y353937D01*
X327913Y342913D02*
Y353937D01*
X349252Y342914D02*
Y353937D01*
X327913Y342913D02*
X349252Y342914D01*
X327913Y353937D02*
X349252D01*
X332283Y342913D02*
Y353937D01*
X344882Y342913D02*
Y353937D01*
X107441Y342913D02*
Y353937D01*
X128779Y342914D02*
Y353937D01*
X107441Y342913D02*
X128779Y342914D01*
X107441Y353937D02*
X128779D01*
X111811Y342913D02*
Y353937D01*
X124409Y342913D02*
Y353937D01*
X79530Y77476D02*
X91535D01*
Y89453D01*
X79530D02*
X91535D01*
X79530Y77476D02*
Y89453D01*
X144882Y199448D02*
X156693D01*
Y189605D02*
Y199448D01*
X144882Y189605D02*
X156693D01*
X144882D02*
Y199448D01*
X159843Y29528D02*
Y88583D01*
X124409Y29528D02*
Y88583D01*
X159843D01*
X124409Y29528D02*
X159843D01*
X135861Y143405D02*
X152756D01*
X135861D02*
Y185925D01*
X152756D01*
Y143405D02*
Y185925D01*
X435386Y224016D02*
Y264173D01*
Y224016D02*
X466188D01*
Y264173D01*
X435386D02*
X466188D01*
X139370Y138583D02*
X139370Y129134D01*
X148031D01*
Y138583D01*
X139370D02*
X148031D01*
X44291Y98228D02*
X46260D01*
X44291Y96260D02*
X45276Y98228D01*
X46260Y96260D01*
X45276Y95473D02*
Y99016D01*
X44488Y91535D02*
X46063D01*
X45276Y90748D02*
Y92323D01*
Y102165D02*
Y103740D01*
X44291Y96260D02*
X46260D01*
X43701Y100433D02*
X46850D01*
Y94055D02*
Y100433D01*
X43701Y94055D02*
X46850D01*
X43701D02*
Y100433D01*
X100099Y94055D02*
Y100433D01*
Y94055D02*
X103248D01*
Y100433D01*
X100099D02*
X103248D01*
X100689Y96260D02*
X102657D01*
X101673Y102165D02*
Y103740D01*
Y90748D02*
Y92323D01*
X100886Y91535D02*
X102461D01*
X101673Y95473D02*
Y99016D01*
Y98228D02*
X102657Y96260D01*
X100689D02*
X101673Y98228D01*
X100689D02*
X102657D01*
X454921Y278543D02*
X456890D01*
X454921Y276575D02*
X455905Y278543D01*
X456890Y276575D01*
X455905Y275787D02*
Y279331D01*
X455118Y271850D02*
X456693D01*
X455905Y271063D02*
Y272638D01*
Y282480D02*
Y284055D01*
X454921Y276575D02*
X456890D01*
X454331Y280748D02*
X457480D01*
Y274370D02*
Y280748D01*
X454331Y274370D02*
X457480D01*
X454331D02*
Y280748D01*
X443307Y274370D02*
Y280748D01*
Y274370D02*
X446457D01*
Y280748D01*
X443307D02*
X446457D01*
X443898Y276575D02*
X445866D01*
X444882Y282480D02*
Y284055D01*
Y271063D02*
Y272638D01*
X444095Y271850D02*
X445669D01*
X444882Y275787D02*
Y279331D01*
Y278543D02*
X445866Y276575D01*
X443898D02*
X444882Y278543D01*
X443898D02*
X445866D01*
X120335Y175196D02*
Y187008D01*
X130178D01*
Y175196D02*
Y187008D01*
X120335Y175196D02*
X130178D01*
X147638Y112205D02*
Y124016D01*
X135827Y112205D02*
X147638D01*
X135827D02*
Y124016D01*
X147638D01*
X767717Y129921D02*
Y131496D01*
X766929Y139764D02*
X768504D01*
X767717Y138976D02*
Y140551D01*
X762205Y128937D02*
X773228D01*
Y142717D01*
X762205D02*
X773228D01*
X762205Y128937D02*
Y142717D01*
X744095Y129921D02*
Y131496D01*
X743307Y139764D02*
X744882D01*
X744095Y138976D02*
Y140551D01*
X738583Y128937D02*
X749606D01*
Y142717D01*
X738583D02*
X749606D01*
X738583Y128937D02*
Y142717D01*
X228346Y129803D02*
Y131378D01*
X227559Y139646D02*
X229134D01*
X228346Y138858D02*
Y140433D01*
X222835Y128819D02*
X233858D01*
Y142598D01*
X222835D02*
X233858D01*
X222835Y128819D02*
Y142598D01*
X588583Y369685D02*
Y371260D01*
X587795Y361417D02*
X589370D01*
X588583Y360630D02*
Y362205D01*
X583071Y372244D02*
X594095D01*
X583071Y358465D02*
Y372244D01*
Y358465D02*
X594095D01*
Y372244D01*
X145067Y369685D02*
Y371260D01*
X144280Y361417D02*
X145854D01*
X145067Y360630D02*
Y362205D01*
X139556Y372244D02*
X150579D01*
X139556Y358465D02*
Y372244D01*
Y358465D02*
X150579D01*
Y372244D01*
X405905Y243701D02*
Y245276D01*
X405118Y253543D02*
X406693D01*
X405905Y252756D02*
Y254331D01*
X400394Y242717D02*
X411417D01*
Y256496D01*
X400394D02*
X411417D01*
X400394Y242717D02*
Y256496D01*
D15*
X105197Y38091D02*
Y56004D01*
X70000Y38091D02*
Y56004D01*
X105197D01*
X70000Y38091D02*
X105197D01*
D128*
X100827Y42717D02*
D03*
D129*
X103323Y84449D02*
X103022Y85374D01*
X102235Y85947D01*
X101261D01*
X100474Y85374D01*
X100173Y84449D01*
X100474Y83523D01*
X101261Y82951D01*
X102235D01*
X103022Y83523D01*
X103323Y84449D01*
X62205Y111811D02*
X61904Y112737D01*
X61117Y113309D01*
X60143D01*
X59356Y112737D01*
X59055Y111811D01*
X59356Y110885D01*
X60143Y110313D01*
X61117D01*
X61904Y110885D01*
X62205Y111811D01*
X59449Y86614D02*
X59148Y87540D01*
X58361Y88112D01*
X57387D01*
X56600Y87540D01*
X56299Y86614D01*
X56600Y85689D01*
X57387Y85116D01*
X58361D01*
X59148Y85689D01*
X59449Y86614D01*
X90091Y99804D02*
X89790Y100730D01*
X89003Y101302D01*
X88029D01*
X87242Y100730D01*
X86941Y99804D01*
X87242Y98878D01*
X88029Y98306D01*
X89003D01*
X89790Y98878D01*
X90091Y99804D01*
X86221Y103543D02*
X85920Y104469D01*
X85132Y105041D01*
X84159D01*
X83372Y104469D01*
X83071Y103543D01*
X83372Y102618D01*
X84159Y102046D01*
X85132D01*
X85920Y102618D01*
X86221Y103543D01*
X82284Y99803D02*
X81983Y100729D01*
X81195Y101301D01*
X80222D01*
X79435Y100729D01*
X79134Y99803D01*
X79435Y98878D01*
X80222Y98305D01*
X81195D01*
X81983Y98878D01*
X82284Y99803D01*
X94882Y102756D02*
X94581Y103682D01*
X93794Y104254D01*
X92821D01*
X92033Y103682D01*
X91732Y102756D01*
X92033Y101830D01*
X92821Y101258D01*
X93794D01*
X94581Y101830D01*
X94882Y102756D01*
X475376Y242815D02*
X475075Y243741D01*
X474287Y244313D01*
X473314D01*
X472527Y243741D01*
X472226Y242815D01*
X472527Y241889D01*
X473314Y241317D01*
X474287D01*
X475075Y241889D01*
X475376Y242815D01*
X472047Y240256D02*
X471746Y241182D01*
X470959Y241754D01*
X469986D01*
X469198Y241182D01*
X468898Y240256D01*
X469198Y239330D01*
X469986Y238758D01*
X470959D01*
X471746Y239330D01*
X472047Y240256D01*
X855512Y381890D02*
X855358Y382863D01*
X854910Y383741D01*
X854214Y384438D01*
X853335Y384885D01*
X852362Y385039D01*
X851389Y384885D01*
X850511Y384438D01*
X849814Y383741D01*
X849367Y382863D01*
X849213Y381890D01*
X849367Y380917D01*
X849814Y380038D01*
X850511Y379342D01*
X851389Y378894D01*
X852362Y378740D01*
X853335Y378894D01*
X854214Y379342D01*
X854910Y380038D01*
X855358Y380917D01*
X855512Y381890D01*
Y11811D02*
X855358Y12784D01*
X854910Y13662D01*
X854214Y14359D01*
X853335Y14807D01*
X852362Y14961D01*
X851389Y14807D01*
X850511Y14359D01*
X849814Y13662D01*
X849367Y12784D01*
X849213Y11811D01*
X849367Y10838D01*
X849814Y9960D01*
X850511Y9263D01*
X851389Y8816D01*
X852362Y8661D01*
X853335Y8816D01*
X854214Y9263D01*
X854910Y9960D01*
X855358Y10838D01*
X855512Y11811D01*
X52362D02*
X52208Y12784D01*
X51761Y13662D01*
X51064Y14359D01*
X50186Y14807D01*
X49213Y14961D01*
X48239Y14807D01*
X47361Y14359D01*
X46665Y13662D01*
X46217Y12784D01*
X46063Y11811D01*
X46217Y10838D01*
X46665Y9960D01*
X47361Y9263D01*
X48239Y8816D01*
X49213Y8661D01*
X50186Y8816D01*
X51064Y9263D01*
X51761Y9960D01*
X52208Y10838D01*
X52362Y11811D01*
Y381890D02*
X52208Y382863D01*
X51761Y383741D01*
X51064Y384438D01*
X50186Y384885D01*
X49213Y385039D01*
X48239Y384885D01*
X47361Y384438D01*
X46665Y383741D01*
X46217Y382863D01*
X46063Y381890D01*
X46217Y380917D01*
X46665Y380038D01*
X47361Y379342D01*
X48239Y378894D01*
X49213Y378740D01*
X50186Y378894D01*
X51064Y379342D01*
X51761Y380038D01*
X52208Y380917D01*
X52362Y381890D01*
X38189Y368110D02*
X38149Y369111D01*
X38030Y370106D01*
X37832Y371088D01*
X37557Y372051D01*
X37206Y372989D01*
X36781Y373897D01*
X36286Y374767D01*
X35724Y375596D01*
X35097Y376378D01*
X34410Y377107D01*
X33667Y377779D01*
X32874Y378390D01*
X32034Y378936D01*
X31153Y379414D01*
X30238Y379820D01*
X29293Y380153D01*
X28324Y380409D01*
X27338Y380587D01*
X26342Y380686D01*
X25340Y380706D01*
X24340Y380646D01*
X23348Y380507D01*
X22370Y380290D01*
X21413Y379996D01*
X20482Y379626D01*
X19583Y379184D01*
X18722Y378672D01*
X17905Y378093D01*
X17136Y377450D01*
X16420Y376749D01*
X15763Y375993D01*
X15168Y375187D01*
X14638Y374337D01*
X14178Y373447D01*
X13790Y372524D01*
X13477Y371572D01*
X13240Y370599D01*
X13082Y369610D01*
X13002Y368611D01*
Y367609D01*
X13082Y366611D01*
X13240Y365622D01*
X13477Y364648D01*
X13790Y363697D01*
X14178Y362773D01*
X14638Y361883D01*
X15168Y361033D01*
X15763Y360227D01*
X16420Y359471D01*
X17136Y358770D01*
X17905Y358128D01*
X18722Y357549D01*
X19583Y357036D01*
X20482Y356594D01*
X21413Y356225D01*
X22370Y355930D01*
X23348Y355713D01*
X24340Y355574D01*
X25340Y355514D01*
X26342Y355534D01*
X27338Y355634D01*
X28324Y355812D01*
X29293Y356068D01*
X30238Y356400D01*
X31153Y356806D01*
X32034Y357284D01*
X32874Y357830D01*
X33667Y358441D01*
X34410Y359114D01*
X35097Y359843D01*
X35724Y360624D01*
X36286Y361453D01*
X36781Y362324D01*
X37206Y363231D01*
X37557Y364170D01*
X37832Y365133D01*
X38030Y366115D01*
X38149Y367109D01*
X38189Y368110D01*
X33898D02*
X33837Y369111D01*
X33656Y370098D01*
X33358Y371056D01*
X32946Y371971D01*
X32427Y372829D01*
X31809Y373619D01*
X31099Y374328D01*
X30310Y374947D01*
X29451Y375466D01*
X28536Y375877D01*
X27579Y376176D01*
X26592Y376357D01*
X25591Y376417D01*
X24589Y376357D01*
X23603Y376176D01*
X22645Y375877D01*
X21730Y375466D01*
X20872Y374947D01*
X20082Y374328D01*
X19373Y373619D01*
X18754Y372829D01*
X18235Y371971D01*
X17823Y371056D01*
X17525Y370098D01*
X17344Y369111D01*
X17284Y368110D01*
X17344Y367109D01*
X17525Y366122D01*
X17823Y365164D01*
X18235Y364250D01*
X18754Y363391D01*
X19373Y362602D01*
X20082Y361892D01*
X20872Y361274D01*
X21730Y360755D01*
X22645Y360343D01*
X23603Y360045D01*
X24589Y359864D01*
X25591Y359803D01*
X26592Y359864D01*
X27579Y360045D01*
X28536Y360343D01*
X29451Y360755D01*
X30310Y361274D01*
X31099Y361892D01*
X31809Y362602D01*
X32427Y363391D01*
X32946Y364250D01*
X33358Y365164D01*
X33656Y366122D01*
X33837Y367109D01*
X33898Y368110D01*
X463386Y368110D02*
X463346Y369111D01*
X463227Y370106D01*
X463029Y371088D01*
X462754Y372051D01*
X462403Y372989D01*
X461978Y373897D01*
X461483Y374767D01*
X460920Y375596D01*
X460294Y376378D01*
X459607Y377107D01*
X458864Y377779D01*
X458070Y378390D01*
X457231Y378936D01*
X456350Y379414D01*
X455435Y379820D01*
X454490Y380153D01*
X453521Y380409D01*
X452535Y380587D01*
X451539Y380686D01*
X450537Y380706D01*
X449537Y380646D01*
X448545Y380507D01*
X447567Y380290D01*
X446609Y379996D01*
X445678Y379626D01*
X444780Y379184D01*
X443919Y378672D01*
X443101Y378093D01*
X442333Y377450D01*
X441617Y376749D01*
X440960Y375993D01*
X440365Y375187D01*
X439835Y374337D01*
X439375Y373447D01*
X438987Y372524D01*
X438674Y371572D01*
X438437Y370599D01*
X438278Y369610D01*
X438199Y368611D01*
Y367609D01*
X438278Y366611D01*
X438437Y365622D01*
X438674Y364648D01*
X438987Y363697D01*
X439375Y362773D01*
X439835Y361883D01*
X440365Y361033D01*
X440960Y360227D01*
X441617Y359471D01*
X442333Y358770D01*
X443101Y358128D01*
X443919Y357549D01*
X444780Y357036D01*
X445678Y356594D01*
X446609Y356225D01*
X447567Y355930D01*
X448545Y355713D01*
X449537Y355574D01*
X450537Y355514D01*
X451539Y355534D01*
X452535Y355634D01*
X453521Y355812D01*
X454490Y356068D01*
X455435Y356400D01*
X456350Y356806D01*
X457231Y357284D01*
X458071Y357830D01*
X458864Y358441D01*
X459607Y359114D01*
X460294Y359843D01*
X460921Y360624D01*
X461483Y361453D01*
X461978Y362324D01*
X462403Y363231D01*
X462754Y364170D01*
X463029Y365133D01*
X463227Y366115D01*
X463346Y367109D01*
X463386Y368110D01*
X459094D02*
X459034Y369111D01*
X458853Y370098D01*
X458555Y371056D01*
X458143Y371971D01*
X457624Y372829D01*
X457005Y373619D01*
X456296Y374328D01*
X455506Y374947D01*
X454648Y375466D01*
X453733Y375877D01*
X452775Y376176D01*
X451789Y376357D01*
X450787Y376417D01*
X449786Y376357D01*
X448799Y376176D01*
X447842Y375877D01*
X446927Y375466D01*
X446068Y374947D01*
X445279Y374328D01*
X444569Y373619D01*
X443951Y372829D01*
X443432Y371971D01*
X443020Y371056D01*
X442722Y370098D01*
X442541Y369111D01*
X442480Y368110D01*
X442541Y367109D01*
X442722Y366122D01*
X443020Y365164D01*
X443432Y364250D01*
X443951Y363391D01*
X444569Y362602D01*
X445279Y361892D01*
X446068Y361274D01*
X446927Y360755D01*
X447842Y360343D01*
X448799Y360045D01*
X449786Y359864D01*
X450787Y359803D01*
X451789Y359864D01*
X452775Y360045D01*
X453733Y360343D01*
X454648Y360755D01*
X455506Y361274D01*
X456296Y361892D01*
X457005Y362602D01*
X457624Y363391D01*
X458143Y364250D01*
X458555Y365164D01*
X458853Y366122D01*
X459034Y367109D01*
X459094Y368110D01*
X888583Y25591D02*
X888543Y26592D01*
X888424Y27586D01*
X888226Y28568D01*
X887951Y29531D01*
X887600Y30470D01*
X887175Y31377D01*
X886680Y32248D01*
X886117Y33077D01*
X885491Y33858D01*
X884804Y34587D01*
X884061Y35259D01*
X883267Y35871D01*
X882428Y36417D01*
X881547Y36894D01*
X880631Y37301D01*
X879686Y37633D01*
X878718Y37889D01*
X877732Y38067D01*
X876735Y38167D01*
X875734Y38186D01*
X874734Y38127D01*
X873742Y37988D01*
X872764Y37770D01*
X871806Y37476D01*
X870875Y37107D01*
X869977Y36664D01*
X869116Y36152D01*
X868298Y35573D01*
X867529Y34931D01*
X866814Y34229D01*
X866157Y33474D01*
X865561Y32668D01*
X865032Y31817D01*
X864572Y30928D01*
X864184Y30004D01*
X863871Y29052D01*
X863634Y28079D01*
X863475Y27090D01*
X863396Y26091D01*
Y25090D01*
X863475Y24091D01*
X863634Y23102D01*
X863871Y22129D01*
X864184Y21177D01*
X864572Y20254D01*
X865032Y19364D01*
X865561Y18513D01*
X866157Y17708D01*
X866814Y16952D01*
X867529Y16251D01*
X868298Y15608D01*
X869116Y15029D01*
X869977Y14517D01*
X870875Y14074D01*
X871806Y13705D01*
X872764Y13411D01*
X873742Y13193D01*
X874734Y13054D01*
X875734Y12995D01*
X876735Y13014D01*
X877732Y13114D01*
X878718Y13292D01*
X879686Y13548D01*
X880631Y13881D01*
X881547Y14287D01*
X882428Y14764D01*
X883267Y15311D01*
X884061Y15922D01*
X884804Y16594D01*
X885491Y17323D01*
X886117Y18105D01*
X886680Y18933D01*
X887175Y19804D01*
X887600Y20712D01*
X887951Y21650D01*
X888226Y22613D01*
X888424Y23595D01*
X888543Y24590D01*
X888583Y25591D01*
X884291D02*
X884231Y26592D01*
X884050Y27579D01*
X883751Y28536D01*
X883340Y29451D01*
X882821Y30310D01*
X882202Y31099D01*
X881493Y31809D01*
X880703Y32427D01*
X879845Y32946D01*
X878930Y33358D01*
X877972Y33656D01*
X876986Y33837D01*
X875984Y33898D01*
X874983Y33837D01*
X873996Y33656D01*
X873038Y33358D01*
X872124Y32946D01*
X871265Y32427D01*
X870476Y31809D01*
X869766Y31099D01*
X869148Y30310D01*
X868629Y29451D01*
X868217Y28536D01*
X867918Y27579D01*
X867738Y26592D01*
X867677Y25591D01*
X867738Y24589D01*
X867918Y23603D01*
X868217Y22645D01*
X868629Y21730D01*
X869148Y20872D01*
X869766Y20082D01*
X870476Y19373D01*
X871265Y18754D01*
X872124Y18235D01*
X873038Y17823D01*
X873996Y17525D01*
X874983Y17344D01*
X875984Y17284D01*
X876986Y17344D01*
X877972Y17525D01*
X878930Y17823D01*
X879845Y18235D01*
X880703Y18754D01*
X881493Y19373D01*
X882202Y20082D01*
X882821Y20872D01*
X883340Y21730D01*
X883751Y22645D01*
X884050Y23603D01*
X884231Y24589D01*
X884291Y25591D01*
X888583Y368110D02*
X888543Y369111D01*
X888424Y370106D01*
X888226Y371088D01*
X887951Y372051D01*
X887600Y372989D01*
X887175Y373897D01*
X886680Y374767D01*
X886117Y375596D01*
X885491Y376378D01*
X884804Y377107D01*
X884061Y377779D01*
X883267Y378390D01*
X882428Y378936D01*
X881547Y379414D01*
X880631Y379820D01*
X879686Y380153D01*
X878718Y380409D01*
X877732Y380587D01*
X876735Y380686D01*
X875734Y380706D01*
X874734Y380646D01*
X873742Y380507D01*
X872764Y380290D01*
X871806Y379996D01*
X870875Y379626D01*
X869977Y379184D01*
X869116Y378672D01*
X868298Y378093D01*
X867529Y377450D01*
X866814Y376749D01*
X866157Y375993D01*
X865561Y375187D01*
X865032Y374337D01*
X864572Y373447D01*
X864184Y372524D01*
X863871Y371572D01*
X863634Y370599D01*
X863475Y369610D01*
X863396Y368611D01*
Y367609D01*
X863475Y366611D01*
X863634Y365622D01*
X863871Y364648D01*
X864184Y363697D01*
X864572Y362773D01*
X865032Y361883D01*
X865561Y361033D01*
X866157Y360227D01*
X866814Y359471D01*
X867529Y358770D01*
X868298Y358128D01*
X869116Y357549D01*
X869977Y357036D01*
X870875Y356594D01*
X871806Y356225D01*
X872764Y355930D01*
X873742Y355713D01*
X874734Y355574D01*
X875734Y355514D01*
X876735Y355534D01*
X877732Y355634D01*
X878718Y355812D01*
X879686Y356068D01*
X880631Y356400D01*
X881547Y356806D01*
X882428Y357284D01*
X883267Y357830D01*
X884061Y358441D01*
X884804Y359114D01*
X885491Y359843D01*
X886117Y360624D01*
X886680Y361453D01*
X887175Y362324D01*
X887600Y363231D01*
X887951Y364170D01*
X888226Y365133D01*
X888424Y366115D01*
X888543Y367109D01*
X888583Y368110D01*
X884291D02*
X884231Y369111D01*
X884050Y370098D01*
X883751Y371056D01*
X883340Y371971D01*
X882821Y372829D01*
X882202Y373619D01*
X881493Y374328D01*
X880703Y374947D01*
X879845Y375466D01*
X878930Y375877D01*
X877972Y376176D01*
X876986Y376357D01*
X875984Y376417D01*
X874983Y376357D01*
X873996Y376176D01*
X873038Y375877D01*
X872124Y375466D01*
X871265Y374947D01*
X870476Y374328D01*
X869766Y373619D01*
X869148Y372829D01*
X868629Y371971D01*
X868217Y371056D01*
X867918Y370098D01*
X867738Y369111D01*
X867677Y368110D01*
X867738Y367109D01*
X867918Y366122D01*
X868217Y365164D01*
X868629Y364250D01*
X869148Y363391D01*
X869766Y362602D01*
X870476Y361892D01*
X871265Y361274D01*
X872124Y360755D01*
X873038Y360343D01*
X873996Y360045D01*
X874983Y359864D01*
X875984Y359803D01*
X876986Y359864D01*
X877972Y360045D01*
X878930Y360343D01*
X879845Y360755D01*
X880703Y361274D01*
X881493Y361892D01*
X882202Y362602D01*
X882821Y363391D01*
X883340Y364250D01*
X883751Y365164D01*
X884050Y366122D01*
X884231Y367109D01*
X884291Y368110D01*
X38189Y25591D02*
X38149Y26592D01*
X38030Y27586D01*
X37832Y28568D01*
X37557Y29531D01*
X37206Y30470D01*
X36781Y31377D01*
X36286Y32248D01*
X35724Y33077D01*
X35097Y33858D01*
X34410Y34587D01*
X33667Y35259D01*
X32874Y35871D01*
X32034Y36417D01*
X31153Y36894D01*
X30238Y37301D01*
X29293Y37633D01*
X28324Y37889D01*
X27338Y38067D01*
X26342Y38167D01*
X25340Y38186D01*
X24340Y38127D01*
X23348Y37988D01*
X22370Y37770D01*
X21413Y37476D01*
X20482Y37107D01*
X19583Y36664D01*
X18722Y36152D01*
X17905Y35573D01*
X17136Y34931D01*
X16420Y34229D01*
X15763Y33474D01*
X15168Y32668D01*
X14638Y31817D01*
X14178Y30928D01*
X13790Y30004D01*
X13477Y29052D01*
X13240Y28079D01*
X13082Y27090D01*
X13002Y26091D01*
Y25090D01*
X13082Y24091D01*
X13240Y23102D01*
X13477Y22129D01*
X13790Y21177D01*
X14178Y20254D01*
X14638Y19364D01*
X15168Y18513D01*
X15763Y17708D01*
X16420Y16952D01*
X17136Y16251D01*
X17905Y15608D01*
X18722Y15029D01*
X19583Y14517D01*
X20482Y14074D01*
X21413Y13705D01*
X22370Y13411D01*
X23348Y13193D01*
X24340Y13054D01*
X25340Y12995D01*
X26342Y13014D01*
X27338Y13114D01*
X28324Y13292D01*
X29293Y13548D01*
X30238Y13881D01*
X31153Y14287D01*
X32034Y14764D01*
X32874Y15311D01*
X33667Y15922D01*
X34410Y16594D01*
X35097Y17323D01*
X35724Y18105D01*
X36286Y18933D01*
X36781Y19804D01*
X37206Y20712D01*
X37557Y21650D01*
X37832Y22613D01*
X38030Y23595D01*
X38149Y24590D01*
X38189Y25591D01*
X33898D02*
X33837Y26592D01*
X33656Y27579D01*
X33358Y28536D01*
X32946Y29451D01*
X32427Y30310D01*
X31809Y31099D01*
X31099Y31809D01*
X30310Y32427D01*
X29451Y32946D01*
X28536Y33358D01*
X27579Y33656D01*
X26592Y33837D01*
X25591Y33898D01*
X24589Y33837D01*
X23603Y33656D01*
X22645Y33358D01*
X21730Y32946D01*
X20872Y32427D01*
X20082Y31809D01*
X19373Y31099D01*
X18754Y30310D01*
X18235Y29451D01*
X17823Y28536D01*
X17525Y27579D01*
X17344Y26592D01*
X17284Y25591D01*
X17344Y24589D01*
X17525Y23603D01*
X17823Y22645D01*
X18235Y21730D01*
X18754Y20872D01*
X19373Y20082D01*
X20082Y19373D01*
X20872Y18754D01*
X21730Y18235D01*
X22645Y17823D01*
X23603Y17525D01*
X24589Y17344D01*
X25591Y17284D01*
X26592Y17344D01*
X27579Y17525D01*
X28536Y17823D01*
X29451Y18235D01*
X30310Y18754D01*
X31099Y19373D01*
X31809Y20082D01*
X32427Y20872D01*
X32946Y21730D01*
X33358Y22645D01*
X33656Y23603D01*
X33837Y24589D01*
X33898Y25591D01*
X463386Y25591D02*
X463346Y26592D01*
X463227Y27586D01*
X463029Y28568D01*
X462754Y29531D01*
X462403Y30470D01*
X461978Y31377D01*
X461483Y32248D01*
X460920Y33077D01*
X460294Y33858D01*
X459607Y34587D01*
X458864Y35259D01*
X458070Y35871D01*
X457231Y36417D01*
X456350Y36894D01*
X455435Y37301D01*
X454490Y37633D01*
X453521Y37889D01*
X452535Y38067D01*
X451539Y38167D01*
X450537Y38186D01*
X449537Y38127D01*
X448545Y37988D01*
X447567Y37770D01*
X446609Y37476D01*
X445678Y37107D01*
X444780Y36664D01*
X443919Y36152D01*
X443101Y35573D01*
X442333Y34931D01*
X441617Y34229D01*
X440960Y33474D01*
X440365Y32668D01*
X439835Y31817D01*
X439375Y30928D01*
X438987Y30004D01*
X438674Y29052D01*
X438437Y28079D01*
X438278Y27090D01*
X438199Y26091D01*
Y25090D01*
X438278Y24091D01*
X438437Y23102D01*
X438674Y22129D01*
X438987Y21177D01*
X439375Y20254D01*
X439835Y19364D01*
X440365Y18513D01*
X440960Y17708D01*
X441617Y16952D01*
X442333Y16251D01*
X443101Y15608D01*
X443919Y15029D01*
X444780Y14517D01*
X445678Y14074D01*
X446609Y13705D01*
X447567Y13411D01*
X448545Y13193D01*
X449537Y13054D01*
X450537Y12995D01*
X451539Y13014D01*
X452535Y13114D01*
X453521Y13292D01*
X454490Y13548D01*
X455435Y13881D01*
X456350Y14287D01*
X457231Y14764D01*
X458071Y15311D01*
X458864Y15922D01*
X459607Y16594D01*
X460294Y17323D01*
X460921Y18105D01*
X461483Y18933D01*
X461978Y19804D01*
X462403Y20712D01*
X462754Y21650D01*
X463029Y22613D01*
X463227Y23595D01*
X463346Y24590D01*
X463386Y25591D01*
X459094D02*
X459034Y26592D01*
X458853Y27579D01*
X458555Y28536D01*
X458143Y29451D01*
X457624Y30310D01*
X457005Y31099D01*
X456296Y31809D01*
X455506Y32427D01*
X454648Y32946D01*
X453733Y33358D01*
X452775Y33656D01*
X451789Y33837D01*
X450787Y33898D01*
X449786Y33837D01*
X448799Y33656D01*
X447842Y33358D01*
X446927Y32946D01*
X446068Y32427D01*
X445279Y31809D01*
X444569Y31099D01*
X443951Y30310D01*
X443432Y29451D01*
X443020Y28536D01*
X442722Y27579D01*
X442541Y26592D01*
X442480Y25591D01*
X442541Y24589D01*
X442722Y23603D01*
X443020Y22645D01*
X443432Y21730D01*
X443951Y20872D01*
X444569Y20082D01*
X445279Y19373D01*
X446068Y18754D01*
X446927Y18235D01*
X447842Y17823D01*
X448799Y17525D01*
X449786Y17344D01*
X450787Y17284D01*
X451789Y17344D01*
X452775Y17525D01*
X453733Y17823D01*
X454648Y18235D01*
X455506Y18754D01*
X456296Y19373D01*
X457005Y20082D01*
X457624Y20872D01*
X458143Y21730D01*
X458555Y22645D01*
X458853Y23603D01*
X459034Y24589D01*
X459094Y25591D01*
X29632Y334646D02*
X29550Y335635D01*
X29306Y336597D01*
X28907Y337506D01*
X28364Y338337D01*
X27692Y339067D01*
X26909Y339677D01*
X26036Y340149D01*
X25097Y340471D01*
X24118Y340635D01*
X23126D01*
X22147Y340471D01*
X21208Y340149D01*
X20335Y339677D01*
X19552Y339067D01*
X18880Y338337D01*
X18337Y337506D01*
X17938Y336597D01*
X17694Y335635D01*
X17613Y334646D01*
X17694Y333657D01*
X17938Y332694D01*
X18337Y331785D01*
X18880Y330955D01*
X19552Y330224D01*
X20335Y329615D01*
X21208Y329142D01*
X22147Y328820D01*
X23126Y328657D01*
X24118D01*
X25097Y328820D01*
X26036Y329142D01*
X26909Y329615D01*
X27692Y330224D01*
X28364Y330955D01*
X28907Y331785D01*
X29306Y332694D01*
X29550Y333657D01*
X29632Y334646D01*
X832781Y19685D02*
X832699Y20674D01*
X832456Y21636D01*
X832057Y22545D01*
X831514Y23376D01*
X830842Y24106D01*
X830059Y24716D01*
X829186Y25188D01*
X828247Y25511D01*
X827268Y25674D01*
X826275D01*
X825296Y25511D01*
X824358Y25188D01*
X823485Y24716D01*
X822701Y24106D01*
X822029Y23376D01*
X821486Y22545D01*
X821088Y21636D01*
X820844Y20674D01*
X820762Y19685D01*
X820844Y18696D01*
X821088Y17734D01*
X821486Y16825D01*
X822029Y15994D01*
X822701Y15264D01*
X823485Y14654D01*
X824358Y14182D01*
X825296Y13859D01*
X826275Y13696D01*
X827268D01*
X828247Y13859D01*
X829186Y14182D01*
X830059Y14654D01*
X830842Y15264D01*
X831514Y15994D01*
X832057Y16825D01*
X832456Y17734D01*
X832699Y18696D01*
X832781Y19685D01*
Y374016D02*
X832699Y375005D01*
X832456Y375967D01*
X832057Y376876D01*
X831514Y377707D01*
X830842Y378437D01*
X830059Y379047D01*
X829186Y379519D01*
X828247Y379841D01*
X827268Y380005D01*
X826275D01*
X825296Y379841D01*
X824358Y379519D01*
X823485Y379047D01*
X822701Y378437D01*
X822029Y377707D01*
X821486Y376876D01*
X821088Y375967D01*
X820844Y375005D01*
X820762Y374016D01*
X820844Y373027D01*
X821088Y372064D01*
X821486Y371156D01*
X822029Y370325D01*
X822701Y369594D01*
X823485Y368985D01*
X824358Y368512D01*
X825296Y368190D01*
X826275Y368027D01*
X827268D01*
X828247Y368190D01*
X829186Y368512D01*
X830059Y368985D01*
X830842Y369594D01*
X831514Y370325D01*
X832057Y371156D01*
X832456Y372064D01*
X832699Y373027D01*
X832781Y374016D01*
X29632Y59055D02*
X29550Y60044D01*
X29306Y61006D01*
X28907Y61915D01*
X28364Y62746D01*
X27692Y63477D01*
X26909Y64086D01*
X26036Y64559D01*
X25097Y64881D01*
X24118Y65044D01*
X23126D01*
X22147Y64881D01*
X21208Y64559D01*
X20335Y64086D01*
X19552Y63477D01*
X18880Y62746D01*
X18337Y61915D01*
X17938Y61006D01*
X17694Y60044D01*
X17613Y59055D01*
X17694Y58066D01*
X17938Y57104D01*
X18337Y56195D01*
X18880Y55364D01*
X19552Y54634D01*
X20335Y54024D01*
X21208Y53552D01*
X22147Y53229D01*
X23126Y53066D01*
X24118D01*
X25097Y53229D01*
X26036Y53552D01*
X26909Y54024D01*
X27692Y54634D01*
X28364Y55364D01*
X28907Y56195D01*
X29306Y57104D01*
X29550Y58066D01*
X29632Y59055D01*
X62205Y46063D02*
Y52362D01*
X65355D01*
Y46063D02*
Y52362D01*
X62205Y46063D02*
X65355Y46063D01*
X62205Y33029D02*
Y39358D01*
X65355D01*
Y33029D02*
Y39358D01*
X62205Y33029D02*
X65355Y33029D01*
X112204Y44107D02*
Y50436D01*
X109055Y44107D02*
X112204D01*
X109055D02*
Y50436D01*
X112204Y50436D01*
X115355Y44094D02*
Y50393D01*
X118504D01*
Y44094D02*
Y50393D01*
X115355Y44094D02*
X118504Y44094D01*
X65767Y94095D02*
Y100394D01*
X62617Y94095D02*
X65767D01*
X62617D02*
Y100394D01*
X65767Y100394D01*
X76378Y94095D02*
Y100394D01*
X73228Y94095D02*
X76378D01*
X73228D02*
Y100394D01*
X76378Y100394D01*
X38583Y94094D02*
X41733Y94094D01*
Y100393D01*
X38583D02*
X41733D01*
X38583Y94094D02*
Y100393D01*
X105512Y81437D02*
X105512Y79469D01*
X101575Y81437D02*
X105512D01*
X101575Y79469D02*
Y81437D01*
Y79469D02*
X105512D01*
X105590Y100394D02*
X108740Y100394D01*
X105590Y94095D02*
Y100394D01*
Y94095D02*
X108740D01*
Y100394D01*
X105512Y88976D02*
X105512Y87008D01*
X101575Y88976D02*
X105512D01*
X101575Y87008D02*
Y88976D01*
Y87008D02*
X105512D01*
X441339Y202756D02*
X444488Y202756D01*
Y209055D01*
X441339D02*
X444488D01*
X441339Y202756D02*
Y209055D01*
X406299Y281102D02*
X406299Y277952D01*
X412598D01*
Y281102D01*
X406299D02*
X412598D01*
X154134Y206004D02*
X154134Y202854D01*
X147835Y206004D02*
X154134D01*
X147835Y202854D02*
Y206004D01*
Y202854D02*
X154134D01*
X112284Y177952D02*
X115434Y177952D01*
Y184252D01*
X112284D02*
X115434D01*
X112284Y177952D02*
Y184252D01*
X462992Y274409D02*
X466142Y274409D01*
Y280708D01*
X462992D02*
X466142D01*
X462992Y274409D02*
Y280708D01*
X480708Y281103D02*
X483858Y281103D01*
X480708Y274804D02*
Y281103D01*
Y274804D02*
X483858D01*
Y281103D01*
X406299Y274212D02*
X406299Y271063D01*
X412598D01*
Y274212D01*
X406299D02*
X412598D01*
X495276Y259449D02*
X495276Y256299D01*
X488977Y259449D02*
X495276D01*
X488977Y256299D02*
Y259449D01*
Y256299D02*
X495276D01*
X454331Y288582D02*
X457481Y288582D01*
Y294882D01*
X454331D02*
X457481D01*
X454331Y288582D02*
Y294882D01*
X443307Y288582D02*
X446457Y288582D01*
Y294882D01*
X443307D02*
X446457D01*
X443307Y288582D02*
Y294882D01*
X406299Y267322D02*
X406299Y264173D01*
X412598D01*
Y267322D01*
X406299D02*
X412598D01*
X495276Y253544D02*
X495276Y250394D01*
X488977Y253544D02*
X495276D01*
X488977Y250394D02*
Y253544D01*
Y250394D02*
X495276D01*
X488976Y248031D02*
X488976Y244882D01*
X495275D01*
Y248031D01*
X488976D02*
X495275D01*
X488976Y242519D02*
X488976Y239370D01*
X495275D01*
Y242519D01*
X488976D02*
X495275D01*
X497441Y216338D02*
X500591Y216338D01*
Y222638D01*
X497441D02*
X500591D01*
X497441Y216338D02*
Y222638D01*
X490551Y222638D02*
X493701Y222638D01*
X490551Y216339D02*
Y222638D01*
Y216339D02*
X493701D01*
Y222638D01*
X483661Y222638D02*
X486811Y222638D01*
X483661Y216339D02*
Y222638D01*
Y216339D02*
X486811D01*
Y222638D01*
X476771Y222638D02*
X479921Y222638D01*
X476771Y216339D02*
Y222638D01*
Y216339D02*
X479921D01*
Y222638D01*
X393732Y193111D02*
X393732Y189961D01*
X387433Y193111D02*
X393732D01*
X387433Y189961D02*
Y193111D01*
Y189961D02*
X393732D01*
X419685Y195079D02*
X422834Y195079D01*
X419685Y188780D02*
Y195079D01*
Y188780D02*
X422834D01*
Y195079D01*
X387432Y224015D02*
X387432Y220866D01*
X393731D01*
Y224015D01*
X387432D02*
X393731D01*
X464960Y209055D02*
X468110Y209055D01*
X464960Y202756D02*
Y209055D01*
Y202756D02*
X468110D01*
Y209055D01*
X457086Y209055D02*
X460236Y209055D01*
X457086Y202756D02*
Y209055D01*
Y202756D02*
X460236D01*
Y209055D01*
X62599Y80371D02*
X65748Y80371D01*
Y86700D01*
X62599D02*
X65748D01*
X62599Y80371D02*
Y86700D01*
X100787Y184294D02*
X103937Y184294D01*
X100787Y177965D02*
Y184294D01*
Y177965D02*
X103937D01*
Y184294D01*
X155905Y137050D02*
X159055Y137050D01*
X155905Y130721D02*
Y137050D01*
Y130721D02*
X159055D01*
Y137050D01*
X418701Y246218D02*
X421851Y246218D01*
Y252547D01*
X418701D02*
X421851D01*
X418701Y246218D02*
Y252547D01*
X85039Y62962D02*
Y66899D01*
X83071Y62962D02*
X85039D01*
X83071D02*
Y66899D01*
X85039Y66899D01*
X69882Y81496D02*
Y85433D01*
X67913Y81496D02*
X69882D01*
X67913D02*
Y85433D01*
X69882Y85433D01*
X73819Y81496D02*
Y85433D01*
X71850Y81496D02*
X73819D01*
X71850D02*
Y85433D01*
X73819Y85433D01*
X238738Y104724D02*
X238738Y101575D01*
X245066D01*
Y104724D01*
X238738D02*
X245066D01*
X372596D02*
X372596Y101575D01*
X378925D01*
Y104724D01*
X372596D02*
X378925D01*
X380470Y155118D02*
X380470Y151968D01*
X386799D01*
Y155118D01*
X380470D02*
X386799D01*
X439525D02*
X439525Y151968D01*
X445854D01*
Y155118D01*
X439525D02*
X445854D01*
X498580D02*
X498580Y151968D01*
X504909D01*
Y155118D01*
X498580D02*
X504909D01*
X506454Y104724D02*
X506454Y101575D01*
X512783D01*
Y104724D01*
X506454D02*
X512783D01*
X640312D02*
X640312Y101575D01*
X646641D01*
Y104724D01*
X640312D02*
X646641D01*
X796851Y65509D02*
X800000Y65509D01*
Y71838D01*
X796851D02*
X800000D01*
X796851Y65509D02*
Y71838D01*
Y104879D02*
X800000Y104879D01*
Y111208D01*
X796851D02*
X800000D01*
X796851Y104879D02*
Y111208D01*
Y144249D02*
X800000Y144249D01*
Y150578D01*
X796851D02*
X800000D01*
X796851Y144249D02*
Y150578D01*
X814173Y166774D02*
X817323Y166774D01*
X814173Y160445D02*
Y166774D01*
Y160445D02*
X817323D01*
Y166774D01*
X814173Y127404D02*
X817323Y127404D01*
X814173Y121075D02*
Y127404D01*
Y121075D02*
X817323D01*
Y127404D01*
X814173Y88034D02*
X817323Y88034D01*
X814173Y81705D02*
Y88034D01*
Y81705D02*
X817323D01*
Y88034D01*
X875591Y65509D02*
X878741Y65509D01*
Y71838D01*
X875591D02*
X878741D01*
X875591Y65509D02*
Y71838D01*
Y104879D02*
X878741Y104879D01*
Y111208D01*
X875591D02*
X878741D01*
X875591Y104879D02*
Y111208D01*
Y144249D02*
X878741Y144249D01*
Y150578D01*
X875591D02*
X878741D01*
X875591Y144249D02*
Y150578D01*
X790790Y361024D02*
X790790Y357874D01*
X784461Y361024D02*
X790790D01*
X784461Y357874D02*
Y361024D01*
Y357874D02*
X790790D01*
X570318Y361024D02*
X570318Y357874D01*
X563989Y361024D02*
X570318D01*
X563989Y357874D02*
Y361024D01*
Y357874D02*
X570318D01*
X349845Y361024D02*
X349845Y357874D01*
X343516Y361024D02*
X349845D01*
X343516Y357874D02*
Y361024D01*
Y357874D02*
X349845D01*
X129373Y361024D02*
X129373Y357874D01*
X123044Y361024D02*
X129373D01*
X123044Y357874D02*
Y361024D01*
Y357874D02*
X129373D01*
X406257Y287007D02*
X406257Y283858D01*
X412586D01*
Y287007D01*
X406257D02*
X412586D01*
X89566Y170551D02*
X92715Y170551D01*
X89566Y164222D02*
Y170551D01*
Y164222D02*
X92715D01*
Y170551D01*
X108493Y164167D02*
X111643Y164167D01*
Y170496D01*
X108493D02*
X111643D01*
X108493Y164167D02*
Y170496D01*
X128346Y170515D02*
X131496Y170515D01*
X128346Y164186D02*
Y170515D01*
Y164186D02*
X131496D01*
Y170515D01*
X94882Y177911D02*
X98032Y177911D01*
Y184240D01*
X94882D02*
X98032D01*
X94882Y177911D02*
Y184240D01*
X106693Y177911D02*
X109843Y177911D01*
Y184240D01*
X106693D02*
X109843D01*
X106693Y177911D02*
Y184240D01*
X119685Y190706D02*
X122835Y190706D01*
Y197035D01*
X119685D02*
X122835D01*
X119685Y190706D02*
Y197035D01*
X128347Y113934D02*
X131496Y113934D01*
Y120263D01*
X128347D02*
X131496D01*
X128347Y113934D02*
Y120263D01*
X150985Y130667D02*
X154134Y130667D01*
Y136996D01*
X150985D02*
X154134D01*
X150985Y130667D02*
Y136996D01*
X157874Y111966D02*
X161024Y111966D01*
Y118295D01*
X157874D02*
X161024D01*
X157874Y111966D02*
Y118295D01*
X151969Y111966D02*
X155118Y111966D01*
Y118295D01*
X151969D02*
X155118D01*
X151969Y111966D02*
Y118295D01*
X160826Y137050D02*
X163976Y137050D01*
X160826Y130721D02*
Y137050D01*
Y130721D02*
X163976D01*
Y137050D01*
X153304Y125590D02*
X153304Y122441D01*
X159633D01*
Y125590D01*
X153304D02*
X159633D01*
X413976Y252601D02*
X417126Y252601D01*
X413976Y246272D02*
Y252601D01*
Y246272D02*
X417126D01*
Y252601D01*
X423425Y246218D02*
X426575Y246218D01*
Y252547D01*
X423425D02*
X426575D01*
X423425Y246218D02*
Y252547D01*
X387390Y218110D02*
X387390Y214960D01*
X393719D01*
Y218110D01*
X387390D02*
X393719D01*
X449213Y202714D02*
X452362Y202714D01*
Y209043D01*
X449213D02*
X452362D01*
X449213Y202714D02*
Y209043D01*
D130*
X69685Y100020D02*
D03*
X45275D02*
D03*
X101673D02*
D03*
X455905Y280335D02*
D03*
X444881D02*
D03*
D131*
X81693Y87402D02*
D03*
D132*
X103821Y169488D02*
D03*
X51575Y95090D02*
D03*
X57874Y73414D02*
D03*
D133*
X142126Y46063D02*
D03*
D134*
X138386Y182775D02*
D03*
D135*
X463583Y226378D02*
D03*
D136*
X146161Y136319D02*
D03*
D137*
X145118Y121299D02*
D03*
D138*
X767717Y141929D02*
D03*
X744095Y141930D02*
D03*
X228346Y141811D02*
D03*
X588583Y359252D02*
D03*
X145068D02*
D03*
X405905Y255709D02*
D03*
M02*
